M48
; DRILL file KiCad 10.0.4 date 2026-07-21T18:44:37
; FORMAT={-:-/ absolute / metric / decimal}
; #@! TF.CreationDate,2026-07-21T18:44:37+12:00
; #@! TF.GenerationSoftware,Kicad,Pcbnew,10.0.4
; #@! TF.FileFunction,Plated,1,2,PTH
FMAT,2
METRIC
; #@! TA.AperFunction,Plated,PTH,ComponentDrill
T1C0.800
; #@! TA.AperFunction,Plated,PTH,ComponentDrill
T2C1.000
; #@! TA.AperFunction,Plated,PTH,ComponentDrill
T3C1.524
; #@! TA.AperFunction,Plated,PTH,ComponentDrill
T4C3.048
%
G90
G05
T1
X-17.461Y-32.859
X-17.461Y-40.479
X-15.08Y-109.054
X-15.08Y-116.674
X-11.905Y-52.543
X-11.905Y-60.163
X-10.318Y-70.956
X-10.318Y-78.576
X1.587Y-32.7
X1.587Y-40.32
X3.175Y-90.64
X3.175Y-98.26
X8.731Y-109.054
X8.731Y-116.674
X11.112Y-52.701
X11.112Y-60.321
X15.874Y-71.75
X15.874Y-79.37
X20.636Y-32.859
X20.636Y-40.479
X25.398Y-90.64
X25.398Y-98.26
X30.161Y-52.701
X30.161Y-60.321
X33.335Y-109.054
X33.335Y-116.674
X34.923Y-71.591
X34.923Y-79.212
X39.685Y-32.859
X39.685Y-40.479
X44.447Y-90.799
X44.447Y-98.419
X49.209Y-52.701
X49.209Y-60.321
X53.972Y-71.75
X53.972Y-79.37
X58.734Y-32.859
X58.734Y-40.479
X63.496Y-90.64
X63.496Y-98.26
X68.258Y-52.701
X68.258Y-60.321
X73.02Y-71.75
X73.02Y-79.37
X77.783Y-32.859
X77.783Y-40.479
X82.545Y-90.799
X82.545Y-98.419
X87.307Y-52.701
X87.307Y-60.321
X92.069Y-71.75
X92.069Y-79.37
X96.831Y-32.859
X96.831Y-40.479
X101.594Y-90.799
X101.594Y-98.419
X104.768Y-109.054
X104.768Y-116.674
X106.356Y-52.701
X106.356Y-60.321
X111.118Y-71.75
X111.118Y-79.37
X115.88Y-32.859
X115.88Y-40.479
X120.642Y-90.799
X120.642Y-98.419
X125.405Y-52.701
X125.405Y-60.321
X130.167Y-71.75
X130.167Y-79.37
X134.929Y-32.7
X134.929Y-40.32
X139.691Y-90.799
X139.691Y-98.419
X144.453Y-52.701
X144.453Y-60.321
X149.216Y-71.75
X149.216Y-79.37
X153.978Y-32.859
X153.978Y-40.479
X158.74Y-90.799
X158.74Y-98.419
X163.502Y-52.701
X163.502Y-60.321
X168.264Y-71.75
X168.264Y-79.37
X173.027Y-33.652
X173.027Y-41.272
X175.408Y-109.054
X175.408Y-116.674
X177.789Y-90.799
X177.789Y-98.419
X182.551Y-52.701
X182.551Y-60.321
X187.313Y-70.956
X187.313Y-78.576
X192.075Y-33.652
X192.075Y-41.272
X196.838Y-90.005
X196.838Y-97.625
X200.012Y-109.054
X200.012Y-116.674
X201.6Y-52.701
X201.6Y-60.321
X206.362Y-71.591
X206.362Y-79.212
X211.124Y-33.652
X211.124Y-41.272
X219.061Y-90.005
X219.061Y-97.625
X220.649Y-52.701
X220.649Y-60.321
X220.649Y-109.054
X220.649Y-116.674
X226.204Y-83.338
X230.0Y-45.5
X233.825Y-83.338
X237.62Y-45.5
X239.697Y-90.005
X239.697Y-97.625
X239.697Y-109.054
X239.697Y-116.674
X244.46Y-52.701
X244.46Y-60.321
X257.46Y-73.5
X257.96Y-46.5
X258.746Y-90.005
X258.746Y-97.625
X258.746Y-108.895
X258.746Y-116.515
X265.08Y-73.5
X265.58Y-46.5
X277.001Y-90.005
X277.001Y-97.625
X277.001Y-109.054
X277.001Y-116.674
T2
X252.68Y-22.5
X252.68Y-25.04
X252.68Y-27.58
X252.68Y-30.12
X252.68Y-32.66
X252.68Y-35.2
X252.68Y-37.74
X252.68Y-40.28
X252.68Y-42.82
X252.68Y-45.36
X252.68Y-47.9
X252.68Y-50.44
X252.68Y-52.98
X252.68Y-55.52
X252.68Y-58.06
X252.68Y-60.6
X252.68Y-63.14
X252.68Y-65.68
X252.68Y-68.22
X252.68Y-70.76
X270.46Y-22.5
X270.46Y-25.04
X270.46Y-27.58
X270.46Y-30.12
X270.46Y-32.66
X270.46Y-35.2
X270.46Y-37.74
X270.46Y-40.28
X270.46Y-42.82
X270.46Y-45.36
X270.46Y-47.9
X270.46Y-50.44
X270.46Y-52.98
X270.46Y-55.52
X270.46Y-58.06
X270.46Y-60.6
X270.46Y-63.14
X270.46Y-65.68
X270.46Y-68.22
X270.46Y-70.76
T3
X-30.796Y-33.97
X-28.415Y-110.165
X-26.034Y-53.019
X-24.446Y-31.43
X-23.652Y-72.068
X-22.065Y-107.625
X-19.684Y-50.479
X-18.89Y-91.117
X-17.302Y-69.528
X-12.54Y-88.577
X-11.747Y-33.97
X-5.397Y-31.43
X-4.604Y-110.165
X-2.223Y-53.019
X1.746Y-107.625
X2.54Y-72.068
X4.127Y-50.479
X7.302Y-33.97
X8.89Y-69.528
X12.064Y-91.117
X13.652Y-31.43
X16.826Y-53.019
X18.414Y-88.577
X19.207Y-110.165
X21.588Y-72.068
X23.176Y-50.479
X25.557Y-107.625
X26.351Y-33.97
X27.938Y-69.528
X31.113Y-91.117
X32.701Y-31.43
X35.875Y-53.019
X37.463Y-88.577
X40.637Y-72.068
X42.225Y-50.479
X45.399Y-33.97
X46.987Y-69.528
X50.162Y-91.117
X51.749Y-31.43
X54.924Y-53.019
X56.512Y-88.577
X59.686Y-72.068
X61.274Y-50.479
X64.448Y-33.97
X66.036Y-69.528
X69.21Y-91.117
X70.798Y-31.43
X73.973Y-53.019
X75.56Y-88.577
X78.735Y-72.068
X80.323Y-50.479
X83.497Y-33.97
X85.085Y-69.528
X88.259Y-91.117
X89.847Y-31.43
X90.64Y-110.165
X93.021Y-53.019
X94.609Y-88.577
X96.99Y-107.625
X97.784Y-72.068
X99.371Y-50.479
X102.546Y-33.97
X104.134Y-69.528
X107.308Y-91.117
X108.896Y-31.43
X112.07Y-53.019
X113.658Y-88.577
X116.832Y-72.068
X118.42Y-50.479
X121.595Y-33.97
X123.182Y-69.528
X126.357Y-91.117
X127.945Y-31.43
X131.119Y-53.019
X132.707Y-88.577
X135.881Y-72.068
X137.469Y-50.479
X140.643Y-33.97
X142.231Y-69.528
X145.406Y-91.117
X146.993Y-31.43
X150.168Y-53.019
X151.756Y-88.577
X154.93Y-72.068
X156.518Y-50.479
X159.692Y-33.97
X161.28Y-69.528
X162.073Y-110.165
X164.454Y-91.117
X166.042Y-31.43
X168.423Y-107.625
X169.217Y-53.019
X170.804Y-88.577
X173.979Y-72.068
X175.567Y-50.479
X178.741Y-33.97
X180.329Y-69.528
X183.503Y-91.117
X185.091Y-31.43
X185.884Y-110.165
X188.265Y-53.019
X189.853Y-88.577
X192.234Y-107.625
X193.028Y-72.068
X194.615Y-50.479
X197.79Y-33.97
X199.378Y-69.528
X204.14Y-31.43
X204.933Y-91.117
X207.314Y-53.019
X207.314Y-110.165
X211.283Y-88.577
X213.664Y-50.479
X213.664Y-107.625
X223.982Y-72.068
X226.363Y-33.97
X226.363Y-91.117
X226.363Y-110.165
X230.332Y-69.528
X231.125Y-53.019
X232.713Y-31.43
X232.713Y-88.577
X232.713Y-107.625
X237.475Y-50.479
X245.412Y-91.117
X245.412Y-110.165
X251.762Y-88.577
X251.762Y-107.625
X257.65Y-33.96
X257.65Y-53.019
X264.0Y-31.42
X264.0Y-50.479
X264.461Y-91.117
X264.461Y-110.165
X270.811Y-88.577
X270.811Y-107.625
T4
X-26.986Y-86.67
X-3.173Y-86.67
X44.444Y-105.72
X144.457Y-105.72
X215.88Y-67.63
X218.287Y-29.5
X239.692Y-67.63
X242.1Y-29.5
M30
