M48
; DRILL file KiCad 10.0.4 date 2026-07-21T18:44:37
; FORMAT={-:-/ absolute / metric / decimal}
; #@! TF.CreationDate,2026-07-21T18:44:37+12:00
; #@! TF.GenerationSoftware,Kicad,Pcbnew,10.0.4
; #@! TF.FileFunction,NonPlated,1,2,NPTH
FMAT,2
METRIC
; #@! TA.AperFunction,NonPlated,NPTH,ComponentDrill
T1C1.750
; #@! TA.AperFunction,NonPlated,NPTH,ComponentDrill
T2C3.988
%
G90
G05
T1
X-32.066Y-36.51
X-29.685Y-112.705
X-27.304Y-55.559
X-24.922Y-74.608
X-21.906Y-36.51
X-20.16Y-93.657
X-19.525Y-112.705
X-17.144Y-55.559
X-14.762Y-74.608
X-13.017Y-36.51
X-10.0Y-93.657
X-5.874Y-112.705
X-3.493Y-55.559
X-2.857Y-36.51
X1.27Y-74.608
X4.286Y-112.705
X6.032Y-36.51
X6.667Y-55.559
X10.794Y-93.657
X11.43Y-74.608
X15.556Y-55.559
X16.192Y-36.51
X17.937Y-112.705
X20.318Y-74.608
X20.954Y-93.657
X25.081Y-36.51
X25.716Y-55.559
X28.097Y-112.705
X29.843Y-93.657
X30.478Y-74.608
X34.605Y-55.559
X35.241Y-36.51
X39.367Y-74.608
X40.003Y-93.657
X44.129Y-36.51
X44.765Y-55.559
X48.892Y-93.657
X49.527Y-74.608
X53.654Y-55.559
X54.289Y-36.51
X58.416Y-74.608
X59.052Y-93.657
X63.178Y-36.51
X63.814Y-55.559
X67.94Y-93.657
X68.576Y-74.608
X72.703Y-55.559
X73.338Y-36.51
X77.465Y-74.608
X78.1Y-93.657
X82.227Y-36.51
X82.863Y-55.559
X86.989Y-93.657
X87.625Y-74.608
X89.37Y-112.705
X91.751Y-55.559
X92.387Y-36.51
X96.514Y-74.608
X97.149Y-93.657
X99.53Y-112.705
X101.276Y-36.51
X101.911Y-55.559
X106.038Y-93.657
X106.674Y-74.608
X110.8Y-55.559
X111.436Y-36.51
X115.562Y-74.608
X116.198Y-93.657
X120.325Y-36.51
X120.96Y-55.559
X125.087Y-93.657
X125.722Y-74.608
X129.849Y-55.559
X130.485Y-36.51
X134.611Y-74.608
X135.247Y-93.657
X139.373Y-36.51
X140.009Y-55.559
X144.136Y-93.657
X144.771Y-74.608
X148.898Y-55.559
X149.533Y-36.51
X153.66Y-74.608
X154.296Y-93.657
X158.422Y-36.51
X159.058Y-55.559
X160.803Y-112.705
X163.184Y-93.657
X163.82Y-74.608
X167.947Y-55.559
X168.582Y-36.51
X170.963Y-112.705
X172.709Y-74.608
X173.344Y-93.657
X177.471Y-36.51
X178.107Y-55.559
X182.233Y-93.657
X182.869Y-74.608
X184.614Y-112.705
X186.995Y-55.559
X187.631Y-36.51
X191.758Y-74.608
X192.393Y-93.657
X194.774Y-112.705
X196.52Y-36.51
X197.155Y-55.559
X201.918Y-74.608
X203.663Y-93.657
X206.044Y-55.559
X206.044Y-112.705
X206.68Y-36.51
X213.823Y-93.657
X216.204Y-55.559
X216.204Y-112.705
X222.712Y-74.608
X225.093Y-36.51
X225.093Y-93.657
X225.093Y-112.705
X229.855Y-55.559
X232.872Y-74.608
X235.253Y-36.51
X235.253Y-93.657
X235.253Y-112.705
X240.015Y-55.559
X244.142Y-93.657
X244.142Y-112.705
X254.302Y-93.657
X254.302Y-112.705
X256.38Y-36.5
X256.38Y-55.559
X263.191Y-93.657
X263.191Y-112.705
X266.54Y-36.5
X266.54Y-55.559
X273.351Y-93.657
X273.351Y-112.705
T2
X-26.986Y-36.51
X-26.986Y-101.91
X-24.605Y-112.705
X-22.224Y-55.559
X-19.842Y-74.608
X-15.08Y-93.657
X-7.937Y-36.51
X-3.173Y-101.91
X-0.794Y-112.705
X1.587Y-55.559
X6.35Y-74.608
X11.112Y-36.51
X15.874Y-93.657
X20.636Y-55.559
X23.017Y-112.705
X25.398Y-74.608
X30.161Y-36.51
X34.923Y-93.657
X39.685Y-55.559
X44.444Y-120.96
X44.447Y-74.608
X49.209Y-36.51
X53.972Y-93.657
X58.734Y-55.559
X63.496Y-74.608
X68.258Y-36.51
X73.02Y-93.657
X77.783Y-55.559
X82.545Y-74.608
X87.307Y-36.51
X92.069Y-93.657
X94.45Y-112.705
X96.831Y-55.559
X101.594Y-74.608
X106.356Y-36.51
X111.118Y-93.657
X115.88Y-55.559
X120.642Y-74.608
X125.405Y-36.51
X130.167Y-93.657
X134.929Y-55.559
X139.691Y-74.608
X144.453Y-36.51
X144.457Y-120.96
X149.216Y-93.657
X153.978Y-55.559
X158.74Y-74.608
X163.502Y-36.51
X165.883Y-112.705
X168.264Y-93.657
X173.027Y-55.559
X177.789Y-74.608
X182.551Y-36.51
X187.313Y-93.657
X189.694Y-112.705
X192.075Y-55.559
X196.838Y-74.608
X201.6Y-36.51
X208.743Y-93.657
X211.124Y-55.559
X211.124Y-112.705
X215.88Y-82.87
X218.287Y-44.74
X227.792Y-74.608
X230.173Y-36.51
X230.173Y-93.657
X230.173Y-112.705
X234.935Y-55.559
X239.692Y-82.87
X242.1Y-44.74
X249.222Y-93.657
X249.222Y-112.705
X261.46Y-36.5
X261.46Y-55.559
X268.271Y-93.657
X268.271Y-112.705
M30
