%TF.GenerationSoftware,KiCad,Pcbnew,10.0.4*%
%TF.CreationDate,2026-07-21T18:43:59+12:00*%
%TF.ProjectId,keyboard,6b657962-6f61-4726-942e-6b696361645f,rev?*%
%TF.SameCoordinates,Original*%
%TF.FileFunction,Legend,Top*%
%TF.FilePolarity,Positive*%
%FSLAX46Y46*%
G04 Gerber Fmt 4.6, Leading zero omitted, Abs format (unit mm)*
G04 Created by KiCad (PCBNEW 10.0.4) date 2026-07-21 18:43:59*
%MOMM*%
%LPD*%
G01*
G04 APERTURE LIST*
%ADD10C,0.150000*%
%ADD11C,0.120000*%
G04 APERTURE END LIST*
D10*
X128501619Y-76774285D02*
X127501619Y-76774285D01*
X127501619Y-76774285D02*
X127501619Y-76536190D01*
X127501619Y-76536190D02*
X127549238Y-76393333D01*
X127549238Y-76393333D02*
X127644476Y-76298095D01*
X127644476Y-76298095D02*
X127739714Y-76250476D01*
X127739714Y-76250476D02*
X127930190Y-76202857D01*
X127930190Y-76202857D02*
X128073047Y-76202857D01*
X128073047Y-76202857D02*
X128263523Y-76250476D01*
X128263523Y-76250476D02*
X128358761Y-76298095D01*
X128358761Y-76298095D02*
X128454000Y-76393333D01*
X128454000Y-76393333D02*
X128501619Y-76536190D01*
X128501619Y-76536190D02*
X128501619Y-76774285D01*
X127501619Y-75869523D02*
X127501619Y-75250476D01*
X127501619Y-75250476D02*
X127882571Y-75583809D01*
X127882571Y-75583809D02*
X127882571Y-75440952D01*
X127882571Y-75440952D02*
X127930190Y-75345714D01*
X127930190Y-75345714D02*
X127977809Y-75298095D01*
X127977809Y-75298095D02*
X128073047Y-75250476D01*
X128073047Y-75250476D02*
X128311142Y-75250476D01*
X128311142Y-75250476D02*
X128406380Y-75298095D01*
X128406380Y-75298095D02*
X128454000Y-75345714D01*
X128454000Y-75345714D02*
X128501619Y-75440952D01*
X128501619Y-75440952D02*
X128501619Y-75726666D01*
X128501619Y-75726666D02*
X128454000Y-75821904D01*
X128454000Y-75821904D02*
X128406380Y-75869523D01*
X127930190Y-74679047D02*
X127882571Y-74774285D01*
X127882571Y-74774285D02*
X127834952Y-74821904D01*
X127834952Y-74821904D02*
X127739714Y-74869523D01*
X127739714Y-74869523D02*
X127692095Y-74869523D01*
X127692095Y-74869523D02*
X127596857Y-74821904D01*
X127596857Y-74821904D02*
X127549238Y-74774285D01*
X127549238Y-74774285D02*
X127501619Y-74679047D01*
X127501619Y-74679047D02*
X127501619Y-74488571D01*
X127501619Y-74488571D02*
X127549238Y-74393333D01*
X127549238Y-74393333D02*
X127596857Y-74345714D01*
X127596857Y-74345714D02*
X127692095Y-74298095D01*
X127692095Y-74298095D02*
X127739714Y-74298095D01*
X127739714Y-74298095D02*
X127834952Y-74345714D01*
X127834952Y-74345714D02*
X127882571Y-74393333D01*
X127882571Y-74393333D02*
X127930190Y-74488571D01*
X127930190Y-74488571D02*
X127930190Y-74679047D01*
X127930190Y-74679047D02*
X127977809Y-74774285D01*
X127977809Y-74774285D02*
X128025428Y-74821904D01*
X128025428Y-74821904D02*
X128120666Y-74869523D01*
X128120666Y-74869523D02*
X128311142Y-74869523D01*
X128311142Y-74869523D02*
X128406380Y-74821904D01*
X128406380Y-74821904D02*
X128454000Y-74774285D01*
X128454000Y-74774285D02*
X128501619Y-74679047D01*
X128501619Y-74679047D02*
X128501619Y-74488571D01*
X128501619Y-74488571D02*
X128454000Y-74393333D01*
X128454000Y-74393333D02*
X128406380Y-74345714D01*
X128406380Y-74345714D02*
X128311142Y-74298095D01*
X128311142Y-74298095D02*
X128120666Y-74298095D01*
X128120666Y-74298095D02*
X128025428Y-74345714D01*
X128025428Y-74345714D02*
X127977809Y-74393333D01*
X127977809Y-74393333D02*
X127930190Y-74488571D01*
X128821619Y-79631904D02*
X127821619Y-79631904D01*
X128821619Y-79060476D02*
X128250190Y-79489047D01*
X127821619Y-79060476D02*
X128393047Y-79631904D01*
X260055714Y-71834819D02*
X260055714Y-70834819D01*
X260055714Y-70834819D02*
X260293809Y-70834819D01*
X260293809Y-70834819D02*
X260436666Y-70882438D01*
X260436666Y-70882438D02*
X260531904Y-70977676D01*
X260531904Y-70977676D02*
X260579523Y-71072914D01*
X260579523Y-71072914D02*
X260627142Y-71263390D01*
X260627142Y-71263390D02*
X260627142Y-71406247D01*
X260627142Y-71406247D02*
X260579523Y-71596723D01*
X260579523Y-71596723D02*
X260531904Y-71691961D01*
X260531904Y-71691961D02*
X260436666Y-71787200D01*
X260436666Y-71787200D02*
X260293809Y-71834819D01*
X260293809Y-71834819D02*
X260055714Y-71834819D01*
X260960476Y-70834819D02*
X261579523Y-70834819D01*
X261579523Y-70834819D02*
X261246190Y-71215771D01*
X261246190Y-71215771D02*
X261389047Y-71215771D01*
X261389047Y-71215771D02*
X261484285Y-71263390D01*
X261484285Y-71263390D02*
X261531904Y-71311009D01*
X261531904Y-71311009D02*
X261579523Y-71406247D01*
X261579523Y-71406247D02*
X261579523Y-71644342D01*
X261579523Y-71644342D02*
X261531904Y-71739580D01*
X261531904Y-71739580D02*
X261484285Y-71787200D01*
X261484285Y-71787200D02*
X261389047Y-71834819D01*
X261389047Y-71834819D02*
X261103333Y-71834819D01*
X261103333Y-71834819D02*
X261008095Y-71787200D01*
X261008095Y-71787200D02*
X260960476Y-71739580D01*
X262198571Y-70834819D02*
X262293809Y-70834819D01*
X262293809Y-70834819D02*
X262389047Y-70882438D01*
X262389047Y-70882438D02*
X262436666Y-70930057D01*
X262436666Y-70930057D02*
X262484285Y-71025295D01*
X262484285Y-71025295D02*
X262531904Y-71215771D01*
X262531904Y-71215771D02*
X262531904Y-71453866D01*
X262531904Y-71453866D02*
X262484285Y-71644342D01*
X262484285Y-71644342D02*
X262436666Y-71739580D01*
X262436666Y-71739580D02*
X262389047Y-71787200D01*
X262389047Y-71787200D02*
X262293809Y-71834819D01*
X262293809Y-71834819D02*
X262198571Y-71834819D01*
X262198571Y-71834819D02*
X262103333Y-71787200D01*
X262103333Y-71787200D02*
X262055714Y-71739580D01*
X262055714Y-71739580D02*
X262008095Y-71644342D01*
X262008095Y-71644342D02*
X261960476Y-71453866D01*
X261960476Y-71453866D02*
X261960476Y-71215771D01*
X261960476Y-71215771D02*
X262008095Y-71025295D01*
X262008095Y-71025295D02*
X262055714Y-70930057D01*
X262055714Y-70930057D02*
X262103333Y-70882438D01*
X262103333Y-70882438D02*
X262198571Y-70834819D01*
X257198095Y-72154819D02*
X257198095Y-71154819D01*
X257769523Y-72154819D02*
X257340952Y-71583390D01*
X257769523Y-71154819D02*
X257198095Y-71726247D01*
X209459019Y-38676685D02*
X208459019Y-38676685D01*
X208459019Y-38676685D02*
X208459019Y-38438590D01*
X208459019Y-38438590D02*
X208506638Y-38295733D01*
X208506638Y-38295733D02*
X208601876Y-38200495D01*
X208601876Y-38200495D02*
X208697114Y-38152876D01*
X208697114Y-38152876D02*
X208887590Y-38105257D01*
X208887590Y-38105257D02*
X209030447Y-38105257D01*
X209030447Y-38105257D02*
X209220923Y-38152876D01*
X209220923Y-38152876D02*
X209316161Y-38200495D01*
X209316161Y-38200495D02*
X209411400Y-38295733D01*
X209411400Y-38295733D02*
X209459019Y-38438590D01*
X209459019Y-38438590D02*
X209459019Y-38676685D01*
X208459019Y-37248114D02*
X208459019Y-37438590D01*
X208459019Y-37438590D02*
X208506638Y-37533828D01*
X208506638Y-37533828D02*
X208554257Y-37581447D01*
X208554257Y-37581447D02*
X208697114Y-37676685D01*
X208697114Y-37676685D02*
X208887590Y-37724304D01*
X208887590Y-37724304D02*
X209268542Y-37724304D01*
X209268542Y-37724304D02*
X209363780Y-37676685D01*
X209363780Y-37676685D02*
X209411400Y-37629066D01*
X209411400Y-37629066D02*
X209459019Y-37533828D01*
X209459019Y-37533828D02*
X209459019Y-37343352D01*
X209459019Y-37343352D02*
X209411400Y-37248114D01*
X209411400Y-37248114D02*
X209363780Y-37200495D01*
X209363780Y-37200495D02*
X209268542Y-37152876D01*
X209268542Y-37152876D02*
X209030447Y-37152876D01*
X209030447Y-37152876D02*
X208935209Y-37200495D01*
X208935209Y-37200495D02*
X208887590Y-37248114D01*
X208887590Y-37248114D02*
X208839971Y-37343352D01*
X208839971Y-37343352D02*
X208839971Y-37533828D01*
X208839971Y-37533828D02*
X208887590Y-37629066D01*
X208887590Y-37629066D02*
X208935209Y-37676685D01*
X208935209Y-37676685D02*
X209030447Y-37724304D01*
X208554257Y-36771923D02*
X208506638Y-36724304D01*
X208506638Y-36724304D02*
X208459019Y-36629066D01*
X208459019Y-36629066D02*
X208459019Y-36390971D01*
X208459019Y-36390971D02*
X208506638Y-36295733D01*
X208506638Y-36295733D02*
X208554257Y-36248114D01*
X208554257Y-36248114D02*
X208649495Y-36200495D01*
X208649495Y-36200495D02*
X208744733Y-36200495D01*
X208744733Y-36200495D02*
X208887590Y-36248114D01*
X208887590Y-36248114D02*
X209459019Y-36819542D01*
X209459019Y-36819542D02*
X209459019Y-36200495D01*
X209779019Y-41534304D02*
X208779019Y-41534304D01*
X209779019Y-40962876D02*
X209207590Y-41391447D01*
X208779019Y-40962876D02*
X209350447Y-41534304D01*
X218983419Y-57725485D02*
X217983419Y-57725485D01*
X217983419Y-57725485D02*
X217983419Y-57487390D01*
X217983419Y-57487390D02*
X218031038Y-57344533D01*
X218031038Y-57344533D02*
X218126276Y-57249295D01*
X218126276Y-57249295D02*
X218221514Y-57201676D01*
X218221514Y-57201676D02*
X218411990Y-57154057D01*
X218411990Y-57154057D02*
X218554847Y-57154057D01*
X218554847Y-57154057D02*
X218745323Y-57201676D01*
X218745323Y-57201676D02*
X218840561Y-57249295D01*
X218840561Y-57249295D02*
X218935800Y-57344533D01*
X218935800Y-57344533D02*
X218983419Y-57487390D01*
X218983419Y-57487390D02*
X218983419Y-57725485D01*
X218078657Y-56773104D02*
X218031038Y-56725485D01*
X218031038Y-56725485D02*
X217983419Y-56630247D01*
X217983419Y-56630247D02*
X217983419Y-56392152D01*
X217983419Y-56392152D02*
X218031038Y-56296914D01*
X218031038Y-56296914D02*
X218078657Y-56249295D01*
X218078657Y-56249295D02*
X218173895Y-56201676D01*
X218173895Y-56201676D02*
X218269133Y-56201676D01*
X218269133Y-56201676D02*
X218411990Y-56249295D01*
X218411990Y-56249295D02*
X218983419Y-56820723D01*
X218983419Y-56820723D02*
X218983419Y-56201676D01*
X217983419Y-55868342D02*
X217983419Y-55201676D01*
X217983419Y-55201676D02*
X218983419Y-55630247D01*
X219303419Y-60583104D02*
X218303419Y-60583104D01*
X219303419Y-60011676D02*
X218731990Y-60440247D01*
X218303419Y-60011676D02*
X218874847Y-60583104D01*
X90404019Y-76774285D02*
X89404019Y-76774285D01*
X89404019Y-76774285D02*
X89404019Y-76536190D01*
X89404019Y-76536190D02*
X89451638Y-76393333D01*
X89451638Y-76393333D02*
X89546876Y-76298095D01*
X89546876Y-76298095D02*
X89642114Y-76250476D01*
X89642114Y-76250476D02*
X89832590Y-76202857D01*
X89832590Y-76202857D02*
X89975447Y-76202857D01*
X89975447Y-76202857D02*
X90165923Y-76250476D01*
X90165923Y-76250476D02*
X90261161Y-76298095D01*
X90261161Y-76298095D02*
X90356400Y-76393333D01*
X90356400Y-76393333D02*
X90404019Y-76536190D01*
X90404019Y-76536190D02*
X90404019Y-76774285D01*
X89404019Y-75869523D02*
X89404019Y-75250476D01*
X89404019Y-75250476D02*
X89784971Y-75583809D01*
X89784971Y-75583809D02*
X89784971Y-75440952D01*
X89784971Y-75440952D02*
X89832590Y-75345714D01*
X89832590Y-75345714D02*
X89880209Y-75298095D01*
X89880209Y-75298095D02*
X89975447Y-75250476D01*
X89975447Y-75250476D02*
X90213542Y-75250476D01*
X90213542Y-75250476D02*
X90308780Y-75298095D01*
X90308780Y-75298095D02*
X90356400Y-75345714D01*
X90356400Y-75345714D02*
X90404019Y-75440952D01*
X90404019Y-75440952D02*
X90404019Y-75726666D01*
X90404019Y-75726666D02*
X90356400Y-75821904D01*
X90356400Y-75821904D02*
X90308780Y-75869523D01*
X89404019Y-74393333D02*
X89404019Y-74583809D01*
X89404019Y-74583809D02*
X89451638Y-74679047D01*
X89451638Y-74679047D02*
X89499257Y-74726666D01*
X89499257Y-74726666D02*
X89642114Y-74821904D01*
X89642114Y-74821904D02*
X89832590Y-74869523D01*
X89832590Y-74869523D02*
X90213542Y-74869523D01*
X90213542Y-74869523D02*
X90308780Y-74821904D01*
X90308780Y-74821904D02*
X90356400Y-74774285D01*
X90356400Y-74774285D02*
X90404019Y-74679047D01*
X90404019Y-74679047D02*
X90404019Y-74488571D01*
X90404019Y-74488571D02*
X90356400Y-74393333D01*
X90356400Y-74393333D02*
X90308780Y-74345714D01*
X90308780Y-74345714D02*
X90213542Y-74298095D01*
X90213542Y-74298095D02*
X89975447Y-74298095D01*
X89975447Y-74298095D02*
X89880209Y-74345714D01*
X89880209Y-74345714D02*
X89832590Y-74393333D01*
X89832590Y-74393333D02*
X89784971Y-74488571D01*
X89784971Y-74488571D02*
X89784971Y-74679047D01*
X89784971Y-74679047D02*
X89832590Y-74774285D01*
X89832590Y-74774285D02*
X89880209Y-74821904D01*
X89880209Y-74821904D02*
X89975447Y-74869523D01*
X90724019Y-79631904D02*
X89724019Y-79631904D01*
X90724019Y-79060476D02*
X90152590Y-79489047D01*
X89724019Y-79060476D02*
X90295447Y-79631904D01*
X114215019Y-37406794D02*
X113215019Y-37406794D01*
X113215019Y-37406794D02*
X113215019Y-37168699D01*
X113215019Y-37168699D02*
X113262638Y-37025842D01*
X113262638Y-37025842D02*
X113357876Y-36930604D01*
X113357876Y-36930604D02*
X113453114Y-36882985D01*
X113453114Y-36882985D02*
X113643590Y-36835366D01*
X113643590Y-36835366D02*
X113786447Y-36835366D01*
X113786447Y-36835366D02*
X113976923Y-36882985D01*
X113976923Y-36882985D02*
X114072161Y-36930604D01*
X114072161Y-36930604D02*
X114167400Y-37025842D01*
X114167400Y-37025842D02*
X114215019Y-37168699D01*
X114215019Y-37168699D02*
X114215019Y-37406794D01*
X113643590Y-36263937D02*
X113595971Y-36359175D01*
X113595971Y-36359175D02*
X113548352Y-36406794D01*
X113548352Y-36406794D02*
X113453114Y-36454413D01*
X113453114Y-36454413D02*
X113405495Y-36454413D01*
X113405495Y-36454413D02*
X113310257Y-36406794D01*
X113310257Y-36406794D02*
X113262638Y-36359175D01*
X113262638Y-36359175D02*
X113215019Y-36263937D01*
X113215019Y-36263937D02*
X113215019Y-36073461D01*
X113215019Y-36073461D02*
X113262638Y-35978223D01*
X113262638Y-35978223D02*
X113310257Y-35930604D01*
X113310257Y-35930604D02*
X113405495Y-35882985D01*
X113405495Y-35882985D02*
X113453114Y-35882985D01*
X113453114Y-35882985D02*
X113548352Y-35930604D01*
X113548352Y-35930604D02*
X113595971Y-35978223D01*
X113595971Y-35978223D02*
X113643590Y-36073461D01*
X113643590Y-36073461D02*
X113643590Y-36263937D01*
X113643590Y-36263937D02*
X113691209Y-36359175D01*
X113691209Y-36359175D02*
X113738828Y-36406794D01*
X113738828Y-36406794D02*
X113834066Y-36454413D01*
X113834066Y-36454413D02*
X114024542Y-36454413D01*
X114024542Y-36454413D02*
X114119780Y-36406794D01*
X114119780Y-36406794D02*
X114167400Y-36359175D01*
X114167400Y-36359175D02*
X114215019Y-36263937D01*
X114215019Y-36263937D02*
X114215019Y-36073461D01*
X114215019Y-36073461D02*
X114167400Y-35978223D01*
X114167400Y-35978223D02*
X114119780Y-35930604D01*
X114119780Y-35930604D02*
X114024542Y-35882985D01*
X114024542Y-35882985D02*
X113834066Y-35882985D01*
X113834066Y-35882985D02*
X113738828Y-35930604D01*
X113738828Y-35930604D02*
X113691209Y-35978223D01*
X113691209Y-35978223D02*
X113643590Y-36073461D01*
X114535019Y-40740604D02*
X113535019Y-40740604D01*
X114535019Y-40169176D02*
X113963590Y-40597747D01*
X113535019Y-40169176D02*
X114106447Y-40740604D01*
X173742519Y-114078185D02*
X172742519Y-114078185D01*
X172742519Y-114078185D02*
X172742519Y-113840090D01*
X172742519Y-113840090D02*
X172790138Y-113697233D01*
X172790138Y-113697233D02*
X172885376Y-113601995D01*
X172885376Y-113601995D02*
X172980614Y-113554376D01*
X172980614Y-113554376D02*
X173171090Y-113506757D01*
X173171090Y-113506757D02*
X173313947Y-113506757D01*
X173313947Y-113506757D02*
X173504423Y-113554376D01*
X173504423Y-113554376D02*
X173599661Y-113601995D01*
X173599661Y-113601995D02*
X173694900Y-113697233D01*
X173694900Y-113697233D02*
X173742519Y-113840090D01*
X173742519Y-113840090D02*
X173742519Y-114078185D01*
X172742519Y-112649614D02*
X172742519Y-112840090D01*
X172742519Y-112840090D02*
X172790138Y-112935328D01*
X172790138Y-112935328D02*
X172837757Y-112982947D01*
X172837757Y-112982947D02*
X172980614Y-113078185D01*
X172980614Y-113078185D02*
X173171090Y-113125804D01*
X173171090Y-113125804D02*
X173552042Y-113125804D01*
X173552042Y-113125804D02*
X173647280Y-113078185D01*
X173647280Y-113078185D02*
X173694900Y-113030566D01*
X173694900Y-113030566D02*
X173742519Y-112935328D01*
X173742519Y-112935328D02*
X173742519Y-112744852D01*
X173742519Y-112744852D02*
X173694900Y-112649614D01*
X173694900Y-112649614D02*
X173647280Y-112601995D01*
X173647280Y-112601995D02*
X173552042Y-112554376D01*
X173552042Y-112554376D02*
X173313947Y-112554376D01*
X173313947Y-112554376D02*
X173218709Y-112601995D01*
X173218709Y-112601995D02*
X173171090Y-112649614D01*
X173171090Y-112649614D02*
X173123471Y-112744852D01*
X173123471Y-112744852D02*
X173123471Y-112935328D01*
X173123471Y-112935328D02*
X173171090Y-113030566D01*
X173171090Y-113030566D02*
X173218709Y-113078185D01*
X173218709Y-113078185D02*
X173313947Y-113125804D01*
X173075852Y-111697233D02*
X173742519Y-111697233D01*
X172694900Y-111935328D02*
X173409185Y-112173423D01*
X173409185Y-112173423D02*
X173409185Y-111554376D01*
X174062519Y-116935804D02*
X173062519Y-116935804D01*
X174062519Y-116364376D02*
X173491090Y-116792947D01*
X173062519Y-116364376D02*
X173633947Y-116935804D01*
X57068619Y-37882985D02*
X56068619Y-37882985D01*
X56068619Y-37882985D02*
X56068619Y-37644890D01*
X56068619Y-37644890D02*
X56116238Y-37502033D01*
X56116238Y-37502033D02*
X56211476Y-37406795D01*
X56211476Y-37406795D02*
X56306714Y-37359176D01*
X56306714Y-37359176D02*
X56497190Y-37311557D01*
X56497190Y-37311557D02*
X56640047Y-37311557D01*
X56640047Y-37311557D02*
X56830523Y-37359176D01*
X56830523Y-37359176D02*
X56925761Y-37406795D01*
X56925761Y-37406795D02*
X57021000Y-37502033D01*
X57021000Y-37502033D02*
X57068619Y-37644890D01*
X57068619Y-37644890D02*
X57068619Y-37882985D01*
X56068619Y-36454414D02*
X56068619Y-36644890D01*
X56068619Y-36644890D02*
X56116238Y-36740128D01*
X56116238Y-36740128D02*
X56163857Y-36787747D01*
X56163857Y-36787747D02*
X56306714Y-36882985D01*
X56306714Y-36882985D02*
X56497190Y-36930604D01*
X56497190Y-36930604D02*
X56878142Y-36930604D01*
X56878142Y-36930604D02*
X56973380Y-36882985D01*
X56973380Y-36882985D02*
X57021000Y-36835366D01*
X57021000Y-36835366D02*
X57068619Y-36740128D01*
X57068619Y-36740128D02*
X57068619Y-36549652D01*
X57068619Y-36549652D02*
X57021000Y-36454414D01*
X57021000Y-36454414D02*
X56973380Y-36406795D01*
X56973380Y-36406795D02*
X56878142Y-36359176D01*
X56878142Y-36359176D02*
X56640047Y-36359176D01*
X56640047Y-36359176D02*
X56544809Y-36406795D01*
X56544809Y-36406795D02*
X56497190Y-36454414D01*
X56497190Y-36454414D02*
X56449571Y-36549652D01*
X56449571Y-36549652D02*
X56449571Y-36740128D01*
X56449571Y-36740128D02*
X56497190Y-36835366D01*
X56497190Y-36835366D02*
X56544809Y-36882985D01*
X56544809Y-36882985D02*
X56640047Y-36930604D01*
X56068619Y-35740128D02*
X56068619Y-35644890D01*
X56068619Y-35644890D02*
X56116238Y-35549652D01*
X56116238Y-35549652D02*
X56163857Y-35502033D01*
X56163857Y-35502033D02*
X56259095Y-35454414D01*
X56259095Y-35454414D02*
X56449571Y-35406795D01*
X56449571Y-35406795D02*
X56687666Y-35406795D01*
X56687666Y-35406795D02*
X56878142Y-35454414D01*
X56878142Y-35454414D02*
X56973380Y-35502033D01*
X56973380Y-35502033D02*
X57021000Y-35549652D01*
X57021000Y-35549652D02*
X57068619Y-35644890D01*
X57068619Y-35644890D02*
X57068619Y-35740128D01*
X57068619Y-35740128D02*
X57021000Y-35835366D01*
X57021000Y-35835366D02*
X56973380Y-35882985D01*
X56973380Y-35882985D02*
X56878142Y-35930604D01*
X56878142Y-35930604D02*
X56687666Y-35978223D01*
X56687666Y-35978223D02*
X56449571Y-35978223D01*
X56449571Y-35978223D02*
X56259095Y-35930604D01*
X56259095Y-35930604D02*
X56163857Y-35882985D01*
X56163857Y-35882985D02*
X56116238Y-35835366D01*
X56116238Y-35835366D02*
X56068619Y-35740128D01*
X57388619Y-40740604D02*
X56388619Y-40740604D01*
X57388619Y-40169176D02*
X56817190Y-40597747D01*
X56388619Y-40169176D02*
X56960047Y-40740604D01*
X71355219Y-76774285D02*
X70355219Y-76774285D01*
X70355219Y-76774285D02*
X70355219Y-76536190D01*
X70355219Y-76536190D02*
X70402838Y-76393333D01*
X70402838Y-76393333D02*
X70498076Y-76298095D01*
X70498076Y-76298095D02*
X70593314Y-76250476D01*
X70593314Y-76250476D02*
X70783790Y-76202857D01*
X70783790Y-76202857D02*
X70926647Y-76202857D01*
X70926647Y-76202857D02*
X71117123Y-76250476D01*
X71117123Y-76250476D02*
X71212361Y-76298095D01*
X71212361Y-76298095D02*
X71307600Y-76393333D01*
X71307600Y-76393333D02*
X71355219Y-76536190D01*
X71355219Y-76536190D02*
X71355219Y-76774285D01*
X70355219Y-75869523D02*
X70355219Y-75250476D01*
X70355219Y-75250476D02*
X70736171Y-75583809D01*
X70736171Y-75583809D02*
X70736171Y-75440952D01*
X70736171Y-75440952D02*
X70783790Y-75345714D01*
X70783790Y-75345714D02*
X70831409Y-75298095D01*
X70831409Y-75298095D02*
X70926647Y-75250476D01*
X70926647Y-75250476D02*
X71164742Y-75250476D01*
X71164742Y-75250476D02*
X71259980Y-75298095D01*
X71259980Y-75298095D02*
X71307600Y-75345714D01*
X71307600Y-75345714D02*
X71355219Y-75440952D01*
X71355219Y-75440952D02*
X71355219Y-75726666D01*
X71355219Y-75726666D02*
X71307600Y-75821904D01*
X71307600Y-75821904D02*
X71259980Y-75869523D01*
X70355219Y-74345714D02*
X70355219Y-74821904D01*
X70355219Y-74821904D02*
X70831409Y-74869523D01*
X70831409Y-74869523D02*
X70783790Y-74821904D01*
X70783790Y-74821904D02*
X70736171Y-74726666D01*
X70736171Y-74726666D02*
X70736171Y-74488571D01*
X70736171Y-74488571D02*
X70783790Y-74393333D01*
X70783790Y-74393333D02*
X70831409Y-74345714D01*
X70831409Y-74345714D02*
X70926647Y-74298095D01*
X70926647Y-74298095D02*
X71164742Y-74298095D01*
X71164742Y-74298095D02*
X71259980Y-74345714D01*
X71259980Y-74345714D02*
X71307600Y-74393333D01*
X71307600Y-74393333D02*
X71355219Y-74488571D01*
X71355219Y-74488571D02*
X71355219Y-74726666D01*
X71355219Y-74726666D02*
X71307600Y-74821904D01*
X71307600Y-74821904D02*
X71259980Y-74869523D01*
X71675219Y-79631904D02*
X70675219Y-79631904D01*
X71675219Y-79060476D02*
X71103790Y-79489047D01*
X70675219Y-79060476D02*
X71246647Y-79631904D01*
X157074819Y-95823085D02*
X156074819Y-95823085D01*
X156074819Y-95823085D02*
X156074819Y-95584990D01*
X156074819Y-95584990D02*
X156122438Y-95442133D01*
X156122438Y-95442133D02*
X156217676Y-95346895D01*
X156217676Y-95346895D02*
X156312914Y-95299276D01*
X156312914Y-95299276D02*
X156503390Y-95251657D01*
X156503390Y-95251657D02*
X156646247Y-95251657D01*
X156646247Y-95251657D02*
X156836723Y-95299276D01*
X156836723Y-95299276D02*
X156931961Y-95346895D01*
X156931961Y-95346895D02*
X157027200Y-95442133D01*
X157027200Y-95442133D02*
X157074819Y-95584990D01*
X157074819Y-95584990D02*
X157074819Y-95823085D01*
X156074819Y-94346895D02*
X156074819Y-94823085D01*
X156074819Y-94823085D02*
X156551009Y-94870704D01*
X156551009Y-94870704D02*
X156503390Y-94823085D01*
X156503390Y-94823085D02*
X156455771Y-94727847D01*
X156455771Y-94727847D02*
X156455771Y-94489752D01*
X156455771Y-94489752D02*
X156503390Y-94394514D01*
X156503390Y-94394514D02*
X156551009Y-94346895D01*
X156551009Y-94346895D02*
X156646247Y-94299276D01*
X156646247Y-94299276D02*
X156884342Y-94299276D01*
X156884342Y-94299276D02*
X156979580Y-94346895D01*
X156979580Y-94346895D02*
X157027200Y-94394514D01*
X157027200Y-94394514D02*
X157074819Y-94489752D01*
X157074819Y-94489752D02*
X157074819Y-94727847D01*
X157074819Y-94727847D02*
X157027200Y-94823085D01*
X157027200Y-94823085D02*
X156979580Y-94870704D01*
X156170057Y-93918323D02*
X156122438Y-93870704D01*
X156122438Y-93870704D02*
X156074819Y-93775466D01*
X156074819Y-93775466D02*
X156074819Y-93537371D01*
X156074819Y-93537371D02*
X156122438Y-93442133D01*
X156122438Y-93442133D02*
X156170057Y-93394514D01*
X156170057Y-93394514D02*
X156265295Y-93346895D01*
X156265295Y-93346895D02*
X156360533Y-93346895D01*
X156360533Y-93346895D02*
X156503390Y-93394514D01*
X156503390Y-93394514D02*
X157074819Y-93965942D01*
X157074819Y-93965942D02*
X157074819Y-93346895D01*
X157394819Y-98680704D02*
X156394819Y-98680704D01*
X157394819Y-98109276D02*
X156823390Y-98537847D01*
X156394819Y-98109276D02*
X156966247Y-98680704D01*
X133263819Y-37248294D02*
X132263819Y-37248294D01*
X132263819Y-37248294D02*
X132263819Y-37010199D01*
X132263819Y-37010199D02*
X132311438Y-36867342D01*
X132311438Y-36867342D02*
X132406676Y-36772104D01*
X132406676Y-36772104D02*
X132501914Y-36724485D01*
X132501914Y-36724485D02*
X132692390Y-36676866D01*
X132692390Y-36676866D02*
X132835247Y-36676866D01*
X132835247Y-36676866D02*
X133025723Y-36724485D01*
X133025723Y-36724485D02*
X133120961Y-36772104D01*
X133120961Y-36772104D02*
X133216200Y-36867342D01*
X133216200Y-36867342D02*
X133263819Y-37010199D01*
X133263819Y-37010199D02*
X133263819Y-37248294D01*
X133263819Y-36200675D02*
X133263819Y-36010199D01*
X133263819Y-36010199D02*
X133216200Y-35914961D01*
X133216200Y-35914961D02*
X133168580Y-35867342D01*
X133168580Y-35867342D02*
X133025723Y-35772104D01*
X133025723Y-35772104D02*
X132835247Y-35724485D01*
X132835247Y-35724485D02*
X132454295Y-35724485D01*
X132454295Y-35724485D02*
X132359057Y-35772104D01*
X132359057Y-35772104D02*
X132311438Y-35819723D01*
X132311438Y-35819723D02*
X132263819Y-35914961D01*
X132263819Y-35914961D02*
X132263819Y-36105437D01*
X132263819Y-36105437D02*
X132311438Y-36200675D01*
X132311438Y-36200675D02*
X132359057Y-36248294D01*
X132359057Y-36248294D02*
X132454295Y-36295913D01*
X132454295Y-36295913D02*
X132692390Y-36295913D01*
X132692390Y-36295913D02*
X132787628Y-36248294D01*
X132787628Y-36248294D02*
X132835247Y-36200675D01*
X132835247Y-36200675D02*
X132882866Y-36105437D01*
X132882866Y-36105437D02*
X132882866Y-35914961D01*
X132882866Y-35914961D02*
X132835247Y-35819723D01*
X132835247Y-35819723D02*
X132787628Y-35772104D01*
X132787628Y-35772104D02*
X132692390Y-35724485D01*
X133583819Y-40582104D02*
X132583819Y-40582104D01*
X133583819Y-40010676D02*
X133012390Y-40439247D01*
X132583819Y-40010676D02*
X133155247Y-40582104D01*
X118977219Y-95823085D02*
X117977219Y-95823085D01*
X117977219Y-95823085D02*
X117977219Y-95584990D01*
X117977219Y-95584990D02*
X118024838Y-95442133D01*
X118024838Y-95442133D02*
X118120076Y-95346895D01*
X118120076Y-95346895D02*
X118215314Y-95299276D01*
X118215314Y-95299276D02*
X118405790Y-95251657D01*
X118405790Y-95251657D02*
X118548647Y-95251657D01*
X118548647Y-95251657D02*
X118739123Y-95299276D01*
X118739123Y-95299276D02*
X118834361Y-95346895D01*
X118834361Y-95346895D02*
X118929600Y-95442133D01*
X118929600Y-95442133D02*
X118977219Y-95584990D01*
X118977219Y-95584990D02*
X118977219Y-95823085D01*
X117977219Y-94346895D02*
X117977219Y-94823085D01*
X117977219Y-94823085D02*
X118453409Y-94870704D01*
X118453409Y-94870704D02*
X118405790Y-94823085D01*
X118405790Y-94823085D02*
X118358171Y-94727847D01*
X118358171Y-94727847D02*
X118358171Y-94489752D01*
X118358171Y-94489752D02*
X118405790Y-94394514D01*
X118405790Y-94394514D02*
X118453409Y-94346895D01*
X118453409Y-94346895D02*
X118548647Y-94299276D01*
X118548647Y-94299276D02*
X118786742Y-94299276D01*
X118786742Y-94299276D02*
X118881980Y-94346895D01*
X118881980Y-94346895D02*
X118929600Y-94394514D01*
X118929600Y-94394514D02*
X118977219Y-94489752D01*
X118977219Y-94489752D02*
X118977219Y-94727847D01*
X118977219Y-94727847D02*
X118929600Y-94823085D01*
X118929600Y-94823085D02*
X118881980Y-94870704D01*
X117977219Y-93680228D02*
X117977219Y-93584990D01*
X117977219Y-93584990D02*
X118024838Y-93489752D01*
X118024838Y-93489752D02*
X118072457Y-93442133D01*
X118072457Y-93442133D02*
X118167695Y-93394514D01*
X118167695Y-93394514D02*
X118358171Y-93346895D01*
X118358171Y-93346895D02*
X118596266Y-93346895D01*
X118596266Y-93346895D02*
X118786742Y-93394514D01*
X118786742Y-93394514D02*
X118881980Y-93442133D01*
X118881980Y-93442133D02*
X118929600Y-93489752D01*
X118929600Y-93489752D02*
X118977219Y-93584990D01*
X118977219Y-93584990D02*
X118977219Y-93680228D01*
X118977219Y-93680228D02*
X118929600Y-93775466D01*
X118929600Y-93775466D02*
X118881980Y-93823085D01*
X118881980Y-93823085D02*
X118786742Y-93870704D01*
X118786742Y-93870704D02*
X118596266Y-93918323D01*
X118596266Y-93918323D02*
X118358171Y-93918323D01*
X118358171Y-93918323D02*
X118167695Y-93870704D01*
X118167695Y-93870704D02*
X118072457Y-93823085D01*
X118072457Y-93823085D02*
X118024838Y-93775466D01*
X118024838Y-93775466D02*
X117977219Y-93680228D01*
X119297219Y-98680704D02*
X118297219Y-98680704D01*
X119297219Y-98109276D02*
X118725790Y-98537847D01*
X118297219Y-98109276D02*
X118868647Y-98680704D01*
X33257619Y-76615785D02*
X32257619Y-76615785D01*
X32257619Y-76615785D02*
X32257619Y-76377690D01*
X32257619Y-76377690D02*
X32305238Y-76234833D01*
X32305238Y-76234833D02*
X32400476Y-76139595D01*
X32400476Y-76139595D02*
X32495714Y-76091976D01*
X32495714Y-76091976D02*
X32686190Y-76044357D01*
X32686190Y-76044357D02*
X32829047Y-76044357D01*
X32829047Y-76044357D02*
X33019523Y-76091976D01*
X33019523Y-76091976D02*
X33114761Y-76139595D01*
X33114761Y-76139595D02*
X33210000Y-76234833D01*
X33210000Y-76234833D02*
X33257619Y-76377690D01*
X33257619Y-76377690D02*
X33257619Y-76615785D01*
X32257619Y-75711023D02*
X32257619Y-75091976D01*
X32257619Y-75091976D02*
X32638571Y-75425309D01*
X32638571Y-75425309D02*
X32638571Y-75282452D01*
X32638571Y-75282452D02*
X32686190Y-75187214D01*
X32686190Y-75187214D02*
X32733809Y-75139595D01*
X32733809Y-75139595D02*
X32829047Y-75091976D01*
X32829047Y-75091976D02*
X33067142Y-75091976D01*
X33067142Y-75091976D02*
X33162380Y-75139595D01*
X33162380Y-75139595D02*
X33210000Y-75187214D01*
X33210000Y-75187214D02*
X33257619Y-75282452D01*
X33257619Y-75282452D02*
X33257619Y-75568166D01*
X33257619Y-75568166D02*
X33210000Y-75663404D01*
X33210000Y-75663404D02*
X33162380Y-75711023D01*
X32257619Y-74758642D02*
X32257619Y-74139595D01*
X32257619Y-74139595D02*
X32638571Y-74472928D01*
X32638571Y-74472928D02*
X32638571Y-74330071D01*
X32638571Y-74330071D02*
X32686190Y-74234833D01*
X32686190Y-74234833D02*
X32733809Y-74187214D01*
X32733809Y-74187214D02*
X32829047Y-74139595D01*
X32829047Y-74139595D02*
X33067142Y-74139595D01*
X33067142Y-74139595D02*
X33162380Y-74187214D01*
X33162380Y-74187214D02*
X33210000Y-74234833D01*
X33210000Y-74234833D02*
X33257619Y-74330071D01*
X33257619Y-74330071D02*
X33257619Y-74615785D01*
X33257619Y-74615785D02*
X33210000Y-74711023D01*
X33210000Y-74711023D02*
X33162380Y-74758642D01*
X33577619Y-79473404D02*
X32577619Y-79473404D01*
X33577619Y-78901976D02*
X33006190Y-79330547D01*
X32577619Y-78901976D02*
X33149047Y-79473404D01*
X-19126580Y-37406794D02*
X-20126580Y-37406794D01*
X-20126580Y-37406794D02*
X-20126580Y-37168699D01*
X-20126580Y-37168699D02*
X-20078961Y-37025842D01*
X-20078961Y-37025842D02*
X-19983723Y-36930604D01*
X-19983723Y-36930604D02*
X-19888485Y-36882985D01*
X-19888485Y-36882985D02*
X-19698009Y-36835366D01*
X-19698009Y-36835366D02*
X-19555152Y-36835366D01*
X-19555152Y-36835366D02*
X-19364676Y-36882985D01*
X-19364676Y-36882985D02*
X-19269438Y-36930604D01*
X-19269438Y-36930604D02*
X-19174200Y-37025842D01*
X-19174200Y-37025842D02*
X-19126580Y-37168699D01*
X-19126580Y-37168699D02*
X-19126580Y-37406794D01*
X-19126580Y-35882985D02*
X-19126580Y-36454413D01*
X-19126580Y-36168699D02*
X-20126580Y-36168699D01*
X-20126580Y-36168699D02*
X-19983723Y-36263937D01*
X-19983723Y-36263937D02*
X-19888485Y-36359175D01*
X-19888485Y-36359175D02*
X-19840866Y-36454413D01*
X-18806580Y-40740604D02*
X-19806580Y-40740604D01*
X-18806580Y-40169176D02*
X-19378009Y-40597747D01*
X-19806580Y-40169176D02*
X-19235152Y-40740604D01*
X217396019Y-95029385D02*
X216396019Y-95029385D01*
X216396019Y-95029385D02*
X216396019Y-94791290D01*
X216396019Y-94791290D02*
X216443638Y-94648433D01*
X216443638Y-94648433D02*
X216538876Y-94553195D01*
X216538876Y-94553195D02*
X216634114Y-94505576D01*
X216634114Y-94505576D02*
X216824590Y-94457957D01*
X216824590Y-94457957D02*
X216967447Y-94457957D01*
X216967447Y-94457957D02*
X217157923Y-94505576D01*
X217157923Y-94505576D02*
X217253161Y-94553195D01*
X217253161Y-94553195D02*
X217348400Y-94648433D01*
X217348400Y-94648433D02*
X217396019Y-94791290D01*
X217396019Y-94791290D02*
X217396019Y-95029385D01*
X216396019Y-93553195D02*
X216396019Y-94029385D01*
X216396019Y-94029385D02*
X216872209Y-94077004D01*
X216872209Y-94077004D02*
X216824590Y-94029385D01*
X216824590Y-94029385D02*
X216776971Y-93934147D01*
X216776971Y-93934147D02*
X216776971Y-93696052D01*
X216776971Y-93696052D02*
X216824590Y-93600814D01*
X216824590Y-93600814D02*
X216872209Y-93553195D01*
X216872209Y-93553195D02*
X216967447Y-93505576D01*
X216967447Y-93505576D02*
X217205542Y-93505576D01*
X217205542Y-93505576D02*
X217300780Y-93553195D01*
X217300780Y-93553195D02*
X217348400Y-93600814D01*
X217348400Y-93600814D02*
X217396019Y-93696052D01*
X217396019Y-93696052D02*
X217396019Y-93934147D01*
X217396019Y-93934147D02*
X217348400Y-94029385D01*
X217348400Y-94029385D02*
X217300780Y-94077004D01*
X216396019Y-92600814D02*
X216396019Y-93077004D01*
X216396019Y-93077004D02*
X216872209Y-93124623D01*
X216872209Y-93124623D02*
X216824590Y-93077004D01*
X216824590Y-93077004D02*
X216776971Y-92981766D01*
X216776971Y-92981766D02*
X216776971Y-92743671D01*
X216776971Y-92743671D02*
X216824590Y-92648433D01*
X216824590Y-92648433D02*
X216872209Y-92600814D01*
X216872209Y-92600814D02*
X216967447Y-92553195D01*
X216967447Y-92553195D02*
X217205542Y-92553195D01*
X217205542Y-92553195D02*
X217300780Y-92600814D01*
X217300780Y-92600814D02*
X217348400Y-92648433D01*
X217348400Y-92648433D02*
X217396019Y-92743671D01*
X217396019Y-92743671D02*
X217396019Y-92981766D01*
X217396019Y-92981766D02*
X217348400Y-93077004D01*
X217348400Y-93077004D02*
X217300780Y-93124623D01*
X217716019Y-97887004D02*
X216716019Y-97887004D01*
X217716019Y-97315576D02*
X217144590Y-97744147D01*
X216716019Y-97315576D02*
X217287447Y-97887004D01*
X38019819Y-37882985D02*
X37019819Y-37882985D01*
X37019819Y-37882985D02*
X37019819Y-37644890D01*
X37019819Y-37644890D02*
X37067438Y-37502033D01*
X37067438Y-37502033D02*
X37162676Y-37406795D01*
X37162676Y-37406795D02*
X37257914Y-37359176D01*
X37257914Y-37359176D02*
X37448390Y-37311557D01*
X37448390Y-37311557D02*
X37591247Y-37311557D01*
X37591247Y-37311557D02*
X37781723Y-37359176D01*
X37781723Y-37359176D02*
X37876961Y-37406795D01*
X37876961Y-37406795D02*
X37972200Y-37502033D01*
X37972200Y-37502033D02*
X38019819Y-37644890D01*
X38019819Y-37644890D02*
X38019819Y-37882985D01*
X37019819Y-36406795D02*
X37019819Y-36882985D01*
X37019819Y-36882985D02*
X37496009Y-36930604D01*
X37496009Y-36930604D02*
X37448390Y-36882985D01*
X37448390Y-36882985D02*
X37400771Y-36787747D01*
X37400771Y-36787747D02*
X37400771Y-36549652D01*
X37400771Y-36549652D02*
X37448390Y-36454414D01*
X37448390Y-36454414D02*
X37496009Y-36406795D01*
X37496009Y-36406795D02*
X37591247Y-36359176D01*
X37591247Y-36359176D02*
X37829342Y-36359176D01*
X37829342Y-36359176D02*
X37924580Y-36406795D01*
X37924580Y-36406795D02*
X37972200Y-36454414D01*
X37972200Y-36454414D02*
X38019819Y-36549652D01*
X38019819Y-36549652D02*
X38019819Y-36787747D01*
X38019819Y-36787747D02*
X37972200Y-36882985D01*
X37972200Y-36882985D02*
X37924580Y-36930604D01*
X38019819Y-35882985D02*
X38019819Y-35692509D01*
X38019819Y-35692509D02*
X37972200Y-35597271D01*
X37972200Y-35597271D02*
X37924580Y-35549652D01*
X37924580Y-35549652D02*
X37781723Y-35454414D01*
X37781723Y-35454414D02*
X37591247Y-35406795D01*
X37591247Y-35406795D02*
X37210295Y-35406795D01*
X37210295Y-35406795D02*
X37115057Y-35454414D01*
X37115057Y-35454414D02*
X37067438Y-35502033D01*
X37067438Y-35502033D02*
X37019819Y-35597271D01*
X37019819Y-35597271D02*
X37019819Y-35787747D01*
X37019819Y-35787747D02*
X37067438Y-35882985D01*
X37067438Y-35882985D02*
X37115057Y-35930604D01*
X37115057Y-35930604D02*
X37210295Y-35978223D01*
X37210295Y-35978223D02*
X37448390Y-35978223D01*
X37448390Y-35978223D02*
X37543628Y-35930604D01*
X37543628Y-35930604D02*
X37591247Y-35882985D01*
X37591247Y-35882985D02*
X37638866Y-35787747D01*
X37638866Y-35787747D02*
X37638866Y-35597271D01*
X37638866Y-35597271D02*
X37591247Y-35502033D01*
X37591247Y-35502033D02*
X37543628Y-35454414D01*
X37543628Y-35454414D02*
X37448390Y-35406795D01*
X38339819Y-40740604D02*
X37339819Y-40740604D01*
X38339819Y-40169176D02*
X37768390Y-40597747D01*
X37339819Y-40169176D02*
X37911247Y-40740604D01*
X104690619Y-57725485D02*
X103690619Y-57725485D01*
X103690619Y-57725485D02*
X103690619Y-57487390D01*
X103690619Y-57487390D02*
X103738238Y-57344533D01*
X103738238Y-57344533D02*
X103833476Y-57249295D01*
X103833476Y-57249295D02*
X103928714Y-57201676D01*
X103928714Y-57201676D02*
X104119190Y-57154057D01*
X104119190Y-57154057D02*
X104262047Y-57154057D01*
X104262047Y-57154057D02*
X104452523Y-57201676D01*
X104452523Y-57201676D02*
X104547761Y-57249295D01*
X104547761Y-57249295D02*
X104643000Y-57344533D01*
X104643000Y-57344533D02*
X104690619Y-57487390D01*
X104690619Y-57487390D02*
X104690619Y-57725485D01*
X103785857Y-56773104D02*
X103738238Y-56725485D01*
X103738238Y-56725485D02*
X103690619Y-56630247D01*
X103690619Y-56630247D02*
X103690619Y-56392152D01*
X103690619Y-56392152D02*
X103738238Y-56296914D01*
X103738238Y-56296914D02*
X103785857Y-56249295D01*
X103785857Y-56249295D02*
X103881095Y-56201676D01*
X103881095Y-56201676D02*
X103976333Y-56201676D01*
X103976333Y-56201676D02*
X104119190Y-56249295D01*
X104119190Y-56249295D02*
X104690619Y-56820723D01*
X104690619Y-56820723D02*
X104690619Y-56201676D01*
X103785857Y-55820723D02*
X103738238Y-55773104D01*
X103738238Y-55773104D02*
X103690619Y-55677866D01*
X103690619Y-55677866D02*
X103690619Y-55439771D01*
X103690619Y-55439771D02*
X103738238Y-55344533D01*
X103738238Y-55344533D02*
X103785857Y-55296914D01*
X103785857Y-55296914D02*
X103881095Y-55249295D01*
X103881095Y-55249295D02*
X103976333Y-55249295D01*
X103976333Y-55249295D02*
X104119190Y-55296914D01*
X104119190Y-55296914D02*
X104690619Y-55868342D01*
X104690619Y-55868342D02*
X104690619Y-55249295D01*
X105010619Y-60583104D02*
X104010619Y-60583104D01*
X105010619Y-60011676D02*
X104439190Y-60440247D01*
X104010619Y-60011676D02*
X104582047Y-60583104D01*
X238032219Y-114078185D02*
X237032219Y-114078185D01*
X237032219Y-114078185D02*
X237032219Y-113840090D01*
X237032219Y-113840090D02*
X237079838Y-113697233D01*
X237079838Y-113697233D02*
X237175076Y-113601995D01*
X237175076Y-113601995D02*
X237270314Y-113554376D01*
X237270314Y-113554376D02*
X237460790Y-113506757D01*
X237460790Y-113506757D02*
X237603647Y-113506757D01*
X237603647Y-113506757D02*
X237794123Y-113554376D01*
X237794123Y-113554376D02*
X237889361Y-113601995D01*
X237889361Y-113601995D02*
X237984600Y-113697233D01*
X237984600Y-113697233D02*
X238032219Y-113840090D01*
X238032219Y-113840090D02*
X238032219Y-114078185D01*
X237032219Y-112649614D02*
X237032219Y-112840090D01*
X237032219Y-112840090D02*
X237079838Y-112935328D01*
X237079838Y-112935328D02*
X237127457Y-112982947D01*
X237127457Y-112982947D02*
X237270314Y-113078185D01*
X237270314Y-113078185D02*
X237460790Y-113125804D01*
X237460790Y-113125804D02*
X237841742Y-113125804D01*
X237841742Y-113125804D02*
X237936980Y-113078185D01*
X237936980Y-113078185D02*
X237984600Y-113030566D01*
X237984600Y-113030566D02*
X238032219Y-112935328D01*
X238032219Y-112935328D02*
X238032219Y-112744852D01*
X238032219Y-112744852D02*
X237984600Y-112649614D01*
X237984600Y-112649614D02*
X237936980Y-112601995D01*
X237936980Y-112601995D02*
X237841742Y-112554376D01*
X237841742Y-112554376D02*
X237603647Y-112554376D01*
X237603647Y-112554376D02*
X237508409Y-112601995D01*
X237508409Y-112601995D02*
X237460790Y-112649614D01*
X237460790Y-112649614D02*
X237413171Y-112744852D01*
X237413171Y-112744852D02*
X237413171Y-112935328D01*
X237413171Y-112935328D02*
X237460790Y-113030566D01*
X237460790Y-113030566D02*
X237508409Y-113078185D01*
X237508409Y-113078185D02*
X237603647Y-113125804D01*
X237032219Y-111697233D02*
X237032219Y-111887709D01*
X237032219Y-111887709D02*
X237079838Y-111982947D01*
X237079838Y-111982947D02*
X237127457Y-112030566D01*
X237127457Y-112030566D02*
X237270314Y-112125804D01*
X237270314Y-112125804D02*
X237460790Y-112173423D01*
X237460790Y-112173423D02*
X237841742Y-112173423D01*
X237841742Y-112173423D02*
X237936980Y-112125804D01*
X237936980Y-112125804D02*
X237984600Y-112078185D01*
X237984600Y-112078185D02*
X238032219Y-111982947D01*
X238032219Y-111982947D02*
X238032219Y-111792471D01*
X238032219Y-111792471D02*
X237984600Y-111697233D01*
X237984600Y-111697233D02*
X237936980Y-111649614D01*
X237936980Y-111649614D02*
X237841742Y-111601995D01*
X237841742Y-111601995D02*
X237603647Y-111601995D01*
X237603647Y-111601995D02*
X237508409Y-111649614D01*
X237508409Y-111649614D02*
X237460790Y-111697233D01*
X237460790Y-111697233D02*
X237413171Y-111792471D01*
X237413171Y-111792471D02*
X237413171Y-111982947D01*
X237413171Y-111982947D02*
X237460790Y-112078185D01*
X237460790Y-112078185D02*
X237508409Y-112125804D01*
X237508409Y-112125804D02*
X237603647Y-112173423D01*
X238352219Y-116935804D02*
X237352219Y-116935804D01*
X238352219Y-116364376D02*
X237780790Y-116792947D01*
X237352219Y-116364376D02*
X237923647Y-116935804D01*
X1509619Y-95664585D02*
X509619Y-95664585D01*
X509619Y-95664585D02*
X509619Y-95426490D01*
X509619Y-95426490D02*
X557238Y-95283633D01*
X557238Y-95283633D02*
X652476Y-95188395D01*
X652476Y-95188395D02*
X747714Y-95140776D01*
X747714Y-95140776D02*
X938190Y-95093157D01*
X938190Y-95093157D02*
X1081047Y-95093157D01*
X1081047Y-95093157D02*
X1271523Y-95140776D01*
X1271523Y-95140776D02*
X1366761Y-95188395D01*
X1366761Y-95188395D02*
X1462000Y-95283633D01*
X1462000Y-95283633D02*
X1509619Y-95426490D01*
X1509619Y-95426490D02*
X1509619Y-95664585D01*
X842952Y-94236014D02*
X1509619Y-94236014D01*
X462000Y-94474109D02*
X1176285Y-94712204D01*
X1176285Y-94712204D02*
X1176285Y-94093157D01*
X842952Y-93283633D02*
X1509619Y-93283633D01*
X462000Y-93521728D02*
X1176285Y-93759823D01*
X1176285Y-93759823D02*
X1176285Y-93140776D01*
X1829619Y-98522204D02*
X829619Y-98522204D01*
X1829619Y-97950776D02*
X1258190Y-98379347D01*
X829619Y-97950776D02*
X1401047Y-98522204D01*
X204696819Y-76615785D02*
X203696819Y-76615785D01*
X203696819Y-76615785D02*
X203696819Y-76377690D01*
X203696819Y-76377690D02*
X203744438Y-76234833D01*
X203744438Y-76234833D02*
X203839676Y-76139595D01*
X203839676Y-76139595D02*
X203934914Y-76091976D01*
X203934914Y-76091976D02*
X204125390Y-76044357D01*
X204125390Y-76044357D02*
X204268247Y-76044357D01*
X204268247Y-76044357D02*
X204458723Y-76091976D01*
X204458723Y-76091976D02*
X204553961Y-76139595D01*
X204553961Y-76139595D02*
X204649200Y-76234833D01*
X204649200Y-76234833D02*
X204696819Y-76377690D01*
X204696819Y-76377690D02*
X204696819Y-76615785D01*
X204030152Y-75187214D02*
X204696819Y-75187214D01*
X203649200Y-75425309D02*
X204363485Y-75663404D01*
X204363485Y-75663404D02*
X204363485Y-75044357D01*
X203792057Y-74711023D02*
X203744438Y-74663404D01*
X203744438Y-74663404D02*
X203696819Y-74568166D01*
X203696819Y-74568166D02*
X203696819Y-74330071D01*
X203696819Y-74330071D02*
X203744438Y-74234833D01*
X203744438Y-74234833D02*
X203792057Y-74187214D01*
X203792057Y-74187214D02*
X203887295Y-74139595D01*
X203887295Y-74139595D02*
X203982533Y-74139595D01*
X203982533Y-74139595D02*
X204125390Y-74187214D01*
X204125390Y-74187214D02*
X204696819Y-74758642D01*
X204696819Y-74758642D02*
X204696819Y-74139595D01*
X205016819Y-79473404D02*
X204016819Y-79473404D01*
X205016819Y-78901976D02*
X204445390Y-79330547D01*
X204016819Y-78901976D02*
X204588247Y-79473404D01*
X52306419Y-76774285D02*
X51306419Y-76774285D01*
X51306419Y-76774285D02*
X51306419Y-76536190D01*
X51306419Y-76536190D02*
X51354038Y-76393333D01*
X51354038Y-76393333D02*
X51449276Y-76298095D01*
X51449276Y-76298095D02*
X51544514Y-76250476D01*
X51544514Y-76250476D02*
X51734990Y-76202857D01*
X51734990Y-76202857D02*
X51877847Y-76202857D01*
X51877847Y-76202857D02*
X52068323Y-76250476D01*
X52068323Y-76250476D02*
X52163561Y-76298095D01*
X52163561Y-76298095D02*
X52258800Y-76393333D01*
X52258800Y-76393333D02*
X52306419Y-76536190D01*
X52306419Y-76536190D02*
X52306419Y-76774285D01*
X51306419Y-75869523D02*
X51306419Y-75250476D01*
X51306419Y-75250476D02*
X51687371Y-75583809D01*
X51687371Y-75583809D02*
X51687371Y-75440952D01*
X51687371Y-75440952D02*
X51734990Y-75345714D01*
X51734990Y-75345714D02*
X51782609Y-75298095D01*
X51782609Y-75298095D02*
X51877847Y-75250476D01*
X51877847Y-75250476D02*
X52115942Y-75250476D01*
X52115942Y-75250476D02*
X52211180Y-75298095D01*
X52211180Y-75298095D02*
X52258800Y-75345714D01*
X52258800Y-75345714D02*
X52306419Y-75440952D01*
X52306419Y-75440952D02*
X52306419Y-75726666D01*
X52306419Y-75726666D02*
X52258800Y-75821904D01*
X52258800Y-75821904D02*
X52211180Y-75869523D01*
X51639752Y-74393333D02*
X52306419Y-74393333D01*
X51258800Y-74631428D02*
X51973085Y-74869523D01*
X51973085Y-74869523D02*
X51973085Y-74250476D01*
X52626419Y-79631904D02*
X51626419Y-79631904D01*
X52626419Y-79060476D02*
X52054990Y-79489047D01*
X51626419Y-79060476D02*
X52197847Y-79631904D01*
X198347219Y-113601994D02*
X197347219Y-113601994D01*
X197347219Y-113601994D02*
X197347219Y-113363899D01*
X197347219Y-113363899D02*
X197394838Y-113221042D01*
X197394838Y-113221042D02*
X197490076Y-113125804D01*
X197490076Y-113125804D02*
X197585314Y-113078185D01*
X197585314Y-113078185D02*
X197775790Y-113030566D01*
X197775790Y-113030566D02*
X197918647Y-113030566D01*
X197918647Y-113030566D02*
X198109123Y-113078185D01*
X198109123Y-113078185D02*
X198204361Y-113125804D01*
X198204361Y-113125804D02*
X198299600Y-113221042D01*
X198299600Y-113221042D02*
X198347219Y-113363899D01*
X198347219Y-113363899D02*
X198347219Y-113601994D01*
X197347219Y-112125804D02*
X197347219Y-112601994D01*
X197347219Y-112601994D02*
X197823409Y-112649613D01*
X197823409Y-112649613D02*
X197775790Y-112601994D01*
X197775790Y-112601994D02*
X197728171Y-112506756D01*
X197728171Y-112506756D02*
X197728171Y-112268661D01*
X197728171Y-112268661D02*
X197775790Y-112173423D01*
X197775790Y-112173423D02*
X197823409Y-112125804D01*
X197823409Y-112125804D02*
X197918647Y-112078185D01*
X197918647Y-112078185D02*
X198156742Y-112078185D01*
X198156742Y-112078185D02*
X198251980Y-112125804D01*
X198251980Y-112125804D02*
X198299600Y-112173423D01*
X198299600Y-112173423D02*
X198347219Y-112268661D01*
X198347219Y-112268661D02*
X198347219Y-112506756D01*
X198347219Y-112506756D02*
X198299600Y-112601994D01*
X198299600Y-112601994D02*
X198251980Y-112649613D01*
X198667219Y-116935804D02*
X197667219Y-116935804D01*
X198667219Y-116364376D02*
X198095790Y-116792947D01*
X197667219Y-116364376D02*
X198238647Y-116935804D01*
X147550419Y-76774285D02*
X146550419Y-76774285D01*
X146550419Y-76774285D02*
X146550419Y-76536190D01*
X146550419Y-76536190D02*
X146598038Y-76393333D01*
X146598038Y-76393333D02*
X146693276Y-76298095D01*
X146693276Y-76298095D02*
X146788514Y-76250476D01*
X146788514Y-76250476D02*
X146978990Y-76202857D01*
X146978990Y-76202857D02*
X147121847Y-76202857D01*
X147121847Y-76202857D02*
X147312323Y-76250476D01*
X147312323Y-76250476D02*
X147407561Y-76298095D01*
X147407561Y-76298095D02*
X147502800Y-76393333D01*
X147502800Y-76393333D02*
X147550419Y-76536190D01*
X147550419Y-76536190D02*
X147550419Y-76774285D01*
X146550419Y-75869523D02*
X146550419Y-75250476D01*
X146550419Y-75250476D02*
X146931371Y-75583809D01*
X146931371Y-75583809D02*
X146931371Y-75440952D01*
X146931371Y-75440952D02*
X146978990Y-75345714D01*
X146978990Y-75345714D02*
X147026609Y-75298095D01*
X147026609Y-75298095D02*
X147121847Y-75250476D01*
X147121847Y-75250476D02*
X147359942Y-75250476D01*
X147359942Y-75250476D02*
X147455180Y-75298095D01*
X147455180Y-75298095D02*
X147502800Y-75345714D01*
X147502800Y-75345714D02*
X147550419Y-75440952D01*
X147550419Y-75440952D02*
X147550419Y-75726666D01*
X147550419Y-75726666D02*
X147502800Y-75821904D01*
X147502800Y-75821904D02*
X147455180Y-75869523D01*
X147550419Y-74774285D02*
X147550419Y-74583809D01*
X147550419Y-74583809D02*
X147502800Y-74488571D01*
X147502800Y-74488571D02*
X147455180Y-74440952D01*
X147455180Y-74440952D02*
X147312323Y-74345714D01*
X147312323Y-74345714D02*
X147121847Y-74298095D01*
X147121847Y-74298095D02*
X146740895Y-74298095D01*
X146740895Y-74298095D02*
X146645657Y-74345714D01*
X146645657Y-74345714D02*
X146598038Y-74393333D01*
X146598038Y-74393333D02*
X146550419Y-74488571D01*
X146550419Y-74488571D02*
X146550419Y-74679047D01*
X146550419Y-74679047D02*
X146598038Y-74774285D01*
X146598038Y-74774285D02*
X146645657Y-74821904D01*
X146645657Y-74821904D02*
X146740895Y-74869523D01*
X146740895Y-74869523D02*
X146978990Y-74869523D01*
X146978990Y-74869523D02*
X147074228Y-74821904D01*
X147074228Y-74821904D02*
X147121847Y-74774285D01*
X147121847Y-74774285D02*
X147169466Y-74679047D01*
X147169466Y-74679047D02*
X147169466Y-74488571D01*
X147169466Y-74488571D02*
X147121847Y-74393333D01*
X147121847Y-74393333D02*
X147074228Y-74345714D01*
X147074228Y-74345714D02*
X146978990Y-74298095D01*
X147870419Y-79631904D02*
X146870419Y-79631904D01*
X147870419Y-79060476D02*
X147298990Y-79489047D01*
X146870419Y-79060476D02*
X147441847Y-79631904D01*
X171361419Y-38676685D02*
X170361419Y-38676685D01*
X170361419Y-38676685D02*
X170361419Y-38438590D01*
X170361419Y-38438590D02*
X170409038Y-38295733D01*
X170409038Y-38295733D02*
X170504276Y-38200495D01*
X170504276Y-38200495D02*
X170599514Y-38152876D01*
X170599514Y-38152876D02*
X170789990Y-38105257D01*
X170789990Y-38105257D02*
X170932847Y-38105257D01*
X170932847Y-38105257D02*
X171123323Y-38152876D01*
X171123323Y-38152876D02*
X171218561Y-38200495D01*
X171218561Y-38200495D02*
X171313800Y-38295733D01*
X171313800Y-38295733D02*
X171361419Y-38438590D01*
X171361419Y-38438590D02*
X171361419Y-38676685D01*
X171361419Y-37152876D02*
X171361419Y-37724304D01*
X171361419Y-37438590D02*
X170361419Y-37438590D01*
X170361419Y-37438590D02*
X170504276Y-37533828D01*
X170504276Y-37533828D02*
X170599514Y-37629066D01*
X170599514Y-37629066D02*
X170647133Y-37724304D01*
X171361419Y-36200495D02*
X171361419Y-36771923D01*
X171361419Y-36486209D02*
X170361419Y-36486209D01*
X170361419Y-36486209D02*
X170504276Y-36581447D01*
X170504276Y-36581447D02*
X170599514Y-36676685D01*
X170599514Y-36676685D02*
X170647133Y-36771923D01*
X171681419Y-41534304D02*
X170681419Y-41534304D01*
X171681419Y-40962876D02*
X171109990Y-41391447D01*
X170681419Y-40962876D02*
X171252847Y-41534304D01*
X9446619Y-57725485D02*
X8446619Y-57725485D01*
X8446619Y-57725485D02*
X8446619Y-57487390D01*
X8446619Y-57487390D02*
X8494238Y-57344533D01*
X8494238Y-57344533D02*
X8589476Y-57249295D01*
X8589476Y-57249295D02*
X8684714Y-57201676D01*
X8684714Y-57201676D02*
X8875190Y-57154057D01*
X8875190Y-57154057D02*
X9018047Y-57154057D01*
X9018047Y-57154057D02*
X9208523Y-57201676D01*
X9208523Y-57201676D02*
X9303761Y-57249295D01*
X9303761Y-57249295D02*
X9399000Y-57344533D01*
X9399000Y-57344533D02*
X9446619Y-57487390D01*
X9446619Y-57487390D02*
X9446619Y-57725485D01*
X9446619Y-56201676D02*
X9446619Y-56773104D01*
X9446619Y-56487390D02*
X8446619Y-56487390D01*
X8446619Y-56487390D02*
X8589476Y-56582628D01*
X8589476Y-56582628D02*
X8684714Y-56677866D01*
X8684714Y-56677866D02*
X8732333Y-56773104D01*
X8446619Y-55868342D02*
X8446619Y-55201676D01*
X8446619Y-55201676D02*
X9446619Y-55630247D01*
X9766619Y-60583104D02*
X8766619Y-60583104D01*
X9766619Y-60011676D02*
X9195190Y-60440247D01*
X8766619Y-60011676D02*
X9338047Y-60583104D01*
X-11983280Y-75980585D02*
X-12983280Y-75980585D01*
X-12983280Y-75980585D02*
X-12983280Y-75742490D01*
X-12983280Y-75742490D02*
X-12935661Y-75599633D01*
X-12935661Y-75599633D02*
X-12840423Y-75504395D01*
X-12840423Y-75504395D02*
X-12745185Y-75456776D01*
X-12745185Y-75456776D02*
X-12554709Y-75409157D01*
X-12554709Y-75409157D02*
X-12411852Y-75409157D01*
X-12411852Y-75409157D02*
X-12221376Y-75456776D01*
X-12221376Y-75456776D02*
X-12126138Y-75504395D01*
X-12126138Y-75504395D02*
X-12030900Y-75599633D01*
X-12030900Y-75599633D02*
X-11983280Y-75742490D01*
X-11983280Y-75742490D02*
X-11983280Y-75980585D01*
X-12983280Y-75075823D02*
X-12983280Y-74456776D01*
X-12983280Y-74456776D02*
X-12602328Y-74790109D01*
X-12602328Y-74790109D02*
X-12602328Y-74647252D01*
X-12602328Y-74647252D02*
X-12554709Y-74552014D01*
X-12554709Y-74552014D02*
X-12507090Y-74504395D01*
X-12507090Y-74504395D02*
X-12411852Y-74456776D01*
X-12411852Y-74456776D02*
X-12173757Y-74456776D01*
X-12173757Y-74456776D02*
X-12078519Y-74504395D01*
X-12078519Y-74504395D02*
X-12030900Y-74552014D01*
X-12030900Y-74552014D02*
X-11983280Y-74647252D01*
X-11983280Y-74647252D02*
X-11983280Y-74932966D01*
X-11983280Y-74932966D02*
X-12030900Y-75028204D01*
X-12030900Y-75028204D02*
X-12078519Y-75075823D01*
X-11983280Y-73504395D02*
X-11983280Y-74075823D01*
X-11983280Y-73790109D02*
X-12983280Y-73790109D01*
X-12983280Y-73790109D02*
X-12840423Y-73885347D01*
X-12840423Y-73885347D02*
X-12745185Y-73980585D01*
X-12745185Y-73980585D02*
X-12697566Y-74075823D01*
X-11663280Y-78838204D02*
X-12663280Y-78838204D01*
X-11663280Y-78266776D02*
X-12234709Y-78695347D01*
X-12663280Y-78266776D02*
X-12091852Y-78838204D01*
X275336119Y-95029385D02*
X274336119Y-95029385D01*
X274336119Y-95029385D02*
X274336119Y-94791290D01*
X274336119Y-94791290D02*
X274383738Y-94648433D01*
X274383738Y-94648433D02*
X274478976Y-94553195D01*
X274478976Y-94553195D02*
X274574214Y-94505576D01*
X274574214Y-94505576D02*
X274764690Y-94457957D01*
X274764690Y-94457957D02*
X274907547Y-94457957D01*
X274907547Y-94457957D02*
X275098023Y-94505576D01*
X275098023Y-94505576D02*
X275193261Y-94553195D01*
X275193261Y-94553195D02*
X275288500Y-94648433D01*
X275288500Y-94648433D02*
X275336119Y-94791290D01*
X275336119Y-94791290D02*
X275336119Y-95029385D01*
X274336119Y-93553195D02*
X274336119Y-94029385D01*
X274336119Y-94029385D02*
X274812309Y-94077004D01*
X274812309Y-94077004D02*
X274764690Y-94029385D01*
X274764690Y-94029385D02*
X274717071Y-93934147D01*
X274717071Y-93934147D02*
X274717071Y-93696052D01*
X274717071Y-93696052D02*
X274764690Y-93600814D01*
X274764690Y-93600814D02*
X274812309Y-93553195D01*
X274812309Y-93553195D02*
X274907547Y-93505576D01*
X274907547Y-93505576D02*
X275145642Y-93505576D01*
X275145642Y-93505576D02*
X275240880Y-93553195D01*
X275240880Y-93553195D02*
X275288500Y-93600814D01*
X275288500Y-93600814D02*
X275336119Y-93696052D01*
X275336119Y-93696052D02*
X275336119Y-93934147D01*
X275336119Y-93934147D02*
X275288500Y-94029385D01*
X275288500Y-94029385D02*
X275240880Y-94077004D01*
X274764690Y-92934147D02*
X274717071Y-93029385D01*
X274717071Y-93029385D02*
X274669452Y-93077004D01*
X274669452Y-93077004D02*
X274574214Y-93124623D01*
X274574214Y-93124623D02*
X274526595Y-93124623D01*
X274526595Y-93124623D02*
X274431357Y-93077004D01*
X274431357Y-93077004D02*
X274383738Y-93029385D01*
X274383738Y-93029385D02*
X274336119Y-92934147D01*
X274336119Y-92934147D02*
X274336119Y-92743671D01*
X274336119Y-92743671D02*
X274383738Y-92648433D01*
X274383738Y-92648433D02*
X274431357Y-92600814D01*
X274431357Y-92600814D02*
X274526595Y-92553195D01*
X274526595Y-92553195D02*
X274574214Y-92553195D01*
X274574214Y-92553195D02*
X274669452Y-92600814D01*
X274669452Y-92600814D02*
X274717071Y-92648433D01*
X274717071Y-92648433D02*
X274764690Y-92743671D01*
X274764690Y-92743671D02*
X274764690Y-92934147D01*
X274764690Y-92934147D02*
X274812309Y-93029385D01*
X274812309Y-93029385D02*
X274859928Y-93077004D01*
X274859928Y-93077004D02*
X274955166Y-93124623D01*
X274955166Y-93124623D02*
X275145642Y-93124623D01*
X275145642Y-93124623D02*
X275240880Y-93077004D01*
X275240880Y-93077004D02*
X275288500Y-93029385D01*
X275288500Y-93029385D02*
X275336119Y-92934147D01*
X275336119Y-92934147D02*
X275336119Y-92743671D01*
X275336119Y-92743671D02*
X275288500Y-92648433D01*
X275288500Y-92648433D02*
X275240880Y-92600814D01*
X275240880Y-92600814D02*
X275145642Y-92553195D01*
X275145642Y-92553195D02*
X274955166Y-92553195D01*
X274955166Y-92553195D02*
X274859928Y-92600814D01*
X274859928Y-92600814D02*
X274812309Y-92648433D01*
X274812309Y-92648433D02*
X274764690Y-92743671D01*
X275656119Y-97887004D02*
X274656119Y-97887004D01*
X275656119Y-97315576D02*
X275084690Y-97744147D01*
X274656119Y-97315576D02*
X275227547Y-97887004D01*
X185648019Y-75980585D02*
X184648019Y-75980585D01*
X184648019Y-75980585D02*
X184648019Y-75742490D01*
X184648019Y-75742490D02*
X184695638Y-75599633D01*
X184695638Y-75599633D02*
X184790876Y-75504395D01*
X184790876Y-75504395D02*
X184886114Y-75456776D01*
X184886114Y-75456776D02*
X185076590Y-75409157D01*
X185076590Y-75409157D02*
X185219447Y-75409157D01*
X185219447Y-75409157D02*
X185409923Y-75456776D01*
X185409923Y-75456776D02*
X185505161Y-75504395D01*
X185505161Y-75504395D02*
X185600400Y-75599633D01*
X185600400Y-75599633D02*
X185648019Y-75742490D01*
X185648019Y-75742490D02*
X185648019Y-75980585D01*
X184648019Y-74504395D02*
X184648019Y-74980585D01*
X184648019Y-74980585D02*
X185124209Y-75028204D01*
X185124209Y-75028204D02*
X185076590Y-74980585D01*
X185076590Y-74980585D02*
X185028971Y-74885347D01*
X185028971Y-74885347D02*
X185028971Y-74647252D01*
X185028971Y-74647252D02*
X185076590Y-74552014D01*
X185076590Y-74552014D02*
X185124209Y-74504395D01*
X185124209Y-74504395D02*
X185219447Y-74456776D01*
X185219447Y-74456776D02*
X185457542Y-74456776D01*
X185457542Y-74456776D02*
X185552780Y-74504395D01*
X185552780Y-74504395D02*
X185600400Y-74552014D01*
X185600400Y-74552014D02*
X185648019Y-74647252D01*
X185648019Y-74647252D02*
X185648019Y-74885347D01*
X185648019Y-74885347D02*
X185600400Y-74980585D01*
X185600400Y-74980585D02*
X185552780Y-75028204D01*
X184981352Y-73599633D02*
X185648019Y-73599633D01*
X184600400Y-73837728D02*
X185314685Y-74075823D01*
X185314685Y-74075823D02*
X185314685Y-73456776D01*
X185968019Y-78838204D02*
X184968019Y-78838204D01*
X185968019Y-78266776D02*
X185396590Y-78695347D01*
X184968019Y-78266776D02*
X185539447Y-78838204D01*
X152312619Y-37882985D02*
X151312619Y-37882985D01*
X151312619Y-37882985D02*
X151312619Y-37644890D01*
X151312619Y-37644890D02*
X151360238Y-37502033D01*
X151360238Y-37502033D02*
X151455476Y-37406795D01*
X151455476Y-37406795D02*
X151550714Y-37359176D01*
X151550714Y-37359176D02*
X151741190Y-37311557D01*
X151741190Y-37311557D02*
X151884047Y-37311557D01*
X151884047Y-37311557D02*
X152074523Y-37359176D01*
X152074523Y-37359176D02*
X152169761Y-37406795D01*
X152169761Y-37406795D02*
X152265000Y-37502033D01*
X152265000Y-37502033D02*
X152312619Y-37644890D01*
X152312619Y-37644890D02*
X152312619Y-37882985D01*
X152312619Y-36359176D02*
X152312619Y-36930604D01*
X152312619Y-36644890D02*
X151312619Y-36644890D01*
X151312619Y-36644890D02*
X151455476Y-36740128D01*
X151455476Y-36740128D02*
X151550714Y-36835366D01*
X151550714Y-36835366D02*
X151598333Y-36930604D01*
X151312619Y-35740128D02*
X151312619Y-35644890D01*
X151312619Y-35644890D02*
X151360238Y-35549652D01*
X151360238Y-35549652D02*
X151407857Y-35502033D01*
X151407857Y-35502033D02*
X151503095Y-35454414D01*
X151503095Y-35454414D02*
X151693571Y-35406795D01*
X151693571Y-35406795D02*
X151931666Y-35406795D01*
X151931666Y-35406795D02*
X152122142Y-35454414D01*
X152122142Y-35454414D02*
X152217380Y-35502033D01*
X152217380Y-35502033D02*
X152265000Y-35549652D01*
X152265000Y-35549652D02*
X152312619Y-35644890D01*
X152312619Y-35644890D02*
X152312619Y-35740128D01*
X152312619Y-35740128D02*
X152265000Y-35835366D01*
X152265000Y-35835366D02*
X152217380Y-35882985D01*
X152217380Y-35882985D02*
X152122142Y-35930604D01*
X152122142Y-35930604D02*
X151931666Y-35978223D01*
X151931666Y-35978223D02*
X151693571Y-35978223D01*
X151693571Y-35978223D02*
X151503095Y-35930604D01*
X151503095Y-35930604D02*
X151407857Y-35882985D01*
X151407857Y-35882985D02*
X151360238Y-35835366D01*
X151360238Y-35835366D02*
X151312619Y-35740128D01*
X152632619Y-40740604D02*
X151632619Y-40740604D01*
X152632619Y-40169176D02*
X152061190Y-40597747D01*
X151632619Y-40169176D02*
X152204047Y-40740604D01*
X47544219Y-57725485D02*
X46544219Y-57725485D01*
X46544219Y-57725485D02*
X46544219Y-57487390D01*
X46544219Y-57487390D02*
X46591838Y-57344533D01*
X46591838Y-57344533D02*
X46687076Y-57249295D01*
X46687076Y-57249295D02*
X46782314Y-57201676D01*
X46782314Y-57201676D02*
X46972790Y-57154057D01*
X46972790Y-57154057D02*
X47115647Y-57154057D01*
X47115647Y-57154057D02*
X47306123Y-57201676D01*
X47306123Y-57201676D02*
X47401361Y-57249295D01*
X47401361Y-57249295D02*
X47496600Y-57344533D01*
X47496600Y-57344533D02*
X47544219Y-57487390D01*
X47544219Y-57487390D02*
X47544219Y-57725485D01*
X46877552Y-56296914D02*
X47544219Y-56296914D01*
X46496600Y-56535009D02*
X47210885Y-56773104D01*
X47210885Y-56773104D02*
X47210885Y-56154057D01*
X47544219Y-55249295D02*
X47544219Y-55820723D01*
X47544219Y-55535009D02*
X46544219Y-55535009D01*
X46544219Y-55535009D02*
X46687076Y-55630247D01*
X46687076Y-55630247D02*
X46782314Y-55725485D01*
X46782314Y-55725485D02*
X46829933Y-55820723D01*
X47864219Y-60583104D02*
X46864219Y-60583104D01*
X47864219Y-60011676D02*
X47292790Y-60440247D01*
X46864219Y-60011676D02*
X47435647Y-60583104D01*
X80879619Y-95823085D02*
X79879619Y-95823085D01*
X79879619Y-95823085D02*
X79879619Y-95584990D01*
X79879619Y-95584990D02*
X79927238Y-95442133D01*
X79927238Y-95442133D02*
X80022476Y-95346895D01*
X80022476Y-95346895D02*
X80117714Y-95299276D01*
X80117714Y-95299276D02*
X80308190Y-95251657D01*
X80308190Y-95251657D02*
X80451047Y-95251657D01*
X80451047Y-95251657D02*
X80641523Y-95299276D01*
X80641523Y-95299276D02*
X80736761Y-95346895D01*
X80736761Y-95346895D02*
X80832000Y-95442133D01*
X80832000Y-95442133D02*
X80879619Y-95584990D01*
X80879619Y-95584990D02*
X80879619Y-95823085D01*
X80212952Y-94394514D02*
X80879619Y-94394514D01*
X79832000Y-94632609D02*
X80546285Y-94870704D01*
X80546285Y-94870704D02*
X80546285Y-94251657D01*
X80308190Y-93727847D02*
X80260571Y-93823085D01*
X80260571Y-93823085D02*
X80212952Y-93870704D01*
X80212952Y-93870704D02*
X80117714Y-93918323D01*
X80117714Y-93918323D02*
X80070095Y-93918323D01*
X80070095Y-93918323D02*
X79974857Y-93870704D01*
X79974857Y-93870704D02*
X79927238Y-93823085D01*
X79927238Y-93823085D02*
X79879619Y-93727847D01*
X79879619Y-93727847D02*
X79879619Y-93537371D01*
X79879619Y-93537371D02*
X79927238Y-93442133D01*
X79927238Y-93442133D02*
X79974857Y-93394514D01*
X79974857Y-93394514D02*
X80070095Y-93346895D01*
X80070095Y-93346895D02*
X80117714Y-93346895D01*
X80117714Y-93346895D02*
X80212952Y-93394514D01*
X80212952Y-93394514D02*
X80260571Y-93442133D01*
X80260571Y-93442133D02*
X80308190Y-93537371D01*
X80308190Y-93537371D02*
X80308190Y-93727847D01*
X80308190Y-93727847D02*
X80355809Y-93823085D01*
X80355809Y-93823085D02*
X80403428Y-93870704D01*
X80403428Y-93870704D02*
X80498666Y-93918323D01*
X80498666Y-93918323D02*
X80689142Y-93918323D01*
X80689142Y-93918323D02*
X80784380Y-93870704D01*
X80784380Y-93870704D02*
X80832000Y-93823085D01*
X80832000Y-93823085D02*
X80879619Y-93727847D01*
X80879619Y-93727847D02*
X80879619Y-93537371D01*
X80879619Y-93537371D02*
X80832000Y-93442133D01*
X80832000Y-93442133D02*
X80784380Y-93394514D01*
X80784380Y-93394514D02*
X80689142Y-93346895D01*
X80689142Y-93346895D02*
X80498666Y-93346895D01*
X80498666Y-93346895D02*
X80403428Y-93394514D01*
X80403428Y-93394514D02*
X80355809Y-93442133D01*
X80355809Y-93442133D02*
X80308190Y-93537371D01*
X81199619Y-98680704D02*
X80199619Y-98680704D01*
X81199619Y-98109276D02*
X80628190Y-98537847D01*
X80199619Y-98109276D02*
X80771047Y-98680704D01*
X18971019Y-37406794D02*
X17971019Y-37406794D01*
X17971019Y-37406794D02*
X17971019Y-37168699D01*
X17971019Y-37168699D02*
X18018638Y-37025842D01*
X18018638Y-37025842D02*
X18113876Y-36930604D01*
X18113876Y-36930604D02*
X18209114Y-36882985D01*
X18209114Y-36882985D02*
X18399590Y-36835366D01*
X18399590Y-36835366D02*
X18542447Y-36835366D01*
X18542447Y-36835366D02*
X18732923Y-36882985D01*
X18732923Y-36882985D02*
X18828161Y-36930604D01*
X18828161Y-36930604D02*
X18923400Y-37025842D01*
X18923400Y-37025842D02*
X18971019Y-37168699D01*
X18971019Y-37168699D02*
X18971019Y-37406794D01*
X17971019Y-36502032D02*
X17971019Y-35882985D01*
X17971019Y-35882985D02*
X18351971Y-36216318D01*
X18351971Y-36216318D02*
X18351971Y-36073461D01*
X18351971Y-36073461D02*
X18399590Y-35978223D01*
X18399590Y-35978223D02*
X18447209Y-35930604D01*
X18447209Y-35930604D02*
X18542447Y-35882985D01*
X18542447Y-35882985D02*
X18780542Y-35882985D01*
X18780542Y-35882985D02*
X18875780Y-35930604D01*
X18875780Y-35930604D02*
X18923400Y-35978223D01*
X18923400Y-35978223D02*
X18971019Y-36073461D01*
X18971019Y-36073461D02*
X18971019Y-36359175D01*
X18971019Y-36359175D02*
X18923400Y-36454413D01*
X18923400Y-36454413D02*
X18875780Y-36502032D01*
X19291019Y-40740604D02*
X18291019Y-40740604D01*
X19291019Y-40169176D02*
X18719590Y-40597747D01*
X18291019Y-40169176D02*
X18862447Y-40740604D01*
X138026019Y-95823085D02*
X137026019Y-95823085D01*
X137026019Y-95823085D02*
X137026019Y-95584990D01*
X137026019Y-95584990D02*
X137073638Y-95442133D01*
X137073638Y-95442133D02*
X137168876Y-95346895D01*
X137168876Y-95346895D02*
X137264114Y-95299276D01*
X137264114Y-95299276D02*
X137454590Y-95251657D01*
X137454590Y-95251657D02*
X137597447Y-95251657D01*
X137597447Y-95251657D02*
X137787923Y-95299276D01*
X137787923Y-95299276D02*
X137883161Y-95346895D01*
X137883161Y-95346895D02*
X137978400Y-95442133D01*
X137978400Y-95442133D02*
X138026019Y-95584990D01*
X138026019Y-95584990D02*
X138026019Y-95823085D01*
X137026019Y-94346895D02*
X137026019Y-94823085D01*
X137026019Y-94823085D02*
X137502209Y-94870704D01*
X137502209Y-94870704D02*
X137454590Y-94823085D01*
X137454590Y-94823085D02*
X137406971Y-94727847D01*
X137406971Y-94727847D02*
X137406971Y-94489752D01*
X137406971Y-94489752D02*
X137454590Y-94394514D01*
X137454590Y-94394514D02*
X137502209Y-94346895D01*
X137502209Y-94346895D02*
X137597447Y-94299276D01*
X137597447Y-94299276D02*
X137835542Y-94299276D01*
X137835542Y-94299276D02*
X137930780Y-94346895D01*
X137930780Y-94346895D02*
X137978400Y-94394514D01*
X137978400Y-94394514D02*
X138026019Y-94489752D01*
X138026019Y-94489752D02*
X138026019Y-94727847D01*
X138026019Y-94727847D02*
X137978400Y-94823085D01*
X137978400Y-94823085D02*
X137930780Y-94870704D01*
X138026019Y-93346895D02*
X138026019Y-93918323D01*
X138026019Y-93632609D02*
X137026019Y-93632609D01*
X137026019Y-93632609D02*
X137168876Y-93727847D01*
X137168876Y-93727847D02*
X137264114Y-93823085D01*
X137264114Y-93823085D02*
X137311733Y-93918323D01*
X138346019Y-98680704D02*
X137346019Y-98680704D01*
X138346019Y-98109276D02*
X137774590Y-98537847D01*
X137346019Y-98109276D02*
X137917447Y-98680704D01*
X14208819Y-76774285D02*
X13208819Y-76774285D01*
X13208819Y-76774285D02*
X13208819Y-76536190D01*
X13208819Y-76536190D02*
X13256438Y-76393333D01*
X13256438Y-76393333D02*
X13351676Y-76298095D01*
X13351676Y-76298095D02*
X13446914Y-76250476D01*
X13446914Y-76250476D02*
X13637390Y-76202857D01*
X13637390Y-76202857D02*
X13780247Y-76202857D01*
X13780247Y-76202857D02*
X13970723Y-76250476D01*
X13970723Y-76250476D02*
X14065961Y-76298095D01*
X14065961Y-76298095D02*
X14161200Y-76393333D01*
X14161200Y-76393333D02*
X14208819Y-76536190D01*
X14208819Y-76536190D02*
X14208819Y-76774285D01*
X13208819Y-75869523D02*
X13208819Y-75250476D01*
X13208819Y-75250476D02*
X13589771Y-75583809D01*
X13589771Y-75583809D02*
X13589771Y-75440952D01*
X13589771Y-75440952D02*
X13637390Y-75345714D01*
X13637390Y-75345714D02*
X13685009Y-75298095D01*
X13685009Y-75298095D02*
X13780247Y-75250476D01*
X13780247Y-75250476D02*
X14018342Y-75250476D01*
X14018342Y-75250476D02*
X14113580Y-75298095D01*
X14113580Y-75298095D02*
X14161200Y-75345714D01*
X14161200Y-75345714D02*
X14208819Y-75440952D01*
X14208819Y-75440952D02*
X14208819Y-75726666D01*
X14208819Y-75726666D02*
X14161200Y-75821904D01*
X14161200Y-75821904D02*
X14113580Y-75869523D01*
X13304057Y-74869523D02*
X13256438Y-74821904D01*
X13256438Y-74821904D02*
X13208819Y-74726666D01*
X13208819Y-74726666D02*
X13208819Y-74488571D01*
X13208819Y-74488571D02*
X13256438Y-74393333D01*
X13256438Y-74393333D02*
X13304057Y-74345714D01*
X13304057Y-74345714D02*
X13399295Y-74298095D01*
X13399295Y-74298095D02*
X13494533Y-74298095D01*
X13494533Y-74298095D02*
X13637390Y-74345714D01*
X13637390Y-74345714D02*
X14208819Y-74917142D01*
X14208819Y-74917142D02*
X14208819Y-74298095D01*
X14528819Y-79631904D02*
X13528819Y-79631904D01*
X14528819Y-79060476D02*
X13957390Y-79489047D01*
X13528819Y-79060476D02*
X14100247Y-79631904D01*
X109452819Y-76774285D02*
X108452819Y-76774285D01*
X108452819Y-76774285D02*
X108452819Y-76536190D01*
X108452819Y-76536190D02*
X108500438Y-76393333D01*
X108500438Y-76393333D02*
X108595676Y-76298095D01*
X108595676Y-76298095D02*
X108690914Y-76250476D01*
X108690914Y-76250476D02*
X108881390Y-76202857D01*
X108881390Y-76202857D02*
X109024247Y-76202857D01*
X109024247Y-76202857D02*
X109214723Y-76250476D01*
X109214723Y-76250476D02*
X109309961Y-76298095D01*
X109309961Y-76298095D02*
X109405200Y-76393333D01*
X109405200Y-76393333D02*
X109452819Y-76536190D01*
X109452819Y-76536190D02*
X109452819Y-76774285D01*
X108452819Y-75869523D02*
X108452819Y-75250476D01*
X108452819Y-75250476D02*
X108833771Y-75583809D01*
X108833771Y-75583809D02*
X108833771Y-75440952D01*
X108833771Y-75440952D02*
X108881390Y-75345714D01*
X108881390Y-75345714D02*
X108929009Y-75298095D01*
X108929009Y-75298095D02*
X109024247Y-75250476D01*
X109024247Y-75250476D02*
X109262342Y-75250476D01*
X109262342Y-75250476D02*
X109357580Y-75298095D01*
X109357580Y-75298095D02*
X109405200Y-75345714D01*
X109405200Y-75345714D02*
X109452819Y-75440952D01*
X109452819Y-75440952D02*
X109452819Y-75726666D01*
X109452819Y-75726666D02*
X109405200Y-75821904D01*
X109405200Y-75821904D02*
X109357580Y-75869523D01*
X108452819Y-74917142D02*
X108452819Y-74250476D01*
X108452819Y-74250476D02*
X109452819Y-74679047D01*
X109772819Y-79631904D02*
X108772819Y-79631904D01*
X109772819Y-79060476D02*
X109201390Y-79489047D01*
X108772819Y-79060476D02*
X109344247Y-79631904D01*
X99928419Y-95823085D02*
X98928419Y-95823085D01*
X98928419Y-95823085D02*
X98928419Y-95584990D01*
X98928419Y-95584990D02*
X98976038Y-95442133D01*
X98976038Y-95442133D02*
X99071276Y-95346895D01*
X99071276Y-95346895D02*
X99166514Y-95299276D01*
X99166514Y-95299276D02*
X99356990Y-95251657D01*
X99356990Y-95251657D02*
X99499847Y-95251657D01*
X99499847Y-95251657D02*
X99690323Y-95299276D01*
X99690323Y-95299276D02*
X99785561Y-95346895D01*
X99785561Y-95346895D02*
X99880800Y-95442133D01*
X99880800Y-95442133D02*
X99928419Y-95584990D01*
X99928419Y-95584990D02*
X99928419Y-95823085D01*
X99261752Y-94394514D02*
X99928419Y-94394514D01*
X98880800Y-94632609D02*
X99595085Y-94870704D01*
X99595085Y-94870704D02*
X99595085Y-94251657D01*
X99928419Y-93823085D02*
X99928419Y-93632609D01*
X99928419Y-93632609D02*
X99880800Y-93537371D01*
X99880800Y-93537371D02*
X99833180Y-93489752D01*
X99833180Y-93489752D02*
X99690323Y-93394514D01*
X99690323Y-93394514D02*
X99499847Y-93346895D01*
X99499847Y-93346895D02*
X99118895Y-93346895D01*
X99118895Y-93346895D02*
X99023657Y-93394514D01*
X99023657Y-93394514D02*
X98976038Y-93442133D01*
X98976038Y-93442133D02*
X98928419Y-93537371D01*
X98928419Y-93537371D02*
X98928419Y-93727847D01*
X98928419Y-93727847D02*
X98976038Y-93823085D01*
X98976038Y-93823085D02*
X99023657Y-93870704D01*
X99023657Y-93870704D02*
X99118895Y-93918323D01*
X99118895Y-93918323D02*
X99356990Y-93918323D01*
X99356990Y-93918323D02*
X99452228Y-93870704D01*
X99452228Y-93870704D02*
X99499847Y-93823085D01*
X99499847Y-93823085D02*
X99547466Y-93727847D01*
X99547466Y-93727847D02*
X99547466Y-93537371D01*
X99547466Y-93537371D02*
X99499847Y-93442133D01*
X99499847Y-93442133D02*
X99452228Y-93394514D01*
X99452228Y-93394514D02*
X99356990Y-93346895D01*
X100248419Y-98680704D02*
X99248419Y-98680704D01*
X100248419Y-98109276D02*
X99676990Y-98537847D01*
X99248419Y-98109276D02*
X99819847Y-98680704D01*
X123739419Y-57725485D02*
X122739419Y-57725485D01*
X122739419Y-57725485D02*
X122739419Y-57487390D01*
X122739419Y-57487390D02*
X122787038Y-57344533D01*
X122787038Y-57344533D02*
X122882276Y-57249295D01*
X122882276Y-57249295D02*
X122977514Y-57201676D01*
X122977514Y-57201676D02*
X123167990Y-57154057D01*
X123167990Y-57154057D02*
X123310847Y-57154057D01*
X123310847Y-57154057D02*
X123501323Y-57201676D01*
X123501323Y-57201676D02*
X123596561Y-57249295D01*
X123596561Y-57249295D02*
X123691800Y-57344533D01*
X123691800Y-57344533D02*
X123739419Y-57487390D01*
X123739419Y-57487390D02*
X123739419Y-57725485D01*
X122834657Y-56773104D02*
X122787038Y-56725485D01*
X122787038Y-56725485D02*
X122739419Y-56630247D01*
X122739419Y-56630247D02*
X122739419Y-56392152D01*
X122739419Y-56392152D02*
X122787038Y-56296914D01*
X122787038Y-56296914D02*
X122834657Y-56249295D01*
X122834657Y-56249295D02*
X122929895Y-56201676D01*
X122929895Y-56201676D02*
X123025133Y-56201676D01*
X123025133Y-56201676D02*
X123167990Y-56249295D01*
X123167990Y-56249295D02*
X123739419Y-56820723D01*
X123739419Y-56820723D02*
X123739419Y-56201676D01*
X122739419Y-55868342D02*
X122739419Y-55249295D01*
X122739419Y-55249295D02*
X123120371Y-55582628D01*
X123120371Y-55582628D02*
X123120371Y-55439771D01*
X123120371Y-55439771D02*
X123167990Y-55344533D01*
X123167990Y-55344533D02*
X123215609Y-55296914D01*
X123215609Y-55296914D02*
X123310847Y-55249295D01*
X123310847Y-55249295D02*
X123548942Y-55249295D01*
X123548942Y-55249295D02*
X123644180Y-55296914D01*
X123644180Y-55296914D02*
X123691800Y-55344533D01*
X123691800Y-55344533D02*
X123739419Y-55439771D01*
X123739419Y-55439771D02*
X123739419Y-55725485D01*
X123739419Y-55725485D02*
X123691800Y-55820723D01*
X123691800Y-55820723D02*
X123644180Y-55868342D01*
X124059419Y-60583104D02*
X123059419Y-60583104D01*
X124059419Y-60011676D02*
X123487990Y-60440247D01*
X123059419Y-60011676D02*
X123630847Y-60583104D01*
X-16745480Y-114078185D02*
X-17745480Y-114078185D01*
X-17745480Y-114078185D02*
X-17745480Y-113840090D01*
X-17745480Y-113840090D02*
X-17697861Y-113697233D01*
X-17697861Y-113697233D02*
X-17602623Y-113601995D01*
X-17602623Y-113601995D02*
X-17507385Y-113554376D01*
X-17507385Y-113554376D02*
X-17316909Y-113506757D01*
X-17316909Y-113506757D02*
X-17174052Y-113506757D01*
X-17174052Y-113506757D02*
X-16983576Y-113554376D01*
X-16983576Y-113554376D02*
X-16888338Y-113601995D01*
X-16888338Y-113601995D02*
X-16793100Y-113697233D01*
X-16793100Y-113697233D02*
X-16745480Y-113840090D01*
X-16745480Y-113840090D02*
X-16745480Y-114078185D01*
X-16745480Y-112554376D02*
X-16745480Y-113125804D01*
X-16745480Y-112840090D02*
X-17745480Y-112840090D01*
X-17745480Y-112840090D02*
X-17602623Y-112935328D01*
X-17602623Y-112935328D02*
X-17507385Y-113030566D01*
X-17507385Y-113030566D02*
X-17459766Y-113125804D01*
X-17745480Y-112221042D02*
X-17745480Y-111601995D01*
X-17745480Y-111601995D02*
X-17364528Y-111935328D01*
X-17364528Y-111935328D02*
X-17364528Y-111792471D01*
X-17364528Y-111792471D02*
X-17316909Y-111697233D01*
X-17316909Y-111697233D02*
X-17269290Y-111649614D01*
X-17269290Y-111649614D02*
X-17174052Y-111601995D01*
X-17174052Y-111601995D02*
X-16935957Y-111601995D01*
X-16935957Y-111601995D02*
X-16840719Y-111649614D01*
X-16840719Y-111649614D02*
X-16793100Y-111697233D01*
X-16793100Y-111697233D02*
X-16745480Y-111792471D01*
X-16745480Y-111792471D02*
X-16745480Y-112078185D01*
X-16745480Y-112078185D02*
X-16793100Y-112173423D01*
X-16793100Y-112173423D02*
X-16840719Y-112221042D01*
X-16425480Y-116935804D02*
X-17425480Y-116935804D01*
X-16425480Y-116364376D02*
X-16996909Y-116792947D01*
X-17425480Y-116364376D02*
X-16854052Y-116935804D01*
X275336119Y-114078185D02*
X274336119Y-114078185D01*
X274336119Y-114078185D02*
X274336119Y-113840090D01*
X274336119Y-113840090D02*
X274383738Y-113697233D01*
X274383738Y-113697233D02*
X274478976Y-113601995D01*
X274478976Y-113601995D02*
X274574214Y-113554376D01*
X274574214Y-113554376D02*
X274764690Y-113506757D01*
X274764690Y-113506757D02*
X274907547Y-113506757D01*
X274907547Y-113506757D02*
X275098023Y-113554376D01*
X275098023Y-113554376D02*
X275193261Y-113601995D01*
X275193261Y-113601995D02*
X275288500Y-113697233D01*
X275288500Y-113697233D02*
X275336119Y-113840090D01*
X275336119Y-113840090D02*
X275336119Y-114078185D01*
X274336119Y-112649614D02*
X274336119Y-112840090D01*
X274336119Y-112840090D02*
X274383738Y-112935328D01*
X274383738Y-112935328D02*
X274431357Y-112982947D01*
X274431357Y-112982947D02*
X274574214Y-113078185D01*
X274574214Y-113078185D02*
X274764690Y-113125804D01*
X274764690Y-113125804D02*
X275145642Y-113125804D01*
X275145642Y-113125804D02*
X275240880Y-113078185D01*
X275240880Y-113078185D02*
X275288500Y-113030566D01*
X275288500Y-113030566D02*
X275336119Y-112935328D01*
X275336119Y-112935328D02*
X275336119Y-112744852D01*
X275336119Y-112744852D02*
X275288500Y-112649614D01*
X275288500Y-112649614D02*
X275240880Y-112601995D01*
X275240880Y-112601995D02*
X275145642Y-112554376D01*
X275145642Y-112554376D02*
X274907547Y-112554376D01*
X274907547Y-112554376D02*
X274812309Y-112601995D01*
X274812309Y-112601995D02*
X274764690Y-112649614D01*
X274764690Y-112649614D02*
X274717071Y-112744852D01*
X274717071Y-112744852D02*
X274717071Y-112935328D01*
X274717071Y-112935328D02*
X274764690Y-113030566D01*
X274764690Y-113030566D02*
X274812309Y-113078185D01*
X274812309Y-113078185D02*
X274907547Y-113125804D01*
X274764690Y-111982947D02*
X274717071Y-112078185D01*
X274717071Y-112078185D02*
X274669452Y-112125804D01*
X274669452Y-112125804D02*
X274574214Y-112173423D01*
X274574214Y-112173423D02*
X274526595Y-112173423D01*
X274526595Y-112173423D02*
X274431357Y-112125804D01*
X274431357Y-112125804D02*
X274383738Y-112078185D01*
X274383738Y-112078185D02*
X274336119Y-111982947D01*
X274336119Y-111982947D02*
X274336119Y-111792471D01*
X274336119Y-111792471D02*
X274383738Y-111697233D01*
X274383738Y-111697233D02*
X274431357Y-111649614D01*
X274431357Y-111649614D02*
X274526595Y-111601995D01*
X274526595Y-111601995D02*
X274574214Y-111601995D01*
X274574214Y-111601995D02*
X274669452Y-111649614D01*
X274669452Y-111649614D02*
X274717071Y-111697233D01*
X274717071Y-111697233D02*
X274764690Y-111792471D01*
X274764690Y-111792471D02*
X274764690Y-111982947D01*
X274764690Y-111982947D02*
X274812309Y-112078185D01*
X274812309Y-112078185D02*
X274859928Y-112125804D01*
X274859928Y-112125804D02*
X274955166Y-112173423D01*
X274955166Y-112173423D02*
X275145642Y-112173423D01*
X275145642Y-112173423D02*
X275240880Y-112125804D01*
X275240880Y-112125804D02*
X275288500Y-112078185D01*
X275288500Y-112078185D02*
X275336119Y-111982947D01*
X275336119Y-111982947D02*
X275336119Y-111792471D01*
X275336119Y-111792471D02*
X275288500Y-111697233D01*
X275288500Y-111697233D02*
X275240880Y-111649614D01*
X275240880Y-111649614D02*
X275145642Y-111601995D01*
X275145642Y-111601995D02*
X274955166Y-111601995D01*
X274955166Y-111601995D02*
X274859928Y-111649614D01*
X274859928Y-111649614D02*
X274812309Y-111697233D01*
X274812309Y-111697233D02*
X274764690Y-111792471D01*
X275656119Y-116935804D02*
X274656119Y-116935804D01*
X275656119Y-116364376D02*
X275084690Y-116792947D01*
X274656119Y-116364376D02*
X275227547Y-116935804D01*
X42782019Y-95823085D02*
X41782019Y-95823085D01*
X41782019Y-95823085D02*
X41782019Y-95584990D01*
X41782019Y-95584990D02*
X41829638Y-95442133D01*
X41829638Y-95442133D02*
X41924876Y-95346895D01*
X41924876Y-95346895D02*
X42020114Y-95299276D01*
X42020114Y-95299276D02*
X42210590Y-95251657D01*
X42210590Y-95251657D02*
X42353447Y-95251657D01*
X42353447Y-95251657D02*
X42543923Y-95299276D01*
X42543923Y-95299276D02*
X42639161Y-95346895D01*
X42639161Y-95346895D02*
X42734400Y-95442133D01*
X42734400Y-95442133D02*
X42782019Y-95584990D01*
X42782019Y-95584990D02*
X42782019Y-95823085D01*
X42115352Y-94394514D02*
X42782019Y-94394514D01*
X41734400Y-94632609D02*
X42448685Y-94870704D01*
X42448685Y-94870704D02*
X42448685Y-94251657D01*
X41782019Y-93442133D02*
X41782019Y-93632609D01*
X41782019Y-93632609D02*
X41829638Y-93727847D01*
X41829638Y-93727847D02*
X41877257Y-93775466D01*
X41877257Y-93775466D02*
X42020114Y-93870704D01*
X42020114Y-93870704D02*
X42210590Y-93918323D01*
X42210590Y-93918323D02*
X42591542Y-93918323D01*
X42591542Y-93918323D02*
X42686780Y-93870704D01*
X42686780Y-93870704D02*
X42734400Y-93823085D01*
X42734400Y-93823085D02*
X42782019Y-93727847D01*
X42782019Y-93727847D02*
X42782019Y-93537371D01*
X42782019Y-93537371D02*
X42734400Y-93442133D01*
X42734400Y-93442133D02*
X42686780Y-93394514D01*
X42686780Y-93394514D02*
X42591542Y-93346895D01*
X42591542Y-93346895D02*
X42353447Y-93346895D01*
X42353447Y-93346895D02*
X42258209Y-93394514D01*
X42258209Y-93394514D02*
X42210590Y-93442133D01*
X42210590Y-93442133D02*
X42162971Y-93537371D01*
X42162971Y-93537371D02*
X42162971Y-93727847D01*
X42162971Y-93727847D02*
X42210590Y-93823085D01*
X42210590Y-93823085D02*
X42258209Y-93870704D01*
X42258209Y-93870704D02*
X42353447Y-93918323D01*
X43102019Y-98680704D02*
X42102019Y-98680704D01*
X43102019Y-98109276D02*
X42530590Y-98537847D01*
X42102019Y-98109276D02*
X42673447Y-98680704D01*
X260555714Y-44834819D02*
X260555714Y-43834819D01*
X260555714Y-43834819D02*
X260793809Y-43834819D01*
X260793809Y-43834819D02*
X260936666Y-43882438D01*
X260936666Y-43882438D02*
X261031904Y-43977676D01*
X261031904Y-43977676D02*
X261079523Y-44072914D01*
X261079523Y-44072914D02*
X261127142Y-44263390D01*
X261127142Y-44263390D02*
X261127142Y-44406247D01*
X261127142Y-44406247D02*
X261079523Y-44596723D01*
X261079523Y-44596723D02*
X261031904Y-44691961D01*
X261031904Y-44691961D02*
X260936666Y-44787200D01*
X260936666Y-44787200D02*
X260793809Y-44834819D01*
X260793809Y-44834819D02*
X260555714Y-44834819D01*
X262079523Y-44834819D02*
X261508095Y-44834819D01*
X261793809Y-44834819D02*
X261793809Y-43834819D01*
X261793809Y-43834819D02*
X261698571Y-43977676D01*
X261698571Y-43977676D02*
X261603333Y-44072914D01*
X261603333Y-44072914D02*
X261508095Y-44120533D01*
X262984285Y-43834819D02*
X262508095Y-43834819D01*
X262508095Y-43834819D02*
X262460476Y-44311009D01*
X262460476Y-44311009D02*
X262508095Y-44263390D01*
X262508095Y-44263390D02*
X262603333Y-44215771D01*
X262603333Y-44215771D02*
X262841428Y-44215771D01*
X262841428Y-44215771D02*
X262936666Y-44263390D01*
X262936666Y-44263390D02*
X262984285Y-44311009D01*
X262984285Y-44311009D02*
X263031904Y-44406247D01*
X263031904Y-44406247D02*
X263031904Y-44644342D01*
X263031904Y-44644342D02*
X262984285Y-44739580D01*
X262984285Y-44739580D02*
X262936666Y-44787200D01*
X262936666Y-44787200D02*
X262841428Y-44834819D01*
X262841428Y-44834819D02*
X262603333Y-44834819D01*
X262603333Y-44834819D02*
X262508095Y-44787200D01*
X262508095Y-44787200D02*
X262460476Y-44739580D01*
X257698095Y-45154819D02*
X257698095Y-44154819D01*
X258269523Y-45154819D02*
X257840952Y-44583390D01*
X258269523Y-44154819D02*
X257698095Y-44726247D01*
X176123619Y-95823085D02*
X175123619Y-95823085D01*
X175123619Y-95823085D02*
X175123619Y-95584990D01*
X175123619Y-95584990D02*
X175171238Y-95442133D01*
X175171238Y-95442133D02*
X175266476Y-95346895D01*
X175266476Y-95346895D02*
X175361714Y-95299276D01*
X175361714Y-95299276D02*
X175552190Y-95251657D01*
X175552190Y-95251657D02*
X175695047Y-95251657D01*
X175695047Y-95251657D02*
X175885523Y-95299276D01*
X175885523Y-95299276D02*
X175980761Y-95346895D01*
X175980761Y-95346895D02*
X176076000Y-95442133D01*
X176076000Y-95442133D02*
X176123619Y-95584990D01*
X176123619Y-95584990D02*
X176123619Y-95823085D01*
X175123619Y-94346895D02*
X175123619Y-94823085D01*
X175123619Y-94823085D02*
X175599809Y-94870704D01*
X175599809Y-94870704D02*
X175552190Y-94823085D01*
X175552190Y-94823085D02*
X175504571Y-94727847D01*
X175504571Y-94727847D02*
X175504571Y-94489752D01*
X175504571Y-94489752D02*
X175552190Y-94394514D01*
X175552190Y-94394514D02*
X175599809Y-94346895D01*
X175599809Y-94346895D02*
X175695047Y-94299276D01*
X175695047Y-94299276D02*
X175933142Y-94299276D01*
X175933142Y-94299276D02*
X176028380Y-94346895D01*
X176028380Y-94346895D02*
X176076000Y-94394514D01*
X176076000Y-94394514D02*
X176123619Y-94489752D01*
X176123619Y-94489752D02*
X176123619Y-94727847D01*
X176123619Y-94727847D02*
X176076000Y-94823085D01*
X176076000Y-94823085D02*
X176028380Y-94870704D01*
X175123619Y-93965942D02*
X175123619Y-93346895D01*
X175123619Y-93346895D02*
X175504571Y-93680228D01*
X175504571Y-93680228D02*
X175504571Y-93537371D01*
X175504571Y-93537371D02*
X175552190Y-93442133D01*
X175552190Y-93442133D02*
X175599809Y-93394514D01*
X175599809Y-93394514D02*
X175695047Y-93346895D01*
X175695047Y-93346895D02*
X175933142Y-93346895D01*
X175933142Y-93346895D02*
X176028380Y-93394514D01*
X176028380Y-93394514D02*
X176076000Y-93442133D01*
X176076000Y-93442133D02*
X176123619Y-93537371D01*
X176123619Y-93537371D02*
X176123619Y-93823085D01*
X176123619Y-93823085D02*
X176076000Y-93918323D01*
X176076000Y-93918323D02*
X176028380Y-93965942D01*
X176443619Y-98680704D02*
X175443619Y-98680704D01*
X176443619Y-98109276D02*
X175872190Y-98537847D01*
X175443619Y-98109276D02*
X176015047Y-98680704D01*
X103103219Y-114078185D02*
X102103219Y-114078185D01*
X102103219Y-114078185D02*
X102103219Y-113840090D01*
X102103219Y-113840090D02*
X102150838Y-113697233D01*
X102150838Y-113697233D02*
X102246076Y-113601995D01*
X102246076Y-113601995D02*
X102341314Y-113554376D01*
X102341314Y-113554376D02*
X102531790Y-113506757D01*
X102531790Y-113506757D02*
X102674647Y-113506757D01*
X102674647Y-113506757D02*
X102865123Y-113554376D01*
X102865123Y-113554376D02*
X102960361Y-113601995D01*
X102960361Y-113601995D02*
X103055600Y-113697233D01*
X103055600Y-113697233D02*
X103103219Y-113840090D01*
X103103219Y-113840090D02*
X103103219Y-114078185D01*
X102103219Y-112649614D02*
X102103219Y-112840090D01*
X102103219Y-112840090D02*
X102150838Y-112935328D01*
X102150838Y-112935328D02*
X102198457Y-112982947D01*
X102198457Y-112982947D02*
X102341314Y-113078185D01*
X102341314Y-113078185D02*
X102531790Y-113125804D01*
X102531790Y-113125804D02*
X102912742Y-113125804D01*
X102912742Y-113125804D02*
X103007980Y-113078185D01*
X103007980Y-113078185D02*
X103055600Y-113030566D01*
X103055600Y-113030566D02*
X103103219Y-112935328D01*
X103103219Y-112935328D02*
X103103219Y-112744852D01*
X103103219Y-112744852D02*
X103055600Y-112649614D01*
X103055600Y-112649614D02*
X103007980Y-112601995D01*
X103007980Y-112601995D02*
X102912742Y-112554376D01*
X102912742Y-112554376D02*
X102674647Y-112554376D01*
X102674647Y-112554376D02*
X102579409Y-112601995D01*
X102579409Y-112601995D02*
X102531790Y-112649614D01*
X102531790Y-112649614D02*
X102484171Y-112744852D01*
X102484171Y-112744852D02*
X102484171Y-112935328D01*
X102484171Y-112935328D02*
X102531790Y-113030566D01*
X102531790Y-113030566D02*
X102579409Y-113078185D01*
X102579409Y-113078185D02*
X102674647Y-113125804D01*
X102103219Y-112221042D02*
X102103219Y-111601995D01*
X102103219Y-111601995D02*
X102484171Y-111935328D01*
X102484171Y-111935328D02*
X102484171Y-111792471D01*
X102484171Y-111792471D02*
X102531790Y-111697233D01*
X102531790Y-111697233D02*
X102579409Y-111649614D01*
X102579409Y-111649614D02*
X102674647Y-111601995D01*
X102674647Y-111601995D02*
X102912742Y-111601995D01*
X102912742Y-111601995D02*
X103007980Y-111649614D01*
X103007980Y-111649614D02*
X103055600Y-111697233D01*
X103055600Y-111697233D02*
X103103219Y-111792471D01*
X103103219Y-111792471D02*
X103103219Y-112078185D01*
X103103219Y-112078185D02*
X103055600Y-112173423D01*
X103055600Y-112173423D02*
X103007980Y-112221042D01*
X103423219Y-116935804D02*
X102423219Y-116935804D01*
X103423219Y-116364376D02*
X102851790Y-116792947D01*
X102423219Y-116364376D02*
X102994647Y-116935804D01*
X61830819Y-95664585D02*
X60830819Y-95664585D01*
X60830819Y-95664585D02*
X60830819Y-95426490D01*
X60830819Y-95426490D02*
X60878438Y-95283633D01*
X60878438Y-95283633D02*
X60973676Y-95188395D01*
X60973676Y-95188395D02*
X61068914Y-95140776D01*
X61068914Y-95140776D02*
X61259390Y-95093157D01*
X61259390Y-95093157D02*
X61402247Y-95093157D01*
X61402247Y-95093157D02*
X61592723Y-95140776D01*
X61592723Y-95140776D02*
X61687961Y-95188395D01*
X61687961Y-95188395D02*
X61783200Y-95283633D01*
X61783200Y-95283633D02*
X61830819Y-95426490D01*
X61830819Y-95426490D02*
X61830819Y-95664585D01*
X61164152Y-94236014D02*
X61830819Y-94236014D01*
X60783200Y-94474109D02*
X61497485Y-94712204D01*
X61497485Y-94712204D02*
X61497485Y-94093157D01*
X60830819Y-93807442D02*
X60830819Y-93140776D01*
X60830819Y-93140776D02*
X61830819Y-93569347D01*
X62150819Y-98522204D02*
X61150819Y-98522204D01*
X62150819Y-97950776D02*
X61579390Y-98379347D01*
X61150819Y-97950776D02*
X61722247Y-98522204D01*
X190410219Y-38676685D02*
X189410219Y-38676685D01*
X189410219Y-38676685D02*
X189410219Y-38438590D01*
X189410219Y-38438590D02*
X189457838Y-38295733D01*
X189457838Y-38295733D02*
X189553076Y-38200495D01*
X189553076Y-38200495D02*
X189648314Y-38152876D01*
X189648314Y-38152876D02*
X189838790Y-38105257D01*
X189838790Y-38105257D02*
X189981647Y-38105257D01*
X189981647Y-38105257D02*
X190172123Y-38152876D01*
X190172123Y-38152876D02*
X190267361Y-38200495D01*
X190267361Y-38200495D02*
X190362600Y-38295733D01*
X190362600Y-38295733D02*
X190410219Y-38438590D01*
X190410219Y-38438590D02*
X190410219Y-38676685D01*
X189410219Y-37248114D02*
X189410219Y-37438590D01*
X189410219Y-37438590D02*
X189457838Y-37533828D01*
X189457838Y-37533828D02*
X189505457Y-37581447D01*
X189505457Y-37581447D02*
X189648314Y-37676685D01*
X189648314Y-37676685D02*
X189838790Y-37724304D01*
X189838790Y-37724304D02*
X190219742Y-37724304D01*
X190219742Y-37724304D02*
X190314980Y-37676685D01*
X190314980Y-37676685D02*
X190362600Y-37629066D01*
X190362600Y-37629066D02*
X190410219Y-37533828D01*
X190410219Y-37533828D02*
X190410219Y-37343352D01*
X190410219Y-37343352D02*
X190362600Y-37248114D01*
X190362600Y-37248114D02*
X190314980Y-37200495D01*
X190314980Y-37200495D02*
X190219742Y-37152876D01*
X190219742Y-37152876D02*
X189981647Y-37152876D01*
X189981647Y-37152876D02*
X189886409Y-37200495D01*
X189886409Y-37200495D02*
X189838790Y-37248114D01*
X189838790Y-37248114D02*
X189791171Y-37343352D01*
X189791171Y-37343352D02*
X189791171Y-37533828D01*
X189791171Y-37533828D02*
X189838790Y-37629066D01*
X189838790Y-37629066D02*
X189886409Y-37676685D01*
X189886409Y-37676685D02*
X189981647Y-37724304D01*
X189505457Y-36771923D02*
X189457838Y-36724304D01*
X189457838Y-36724304D02*
X189410219Y-36629066D01*
X189410219Y-36629066D02*
X189410219Y-36390971D01*
X189410219Y-36390971D02*
X189457838Y-36295733D01*
X189457838Y-36295733D02*
X189505457Y-36248114D01*
X189505457Y-36248114D02*
X189600695Y-36200495D01*
X189600695Y-36200495D02*
X189695933Y-36200495D01*
X189695933Y-36200495D02*
X189838790Y-36248114D01*
X189838790Y-36248114D02*
X190410219Y-36819542D01*
X190410219Y-36819542D02*
X190410219Y-36200495D01*
X190730219Y-41534304D02*
X189730219Y-41534304D01*
X190730219Y-40962876D02*
X190158790Y-41391447D01*
X189730219Y-40962876D02*
X190301647Y-41534304D01*
X232595714Y-43834819D02*
X232595714Y-42834819D01*
X232595714Y-42834819D02*
X232833809Y-42834819D01*
X232833809Y-42834819D02*
X232976666Y-42882438D01*
X232976666Y-42882438D02*
X233071904Y-42977676D01*
X233071904Y-42977676D02*
X233119523Y-43072914D01*
X233119523Y-43072914D02*
X233167142Y-43263390D01*
X233167142Y-43263390D02*
X233167142Y-43406247D01*
X233167142Y-43406247D02*
X233119523Y-43596723D01*
X233119523Y-43596723D02*
X233071904Y-43691961D01*
X233071904Y-43691961D02*
X232976666Y-43787200D01*
X232976666Y-43787200D02*
X232833809Y-43834819D01*
X232833809Y-43834819D02*
X232595714Y-43834819D01*
X234119523Y-43834819D02*
X233548095Y-43834819D01*
X233833809Y-43834819D02*
X233833809Y-42834819D01*
X233833809Y-42834819D02*
X233738571Y-42977676D01*
X233738571Y-42977676D02*
X233643333Y-43072914D01*
X233643333Y-43072914D02*
X233548095Y-43120533D01*
X234976666Y-43168152D02*
X234976666Y-43834819D01*
X234738571Y-42787200D02*
X234500476Y-43501485D01*
X234500476Y-43501485D02*
X235119523Y-43501485D01*
X229738095Y-44154819D02*
X229738095Y-43154819D01*
X230309523Y-44154819D02*
X229880952Y-43583390D01*
X230309523Y-43154819D02*
X229738095Y-43726247D01*
X199934619Y-57725485D02*
X198934619Y-57725485D01*
X198934619Y-57725485D02*
X198934619Y-57487390D01*
X198934619Y-57487390D02*
X198982238Y-57344533D01*
X198982238Y-57344533D02*
X199077476Y-57249295D01*
X199077476Y-57249295D02*
X199172714Y-57201676D01*
X199172714Y-57201676D02*
X199363190Y-57154057D01*
X199363190Y-57154057D02*
X199506047Y-57154057D01*
X199506047Y-57154057D02*
X199696523Y-57201676D01*
X199696523Y-57201676D02*
X199791761Y-57249295D01*
X199791761Y-57249295D02*
X199887000Y-57344533D01*
X199887000Y-57344533D02*
X199934619Y-57487390D01*
X199934619Y-57487390D02*
X199934619Y-57725485D01*
X199029857Y-56773104D02*
X198982238Y-56725485D01*
X198982238Y-56725485D02*
X198934619Y-56630247D01*
X198934619Y-56630247D02*
X198934619Y-56392152D01*
X198934619Y-56392152D02*
X198982238Y-56296914D01*
X198982238Y-56296914D02*
X199029857Y-56249295D01*
X199029857Y-56249295D02*
X199125095Y-56201676D01*
X199125095Y-56201676D02*
X199220333Y-56201676D01*
X199220333Y-56201676D02*
X199363190Y-56249295D01*
X199363190Y-56249295D02*
X199934619Y-56820723D01*
X199934619Y-56820723D02*
X199934619Y-56201676D01*
X199363190Y-55630247D02*
X199315571Y-55725485D01*
X199315571Y-55725485D02*
X199267952Y-55773104D01*
X199267952Y-55773104D02*
X199172714Y-55820723D01*
X199172714Y-55820723D02*
X199125095Y-55820723D01*
X199125095Y-55820723D02*
X199029857Y-55773104D01*
X199029857Y-55773104D02*
X198982238Y-55725485D01*
X198982238Y-55725485D02*
X198934619Y-55630247D01*
X198934619Y-55630247D02*
X198934619Y-55439771D01*
X198934619Y-55439771D02*
X198982238Y-55344533D01*
X198982238Y-55344533D02*
X199029857Y-55296914D01*
X199029857Y-55296914D02*
X199125095Y-55249295D01*
X199125095Y-55249295D02*
X199172714Y-55249295D01*
X199172714Y-55249295D02*
X199267952Y-55296914D01*
X199267952Y-55296914D02*
X199315571Y-55344533D01*
X199315571Y-55344533D02*
X199363190Y-55439771D01*
X199363190Y-55439771D02*
X199363190Y-55630247D01*
X199363190Y-55630247D02*
X199410809Y-55725485D01*
X199410809Y-55725485D02*
X199458428Y-55773104D01*
X199458428Y-55773104D02*
X199553666Y-55820723D01*
X199553666Y-55820723D02*
X199744142Y-55820723D01*
X199744142Y-55820723D02*
X199839380Y-55773104D01*
X199839380Y-55773104D02*
X199887000Y-55725485D01*
X199887000Y-55725485D02*
X199934619Y-55630247D01*
X199934619Y-55630247D02*
X199934619Y-55439771D01*
X199934619Y-55439771D02*
X199887000Y-55344533D01*
X199887000Y-55344533D02*
X199839380Y-55296914D01*
X199839380Y-55296914D02*
X199744142Y-55249295D01*
X199744142Y-55249295D02*
X199553666Y-55249295D01*
X199553666Y-55249295D02*
X199458428Y-55296914D01*
X199458428Y-55296914D02*
X199410809Y-55344533D01*
X199410809Y-55344533D02*
X199363190Y-55439771D01*
X200254619Y-60583104D02*
X199254619Y-60583104D01*
X200254619Y-60011676D02*
X199683190Y-60440247D01*
X199254619Y-60011676D02*
X199826047Y-60583104D01*
X76117419Y-37406794D02*
X75117419Y-37406794D01*
X75117419Y-37406794D02*
X75117419Y-37168699D01*
X75117419Y-37168699D02*
X75165038Y-37025842D01*
X75165038Y-37025842D02*
X75260276Y-36930604D01*
X75260276Y-36930604D02*
X75355514Y-36882985D01*
X75355514Y-36882985D02*
X75545990Y-36835366D01*
X75545990Y-36835366D02*
X75688847Y-36835366D01*
X75688847Y-36835366D02*
X75879323Y-36882985D01*
X75879323Y-36882985D02*
X75974561Y-36930604D01*
X75974561Y-36930604D02*
X76069800Y-37025842D01*
X76069800Y-37025842D02*
X76117419Y-37168699D01*
X76117419Y-37168699D02*
X76117419Y-37406794D01*
X75117419Y-35978223D02*
X75117419Y-36168699D01*
X75117419Y-36168699D02*
X75165038Y-36263937D01*
X75165038Y-36263937D02*
X75212657Y-36311556D01*
X75212657Y-36311556D02*
X75355514Y-36406794D01*
X75355514Y-36406794D02*
X75545990Y-36454413D01*
X75545990Y-36454413D02*
X75926942Y-36454413D01*
X75926942Y-36454413D02*
X76022180Y-36406794D01*
X76022180Y-36406794D02*
X76069800Y-36359175D01*
X76069800Y-36359175D02*
X76117419Y-36263937D01*
X76117419Y-36263937D02*
X76117419Y-36073461D01*
X76117419Y-36073461D02*
X76069800Y-35978223D01*
X76069800Y-35978223D02*
X76022180Y-35930604D01*
X76022180Y-35930604D02*
X75926942Y-35882985D01*
X75926942Y-35882985D02*
X75688847Y-35882985D01*
X75688847Y-35882985D02*
X75593609Y-35930604D01*
X75593609Y-35930604D02*
X75545990Y-35978223D01*
X75545990Y-35978223D02*
X75498371Y-36073461D01*
X75498371Y-36073461D02*
X75498371Y-36263937D01*
X75498371Y-36263937D02*
X75545990Y-36359175D01*
X75545990Y-36359175D02*
X75593609Y-36406794D01*
X75593609Y-36406794D02*
X75688847Y-36454413D01*
X76437419Y-40740604D02*
X75437419Y-40740604D01*
X76437419Y-40169176D02*
X75865990Y-40597747D01*
X75437419Y-40169176D02*
X76008847Y-40740604D01*
X28495419Y-57725485D02*
X27495419Y-57725485D01*
X27495419Y-57725485D02*
X27495419Y-57487390D01*
X27495419Y-57487390D02*
X27543038Y-57344533D01*
X27543038Y-57344533D02*
X27638276Y-57249295D01*
X27638276Y-57249295D02*
X27733514Y-57201676D01*
X27733514Y-57201676D02*
X27923990Y-57154057D01*
X27923990Y-57154057D02*
X28066847Y-57154057D01*
X28066847Y-57154057D02*
X28257323Y-57201676D01*
X28257323Y-57201676D02*
X28352561Y-57249295D01*
X28352561Y-57249295D02*
X28447800Y-57344533D01*
X28447800Y-57344533D02*
X28495419Y-57487390D01*
X28495419Y-57487390D02*
X28495419Y-57725485D01*
X28495419Y-56201676D02*
X28495419Y-56773104D01*
X28495419Y-56487390D02*
X27495419Y-56487390D01*
X27495419Y-56487390D02*
X27638276Y-56582628D01*
X27638276Y-56582628D02*
X27733514Y-56677866D01*
X27733514Y-56677866D02*
X27781133Y-56773104D01*
X27923990Y-55630247D02*
X27876371Y-55725485D01*
X27876371Y-55725485D02*
X27828752Y-55773104D01*
X27828752Y-55773104D02*
X27733514Y-55820723D01*
X27733514Y-55820723D02*
X27685895Y-55820723D01*
X27685895Y-55820723D02*
X27590657Y-55773104D01*
X27590657Y-55773104D02*
X27543038Y-55725485D01*
X27543038Y-55725485D02*
X27495419Y-55630247D01*
X27495419Y-55630247D02*
X27495419Y-55439771D01*
X27495419Y-55439771D02*
X27543038Y-55344533D01*
X27543038Y-55344533D02*
X27590657Y-55296914D01*
X27590657Y-55296914D02*
X27685895Y-55249295D01*
X27685895Y-55249295D02*
X27733514Y-55249295D01*
X27733514Y-55249295D02*
X27828752Y-55296914D01*
X27828752Y-55296914D02*
X27876371Y-55344533D01*
X27876371Y-55344533D02*
X27923990Y-55439771D01*
X27923990Y-55439771D02*
X27923990Y-55630247D01*
X27923990Y-55630247D02*
X27971609Y-55725485D01*
X27971609Y-55725485D02*
X28019228Y-55773104D01*
X28019228Y-55773104D02*
X28114466Y-55820723D01*
X28114466Y-55820723D02*
X28304942Y-55820723D01*
X28304942Y-55820723D02*
X28400180Y-55773104D01*
X28400180Y-55773104D02*
X28447800Y-55725485D01*
X28447800Y-55725485D02*
X28495419Y-55630247D01*
X28495419Y-55630247D02*
X28495419Y-55439771D01*
X28495419Y-55439771D02*
X28447800Y-55344533D01*
X28447800Y-55344533D02*
X28400180Y-55296914D01*
X28400180Y-55296914D02*
X28304942Y-55249295D01*
X28304942Y-55249295D02*
X28114466Y-55249295D01*
X28114466Y-55249295D02*
X28019228Y-55296914D01*
X28019228Y-55296914D02*
X27971609Y-55344533D01*
X27971609Y-55344533D02*
X27923990Y-55439771D01*
X28815419Y-60583104D02*
X27815419Y-60583104D01*
X28815419Y-60011676D02*
X28243990Y-60440247D01*
X27815419Y-60011676D02*
X28386847Y-60583104D01*
X142788219Y-57725485D02*
X141788219Y-57725485D01*
X141788219Y-57725485D02*
X141788219Y-57487390D01*
X141788219Y-57487390D02*
X141835838Y-57344533D01*
X141835838Y-57344533D02*
X141931076Y-57249295D01*
X141931076Y-57249295D02*
X142026314Y-57201676D01*
X142026314Y-57201676D02*
X142216790Y-57154057D01*
X142216790Y-57154057D02*
X142359647Y-57154057D01*
X142359647Y-57154057D02*
X142550123Y-57201676D01*
X142550123Y-57201676D02*
X142645361Y-57249295D01*
X142645361Y-57249295D02*
X142740600Y-57344533D01*
X142740600Y-57344533D02*
X142788219Y-57487390D01*
X142788219Y-57487390D02*
X142788219Y-57725485D01*
X141883457Y-56773104D02*
X141835838Y-56725485D01*
X141835838Y-56725485D02*
X141788219Y-56630247D01*
X141788219Y-56630247D02*
X141788219Y-56392152D01*
X141788219Y-56392152D02*
X141835838Y-56296914D01*
X141835838Y-56296914D02*
X141883457Y-56249295D01*
X141883457Y-56249295D02*
X141978695Y-56201676D01*
X141978695Y-56201676D02*
X142073933Y-56201676D01*
X142073933Y-56201676D02*
X142216790Y-56249295D01*
X142216790Y-56249295D02*
X142788219Y-56820723D01*
X142788219Y-56820723D02*
X142788219Y-56201676D01*
X142121552Y-55344533D02*
X142788219Y-55344533D01*
X141740600Y-55582628D02*
X142454885Y-55820723D01*
X142454885Y-55820723D02*
X142454885Y-55201676D01*
X143108219Y-60583104D02*
X142108219Y-60583104D01*
X143108219Y-60011676D02*
X142536790Y-60440247D01*
X142108219Y-60011676D02*
X142679647Y-60583104D01*
X-77780Y-37248294D02*
X-1077780Y-37248294D01*
X-1077780Y-37248294D02*
X-1077780Y-37010199D01*
X-1077780Y-37010199D02*
X-1030161Y-36867342D01*
X-1030161Y-36867342D02*
X-934923Y-36772104D01*
X-934923Y-36772104D02*
X-839685Y-36724485D01*
X-839685Y-36724485D02*
X-649209Y-36676866D01*
X-649209Y-36676866D02*
X-506352Y-36676866D01*
X-506352Y-36676866D02*
X-315876Y-36724485D01*
X-315876Y-36724485D02*
X-220638Y-36772104D01*
X-220638Y-36772104D02*
X-125400Y-36867342D01*
X-125400Y-36867342D02*
X-77780Y-37010199D01*
X-77780Y-37010199D02*
X-77780Y-37248294D01*
X-982542Y-36295913D02*
X-1030161Y-36248294D01*
X-1030161Y-36248294D02*
X-1077780Y-36153056D01*
X-1077780Y-36153056D02*
X-1077780Y-35914961D01*
X-1077780Y-35914961D02*
X-1030161Y-35819723D01*
X-1030161Y-35819723D02*
X-982542Y-35772104D01*
X-982542Y-35772104D02*
X-887304Y-35724485D01*
X-887304Y-35724485D02*
X-792066Y-35724485D01*
X-792066Y-35724485D02*
X-649209Y-35772104D01*
X-649209Y-35772104D02*
X-77780Y-36343532D01*
X-77780Y-36343532D02*
X-77780Y-35724485D01*
X242219Y-40582104D02*
X-757780Y-40582104D01*
X242219Y-40010676D02*
X-329209Y-40439247D01*
X-757780Y-40010676D02*
X-186352Y-40582104D01*
X85641819Y-57725485D02*
X84641819Y-57725485D01*
X84641819Y-57725485D02*
X84641819Y-57487390D01*
X84641819Y-57487390D02*
X84689438Y-57344533D01*
X84689438Y-57344533D02*
X84784676Y-57249295D01*
X84784676Y-57249295D02*
X84879914Y-57201676D01*
X84879914Y-57201676D02*
X85070390Y-57154057D01*
X85070390Y-57154057D02*
X85213247Y-57154057D01*
X85213247Y-57154057D02*
X85403723Y-57201676D01*
X85403723Y-57201676D02*
X85498961Y-57249295D01*
X85498961Y-57249295D02*
X85594200Y-57344533D01*
X85594200Y-57344533D02*
X85641819Y-57487390D01*
X85641819Y-57487390D02*
X85641819Y-57725485D01*
X84737057Y-56773104D02*
X84689438Y-56725485D01*
X84689438Y-56725485D02*
X84641819Y-56630247D01*
X84641819Y-56630247D02*
X84641819Y-56392152D01*
X84641819Y-56392152D02*
X84689438Y-56296914D01*
X84689438Y-56296914D02*
X84737057Y-56249295D01*
X84737057Y-56249295D02*
X84832295Y-56201676D01*
X84832295Y-56201676D02*
X84927533Y-56201676D01*
X84927533Y-56201676D02*
X85070390Y-56249295D01*
X85070390Y-56249295D02*
X85641819Y-56820723D01*
X85641819Y-56820723D02*
X85641819Y-56201676D01*
X85641819Y-55249295D02*
X85641819Y-55820723D01*
X85641819Y-55535009D02*
X84641819Y-55535009D01*
X84641819Y-55535009D02*
X84784676Y-55630247D01*
X84784676Y-55630247D02*
X84879914Y-55725485D01*
X84879914Y-55725485D02*
X84927533Y-55820723D01*
X85961819Y-60583104D02*
X84961819Y-60583104D01*
X85961819Y-60011676D02*
X85390390Y-60440247D01*
X84961819Y-60011676D02*
X85533247Y-60583104D01*
X238032219Y-95029385D02*
X237032219Y-95029385D01*
X237032219Y-95029385D02*
X237032219Y-94791290D01*
X237032219Y-94791290D02*
X237079838Y-94648433D01*
X237079838Y-94648433D02*
X237175076Y-94553195D01*
X237175076Y-94553195D02*
X237270314Y-94505576D01*
X237270314Y-94505576D02*
X237460790Y-94457957D01*
X237460790Y-94457957D02*
X237603647Y-94457957D01*
X237603647Y-94457957D02*
X237794123Y-94505576D01*
X237794123Y-94505576D02*
X237889361Y-94553195D01*
X237889361Y-94553195D02*
X237984600Y-94648433D01*
X237984600Y-94648433D02*
X238032219Y-94791290D01*
X238032219Y-94791290D02*
X238032219Y-95029385D01*
X237032219Y-93553195D02*
X237032219Y-94029385D01*
X237032219Y-94029385D02*
X237508409Y-94077004D01*
X237508409Y-94077004D02*
X237460790Y-94029385D01*
X237460790Y-94029385D02*
X237413171Y-93934147D01*
X237413171Y-93934147D02*
X237413171Y-93696052D01*
X237413171Y-93696052D02*
X237460790Y-93600814D01*
X237460790Y-93600814D02*
X237508409Y-93553195D01*
X237508409Y-93553195D02*
X237603647Y-93505576D01*
X237603647Y-93505576D02*
X237841742Y-93505576D01*
X237841742Y-93505576D02*
X237936980Y-93553195D01*
X237936980Y-93553195D02*
X237984600Y-93600814D01*
X237984600Y-93600814D02*
X238032219Y-93696052D01*
X238032219Y-93696052D02*
X238032219Y-93934147D01*
X238032219Y-93934147D02*
X237984600Y-94029385D01*
X237984600Y-94029385D02*
X237936980Y-94077004D01*
X237032219Y-92648433D02*
X237032219Y-92838909D01*
X237032219Y-92838909D02*
X237079838Y-92934147D01*
X237079838Y-92934147D02*
X237127457Y-92981766D01*
X237127457Y-92981766D02*
X237270314Y-93077004D01*
X237270314Y-93077004D02*
X237460790Y-93124623D01*
X237460790Y-93124623D02*
X237841742Y-93124623D01*
X237841742Y-93124623D02*
X237936980Y-93077004D01*
X237936980Y-93077004D02*
X237984600Y-93029385D01*
X237984600Y-93029385D02*
X238032219Y-92934147D01*
X238032219Y-92934147D02*
X238032219Y-92743671D01*
X238032219Y-92743671D02*
X237984600Y-92648433D01*
X237984600Y-92648433D02*
X237936980Y-92600814D01*
X237936980Y-92600814D02*
X237841742Y-92553195D01*
X237841742Y-92553195D02*
X237603647Y-92553195D01*
X237603647Y-92553195D02*
X237508409Y-92600814D01*
X237508409Y-92600814D02*
X237460790Y-92648433D01*
X237460790Y-92648433D02*
X237413171Y-92743671D01*
X237413171Y-92743671D02*
X237413171Y-92934147D01*
X237413171Y-92934147D02*
X237460790Y-93029385D01*
X237460790Y-93029385D02*
X237508409Y-93077004D01*
X237508409Y-93077004D02*
X237603647Y-93124623D01*
X238352219Y-97887004D02*
X237352219Y-97887004D01*
X238352219Y-97315576D02*
X237780790Y-97744147D01*
X237352219Y-97315576D02*
X237923647Y-97887004D01*
X257081019Y-113919685D02*
X256081019Y-113919685D01*
X256081019Y-113919685D02*
X256081019Y-113681590D01*
X256081019Y-113681590D02*
X256128638Y-113538733D01*
X256128638Y-113538733D02*
X256223876Y-113443495D01*
X256223876Y-113443495D02*
X256319114Y-113395876D01*
X256319114Y-113395876D02*
X256509590Y-113348257D01*
X256509590Y-113348257D02*
X256652447Y-113348257D01*
X256652447Y-113348257D02*
X256842923Y-113395876D01*
X256842923Y-113395876D02*
X256938161Y-113443495D01*
X256938161Y-113443495D02*
X257033400Y-113538733D01*
X257033400Y-113538733D02*
X257081019Y-113681590D01*
X257081019Y-113681590D02*
X257081019Y-113919685D01*
X256081019Y-112491114D02*
X256081019Y-112681590D01*
X256081019Y-112681590D02*
X256128638Y-112776828D01*
X256128638Y-112776828D02*
X256176257Y-112824447D01*
X256176257Y-112824447D02*
X256319114Y-112919685D01*
X256319114Y-112919685D02*
X256509590Y-112967304D01*
X256509590Y-112967304D02*
X256890542Y-112967304D01*
X256890542Y-112967304D02*
X256985780Y-112919685D01*
X256985780Y-112919685D02*
X257033400Y-112872066D01*
X257033400Y-112872066D02*
X257081019Y-112776828D01*
X257081019Y-112776828D02*
X257081019Y-112586352D01*
X257081019Y-112586352D02*
X257033400Y-112491114D01*
X257033400Y-112491114D02*
X256985780Y-112443495D01*
X256985780Y-112443495D02*
X256890542Y-112395876D01*
X256890542Y-112395876D02*
X256652447Y-112395876D01*
X256652447Y-112395876D02*
X256557209Y-112443495D01*
X256557209Y-112443495D02*
X256509590Y-112491114D01*
X256509590Y-112491114D02*
X256461971Y-112586352D01*
X256461971Y-112586352D02*
X256461971Y-112776828D01*
X256461971Y-112776828D02*
X256509590Y-112872066D01*
X256509590Y-112872066D02*
X256557209Y-112919685D01*
X256557209Y-112919685D02*
X256652447Y-112967304D01*
X256081019Y-112062542D02*
X256081019Y-111395876D01*
X256081019Y-111395876D02*
X257081019Y-111824447D01*
X257401019Y-116777304D02*
X256401019Y-116777304D01*
X257401019Y-116205876D02*
X256829590Y-116634447D01*
X256401019Y-116205876D02*
X256972447Y-116777304D01*
X242794419Y-57725485D02*
X241794419Y-57725485D01*
X241794419Y-57725485D02*
X241794419Y-57487390D01*
X241794419Y-57487390D02*
X241842038Y-57344533D01*
X241842038Y-57344533D02*
X241937276Y-57249295D01*
X241937276Y-57249295D02*
X242032514Y-57201676D01*
X242032514Y-57201676D02*
X242222990Y-57154057D01*
X242222990Y-57154057D02*
X242365847Y-57154057D01*
X242365847Y-57154057D02*
X242556323Y-57201676D01*
X242556323Y-57201676D02*
X242651561Y-57249295D01*
X242651561Y-57249295D02*
X242746800Y-57344533D01*
X242746800Y-57344533D02*
X242794419Y-57487390D01*
X242794419Y-57487390D02*
X242794419Y-57725485D01*
X241889657Y-56773104D02*
X241842038Y-56725485D01*
X241842038Y-56725485D02*
X241794419Y-56630247D01*
X241794419Y-56630247D02*
X241794419Y-56392152D01*
X241794419Y-56392152D02*
X241842038Y-56296914D01*
X241842038Y-56296914D02*
X241889657Y-56249295D01*
X241889657Y-56249295D02*
X241984895Y-56201676D01*
X241984895Y-56201676D02*
X242080133Y-56201676D01*
X242080133Y-56201676D02*
X242222990Y-56249295D01*
X242222990Y-56249295D02*
X242794419Y-56820723D01*
X242794419Y-56820723D02*
X242794419Y-56201676D01*
X242794419Y-55725485D02*
X242794419Y-55535009D01*
X242794419Y-55535009D02*
X242746800Y-55439771D01*
X242746800Y-55439771D02*
X242699180Y-55392152D01*
X242699180Y-55392152D02*
X242556323Y-55296914D01*
X242556323Y-55296914D02*
X242365847Y-55249295D01*
X242365847Y-55249295D02*
X241984895Y-55249295D01*
X241984895Y-55249295D02*
X241889657Y-55296914D01*
X241889657Y-55296914D02*
X241842038Y-55344533D01*
X241842038Y-55344533D02*
X241794419Y-55439771D01*
X241794419Y-55439771D02*
X241794419Y-55630247D01*
X241794419Y-55630247D02*
X241842038Y-55725485D01*
X241842038Y-55725485D02*
X241889657Y-55773104D01*
X241889657Y-55773104D02*
X241984895Y-55820723D01*
X241984895Y-55820723D02*
X242222990Y-55820723D01*
X242222990Y-55820723D02*
X242318228Y-55773104D01*
X242318228Y-55773104D02*
X242365847Y-55725485D01*
X242365847Y-55725485D02*
X242413466Y-55630247D01*
X242413466Y-55630247D02*
X242413466Y-55439771D01*
X242413466Y-55439771D02*
X242365847Y-55344533D01*
X242365847Y-55344533D02*
X242318228Y-55296914D01*
X242318228Y-55296914D02*
X242222990Y-55249295D01*
X243114419Y-60583104D02*
X242114419Y-60583104D01*
X243114419Y-60011676D02*
X242542990Y-60440247D01*
X242114419Y-60011676D02*
X242685847Y-60583104D01*
X166599219Y-76774285D02*
X165599219Y-76774285D01*
X165599219Y-76774285D02*
X165599219Y-76536190D01*
X165599219Y-76536190D02*
X165646838Y-76393333D01*
X165646838Y-76393333D02*
X165742076Y-76298095D01*
X165742076Y-76298095D02*
X165837314Y-76250476D01*
X165837314Y-76250476D02*
X166027790Y-76202857D01*
X166027790Y-76202857D02*
X166170647Y-76202857D01*
X166170647Y-76202857D02*
X166361123Y-76250476D01*
X166361123Y-76250476D02*
X166456361Y-76298095D01*
X166456361Y-76298095D02*
X166551600Y-76393333D01*
X166551600Y-76393333D02*
X166599219Y-76536190D01*
X166599219Y-76536190D02*
X166599219Y-76774285D01*
X165932552Y-75345714D02*
X166599219Y-75345714D01*
X165551600Y-75583809D02*
X166265885Y-75821904D01*
X166265885Y-75821904D02*
X166265885Y-75202857D01*
X165599219Y-74631428D02*
X165599219Y-74536190D01*
X165599219Y-74536190D02*
X165646838Y-74440952D01*
X165646838Y-74440952D02*
X165694457Y-74393333D01*
X165694457Y-74393333D02*
X165789695Y-74345714D01*
X165789695Y-74345714D02*
X165980171Y-74298095D01*
X165980171Y-74298095D02*
X166218266Y-74298095D01*
X166218266Y-74298095D02*
X166408742Y-74345714D01*
X166408742Y-74345714D02*
X166503980Y-74393333D01*
X166503980Y-74393333D02*
X166551600Y-74440952D01*
X166551600Y-74440952D02*
X166599219Y-74536190D01*
X166599219Y-74536190D02*
X166599219Y-74631428D01*
X166599219Y-74631428D02*
X166551600Y-74726666D01*
X166551600Y-74726666D02*
X166503980Y-74774285D01*
X166503980Y-74774285D02*
X166408742Y-74821904D01*
X166408742Y-74821904D02*
X166218266Y-74869523D01*
X166218266Y-74869523D02*
X165980171Y-74869523D01*
X165980171Y-74869523D02*
X165789695Y-74821904D01*
X165789695Y-74821904D02*
X165694457Y-74774285D01*
X165694457Y-74774285D02*
X165646838Y-74726666D01*
X165646838Y-74726666D02*
X165599219Y-74631428D01*
X166919219Y-79631904D02*
X165919219Y-79631904D01*
X166919219Y-79060476D02*
X166347790Y-79489047D01*
X165919219Y-79060476D02*
X166490647Y-79631904D01*
X195172419Y-95029385D02*
X194172419Y-95029385D01*
X194172419Y-95029385D02*
X194172419Y-94791290D01*
X194172419Y-94791290D02*
X194220038Y-94648433D01*
X194220038Y-94648433D02*
X194315276Y-94553195D01*
X194315276Y-94553195D02*
X194410514Y-94505576D01*
X194410514Y-94505576D02*
X194600990Y-94457957D01*
X194600990Y-94457957D02*
X194743847Y-94457957D01*
X194743847Y-94457957D02*
X194934323Y-94505576D01*
X194934323Y-94505576D02*
X195029561Y-94553195D01*
X195029561Y-94553195D02*
X195124800Y-94648433D01*
X195124800Y-94648433D02*
X195172419Y-94791290D01*
X195172419Y-94791290D02*
X195172419Y-95029385D01*
X195172419Y-93505576D02*
X195172419Y-94077004D01*
X195172419Y-93791290D02*
X194172419Y-93791290D01*
X194172419Y-93791290D02*
X194315276Y-93886528D01*
X194315276Y-93886528D02*
X194410514Y-93981766D01*
X194410514Y-93981766D02*
X194458133Y-94077004D01*
X195172419Y-93029385D02*
X195172419Y-92838909D01*
X195172419Y-92838909D02*
X195124800Y-92743671D01*
X195124800Y-92743671D02*
X195077180Y-92696052D01*
X195077180Y-92696052D02*
X194934323Y-92600814D01*
X194934323Y-92600814D02*
X194743847Y-92553195D01*
X194743847Y-92553195D02*
X194362895Y-92553195D01*
X194362895Y-92553195D02*
X194267657Y-92600814D01*
X194267657Y-92600814D02*
X194220038Y-92648433D01*
X194220038Y-92648433D02*
X194172419Y-92743671D01*
X194172419Y-92743671D02*
X194172419Y-92934147D01*
X194172419Y-92934147D02*
X194220038Y-93029385D01*
X194220038Y-93029385D02*
X194267657Y-93077004D01*
X194267657Y-93077004D02*
X194362895Y-93124623D01*
X194362895Y-93124623D02*
X194600990Y-93124623D01*
X194600990Y-93124623D02*
X194696228Y-93077004D01*
X194696228Y-93077004D02*
X194743847Y-93029385D01*
X194743847Y-93029385D02*
X194791466Y-92934147D01*
X194791466Y-92934147D02*
X194791466Y-92743671D01*
X194791466Y-92743671D02*
X194743847Y-92648433D01*
X194743847Y-92648433D02*
X194696228Y-92600814D01*
X194696228Y-92600814D02*
X194600990Y-92553195D01*
X195492419Y-97887004D02*
X194492419Y-97887004D01*
X195492419Y-97315576D02*
X194920990Y-97744147D01*
X194492419Y-97315576D02*
X195063847Y-97887004D01*
X-13570680Y-57566985D02*
X-14570680Y-57566985D01*
X-14570680Y-57566985D02*
X-14570680Y-57328890D01*
X-14570680Y-57328890D02*
X-14523061Y-57186033D01*
X-14523061Y-57186033D02*
X-14427823Y-57090795D01*
X-14427823Y-57090795D02*
X-14332585Y-57043176D01*
X-14332585Y-57043176D02*
X-14142109Y-56995557D01*
X-14142109Y-56995557D02*
X-13999252Y-56995557D01*
X-13999252Y-56995557D02*
X-13808776Y-57043176D01*
X-13808776Y-57043176D02*
X-13713538Y-57090795D01*
X-13713538Y-57090795D02*
X-13618300Y-57186033D01*
X-13618300Y-57186033D02*
X-13570680Y-57328890D01*
X-13570680Y-57328890D02*
X-13570680Y-57566985D01*
X-13570680Y-56043176D02*
X-13570680Y-56614604D01*
X-13570680Y-56328890D02*
X-14570680Y-56328890D01*
X-14570680Y-56328890D02*
X-14427823Y-56424128D01*
X-14427823Y-56424128D02*
X-14332585Y-56519366D01*
X-14332585Y-56519366D02*
X-14284966Y-56614604D01*
X-14570680Y-55186033D02*
X-14570680Y-55376509D01*
X-14570680Y-55376509D02*
X-14523061Y-55471747D01*
X-14523061Y-55471747D02*
X-14475442Y-55519366D01*
X-14475442Y-55519366D02*
X-14332585Y-55614604D01*
X-14332585Y-55614604D02*
X-14142109Y-55662223D01*
X-14142109Y-55662223D02*
X-13761157Y-55662223D01*
X-13761157Y-55662223D02*
X-13665919Y-55614604D01*
X-13665919Y-55614604D02*
X-13618300Y-55566985D01*
X-13618300Y-55566985D02*
X-13570680Y-55471747D01*
X-13570680Y-55471747D02*
X-13570680Y-55281271D01*
X-13570680Y-55281271D02*
X-13618300Y-55186033D01*
X-13618300Y-55186033D02*
X-13665919Y-55138414D01*
X-13665919Y-55138414D02*
X-13761157Y-55090795D01*
X-13761157Y-55090795D02*
X-13999252Y-55090795D01*
X-13999252Y-55090795D02*
X-14094490Y-55138414D01*
X-14094490Y-55138414D02*
X-14142109Y-55186033D01*
X-14142109Y-55186033D02*
X-14189728Y-55281271D01*
X-14189728Y-55281271D02*
X-14189728Y-55471747D01*
X-14189728Y-55471747D02*
X-14142109Y-55566985D01*
X-14142109Y-55566985D02*
X-14094490Y-55614604D01*
X-14094490Y-55614604D02*
X-13999252Y-55662223D01*
X-13250680Y-60424604D02*
X-14250680Y-60424604D01*
X-13250680Y-59853176D02*
X-13822109Y-60281747D01*
X-14250680Y-59853176D02*
X-13679252Y-60424604D01*
X95166219Y-37406794D02*
X94166219Y-37406794D01*
X94166219Y-37406794D02*
X94166219Y-37168699D01*
X94166219Y-37168699D02*
X94213838Y-37025842D01*
X94213838Y-37025842D02*
X94309076Y-36930604D01*
X94309076Y-36930604D02*
X94404314Y-36882985D01*
X94404314Y-36882985D02*
X94594790Y-36835366D01*
X94594790Y-36835366D02*
X94737647Y-36835366D01*
X94737647Y-36835366D02*
X94928123Y-36882985D01*
X94928123Y-36882985D02*
X95023361Y-36930604D01*
X95023361Y-36930604D02*
X95118600Y-37025842D01*
X95118600Y-37025842D02*
X95166219Y-37168699D01*
X95166219Y-37168699D02*
X95166219Y-37406794D01*
X94166219Y-36502032D02*
X94166219Y-35835366D01*
X94166219Y-35835366D02*
X95166219Y-36263937D01*
X95486219Y-40740604D02*
X94486219Y-40740604D01*
X95486219Y-40169176D02*
X94914790Y-40597747D01*
X94486219Y-40169176D02*
X95057647Y-40740604D01*
X66593019Y-57725485D02*
X65593019Y-57725485D01*
X65593019Y-57725485D02*
X65593019Y-57487390D01*
X65593019Y-57487390D02*
X65640638Y-57344533D01*
X65640638Y-57344533D02*
X65735876Y-57249295D01*
X65735876Y-57249295D02*
X65831114Y-57201676D01*
X65831114Y-57201676D02*
X66021590Y-57154057D01*
X66021590Y-57154057D02*
X66164447Y-57154057D01*
X66164447Y-57154057D02*
X66354923Y-57201676D01*
X66354923Y-57201676D02*
X66450161Y-57249295D01*
X66450161Y-57249295D02*
X66545400Y-57344533D01*
X66545400Y-57344533D02*
X66593019Y-57487390D01*
X66593019Y-57487390D02*
X66593019Y-57725485D01*
X65688257Y-56773104D02*
X65640638Y-56725485D01*
X65640638Y-56725485D02*
X65593019Y-56630247D01*
X65593019Y-56630247D02*
X65593019Y-56392152D01*
X65593019Y-56392152D02*
X65640638Y-56296914D01*
X65640638Y-56296914D02*
X65688257Y-56249295D01*
X65688257Y-56249295D02*
X65783495Y-56201676D01*
X65783495Y-56201676D02*
X65878733Y-56201676D01*
X65878733Y-56201676D02*
X66021590Y-56249295D01*
X66021590Y-56249295D02*
X66593019Y-56820723D01*
X66593019Y-56820723D02*
X66593019Y-56201676D01*
X65593019Y-55582628D02*
X65593019Y-55487390D01*
X65593019Y-55487390D02*
X65640638Y-55392152D01*
X65640638Y-55392152D02*
X65688257Y-55344533D01*
X65688257Y-55344533D02*
X65783495Y-55296914D01*
X65783495Y-55296914D02*
X65973971Y-55249295D01*
X65973971Y-55249295D02*
X66212066Y-55249295D01*
X66212066Y-55249295D02*
X66402542Y-55296914D01*
X66402542Y-55296914D02*
X66497780Y-55344533D01*
X66497780Y-55344533D02*
X66545400Y-55392152D01*
X66545400Y-55392152D02*
X66593019Y-55487390D01*
X66593019Y-55487390D02*
X66593019Y-55582628D01*
X66593019Y-55582628D02*
X66545400Y-55677866D01*
X66545400Y-55677866D02*
X66497780Y-55725485D01*
X66497780Y-55725485D02*
X66402542Y-55773104D01*
X66402542Y-55773104D02*
X66212066Y-55820723D01*
X66212066Y-55820723D02*
X65973971Y-55820723D01*
X65973971Y-55820723D02*
X65783495Y-55773104D01*
X65783495Y-55773104D02*
X65688257Y-55725485D01*
X65688257Y-55725485D02*
X65640638Y-55677866D01*
X65640638Y-55677866D02*
X65593019Y-55582628D01*
X66913019Y-60583104D02*
X65913019Y-60583104D01*
X66913019Y-60011676D02*
X66341590Y-60440247D01*
X65913019Y-60011676D02*
X66484447Y-60583104D01*
X7065519Y-114078185D02*
X6065519Y-114078185D01*
X6065519Y-114078185D02*
X6065519Y-113840090D01*
X6065519Y-113840090D02*
X6113138Y-113697233D01*
X6113138Y-113697233D02*
X6208376Y-113601995D01*
X6208376Y-113601995D02*
X6303614Y-113554376D01*
X6303614Y-113554376D02*
X6494090Y-113506757D01*
X6494090Y-113506757D02*
X6636947Y-113506757D01*
X6636947Y-113506757D02*
X6827423Y-113554376D01*
X6827423Y-113554376D02*
X6922661Y-113601995D01*
X6922661Y-113601995D02*
X7017900Y-113697233D01*
X7017900Y-113697233D02*
X7065519Y-113840090D01*
X7065519Y-113840090D02*
X7065519Y-114078185D01*
X7065519Y-112554376D02*
X7065519Y-113125804D01*
X7065519Y-112840090D02*
X6065519Y-112840090D01*
X6065519Y-112840090D02*
X6208376Y-112935328D01*
X6208376Y-112935328D02*
X6303614Y-113030566D01*
X6303614Y-113030566D02*
X6351233Y-113125804D01*
X6160757Y-112173423D02*
X6113138Y-112125804D01*
X6113138Y-112125804D02*
X6065519Y-112030566D01*
X6065519Y-112030566D02*
X6065519Y-111792471D01*
X6065519Y-111792471D02*
X6113138Y-111697233D01*
X6113138Y-111697233D02*
X6160757Y-111649614D01*
X6160757Y-111649614D02*
X6255995Y-111601995D01*
X6255995Y-111601995D02*
X6351233Y-111601995D01*
X6351233Y-111601995D02*
X6494090Y-111649614D01*
X6494090Y-111649614D02*
X7065519Y-112221042D01*
X7065519Y-112221042D02*
X7065519Y-111601995D01*
X7385519Y-116935804D02*
X6385519Y-116935804D01*
X7385519Y-116364376D02*
X6814090Y-116792947D01*
X6385519Y-116364376D02*
X6956947Y-116935804D01*
X161837019Y-57725485D02*
X160837019Y-57725485D01*
X160837019Y-57725485D02*
X160837019Y-57487390D01*
X160837019Y-57487390D02*
X160884638Y-57344533D01*
X160884638Y-57344533D02*
X160979876Y-57249295D01*
X160979876Y-57249295D02*
X161075114Y-57201676D01*
X161075114Y-57201676D02*
X161265590Y-57154057D01*
X161265590Y-57154057D02*
X161408447Y-57154057D01*
X161408447Y-57154057D02*
X161598923Y-57201676D01*
X161598923Y-57201676D02*
X161694161Y-57249295D01*
X161694161Y-57249295D02*
X161789400Y-57344533D01*
X161789400Y-57344533D02*
X161837019Y-57487390D01*
X161837019Y-57487390D02*
X161837019Y-57725485D01*
X160932257Y-56773104D02*
X160884638Y-56725485D01*
X160884638Y-56725485D02*
X160837019Y-56630247D01*
X160837019Y-56630247D02*
X160837019Y-56392152D01*
X160837019Y-56392152D02*
X160884638Y-56296914D01*
X160884638Y-56296914D02*
X160932257Y-56249295D01*
X160932257Y-56249295D02*
X161027495Y-56201676D01*
X161027495Y-56201676D02*
X161122733Y-56201676D01*
X161122733Y-56201676D02*
X161265590Y-56249295D01*
X161265590Y-56249295D02*
X161837019Y-56820723D01*
X161837019Y-56820723D02*
X161837019Y-56201676D01*
X160837019Y-55296914D02*
X160837019Y-55773104D01*
X160837019Y-55773104D02*
X161313209Y-55820723D01*
X161313209Y-55820723D02*
X161265590Y-55773104D01*
X161265590Y-55773104D02*
X161217971Y-55677866D01*
X161217971Y-55677866D02*
X161217971Y-55439771D01*
X161217971Y-55439771D02*
X161265590Y-55344533D01*
X161265590Y-55344533D02*
X161313209Y-55296914D01*
X161313209Y-55296914D02*
X161408447Y-55249295D01*
X161408447Y-55249295D02*
X161646542Y-55249295D01*
X161646542Y-55249295D02*
X161741780Y-55296914D01*
X161741780Y-55296914D02*
X161789400Y-55344533D01*
X161789400Y-55344533D02*
X161837019Y-55439771D01*
X161837019Y-55439771D02*
X161837019Y-55677866D01*
X161837019Y-55677866D02*
X161789400Y-55773104D01*
X161789400Y-55773104D02*
X161741780Y-55820723D01*
X162157019Y-60583104D02*
X161157019Y-60583104D01*
X162157019Y-60011676D02*
X161585590Y-60440247D01*
X161157019Y-60011676D02*
X161728447Y-60583104D01*
X257081019Y-95029385D02*
X256081019Y-95029385D01*
X256081019Y-95029385D02*
X256081019Y-94791290D01*
X256081019Y-94791290D02*
X256128638Y-94648433D01*
X256128638Y-94648433D02*
X256223876Y-94553195D01*
X256223876Y-94553195D02*
X256319114Y-94505576D01*
X256319114Y-94505576D02*
X256509590Y-94457957D01*
X256509590Y-94457957D02*
X256652447Y-94457957D01*
X256652447Y-94457957D02*
X256842923Y-94505576D01*
X256842923Y-94505576D02*
X256938161Y-94553195D01*
X256938161Y-94553195D02*
X257033400Y-94648433D01*
X257033400Y-94648433D02*
X257081019Y-94791290D01*
X257081019Y-94791290D02*
X257081019Y-95029385D01*
X256081019Y-93553195D02*
X256081019Y-94029385D01*
X256081019Y-94029385D02*
X256557209Y-94077004D01*
X256557209Y-94077004D02*
X256509590Y-94029385D01*
X256509590Y-94029385D02*
X256461971Y-93934147D01*
X256461971Y-93934147D02*
X256461971Y-93696052D01*
X256461971Y-93696052D02*
X256509590Y-93600814D01*
X256509590Y-93600814D02*
X256557209Y-93553195D01*
X256557209Y-93553195D02*
X256652447Y-93505576D01*
X256652447Y-93505576D02*
X256890542Y-93505576D01*
X256890542Y-93505576D02*
X256985780Y-93553195D01*
X256985780Y-93553195D02*
X257033400Y-93600814D01*
X257033400Y-93600814D02*
X257081019Y-93696052D01*
X257081019Y-93696052D02*
X257081019Y-93934147D01*
X257081019Y-93934147D02*
X257033400Y-94029385D01*
X257033400Y-94029385D02*
X256985780Y-94077004D01*
X256081019Y-93172242D02*
X256081019Y-92505576D01*
X256081019Y-92505576D02*
X257081019Y-92934147D01*
X257401019Y-97887004D02*
X256401019Y-97887004D01*
X257401019Y-97315576D02*
X256829590Y-97744147D01*
X256401019Y-97315576D02*
X256972447Y-97887004D01*
X180885819Y-57725485D02*
X179885819Y-57725485D01*
X179885819Y-57725485D02*
X179885819Y-57487390D01*
X179885819Y-57487390D02*
X179933438Y-57344533D01*
X179933438Y-57344533D02*
X180028676Y-57249295D01*
X180028676Y-57249295D02*
X180123914Y-57201676D01*
X180123914Y-57201676D02*
X180314390Y-57154057D01*
X180314390Y-57154057D02*
X180457247Y-57154057D01*
X180457247Y-57154057D02*
X180647723Y-57201676D01*
X180647723Y-57201676D02*
X180742961Y-57249295D01*
X180742961Y-57249295D02*
X180838200Y-57344533D01*
X180838200Y-57344533D02*
X180885819Y-57487390D01*
X180885819Y-57487390D02*
X180885819Y-57725485D01*
X179981057Y-56773104D02*
X179933438Y-56725485D01*
X179933438Y-56725485D02*
X179885819Y-56630247D01*
X179885819Y-56630247D02*
X179885819Y-56392152D01*
X179885819Y-56392152D02*
X179933438Y-56296914D01*
X179933438Y-56296914D02*
X179981057Y-56249295D01*
X179981057Y-56249295D02*
X180076295Y-56201676D01*
X180076295Y-56201676D02*
X180171533Y-56201676D01*
X180171533Y-56201676D02*
X180314390Y-56249295D01*
X180314390Y-56249295D02*
X180885819Y-56820723D01*
X180885819Y-56820723D02*
X180885819Y-56201676D01*
X179885819Y-55344533D02*
X179885819Y-55535009D01*
X179885819Y-55535009D02*
X179933438Y-55630247D01*
X179933438Y-55630247D02*
X179981057Y-55677866D01*
X179981057Y-55677866D02*
X180123914Y-55773104D01*
X180123914Y-55773104D02*
X180314390Y-55820723D01*
X180314390Y-55820723D02*
X180695342Y-55820723D01*
X180695342Y-55820723D02*
X180790580Y-55773104D01*
X180790580Y-55773104D02*
X180838200Y-55725485D01*
X180838200Y-55725485D02*
X180885819Y-55630247D01*
X180885819Y-55630247D02*
X180885819Y-55439771D01*
X180885819Y-55439771D02*
X180838200Y-55344533D01*
X180838200Y-55344533D02*
X180790580Y-55296914D01*
X180790580Y-55296914D02*
X180695342Y-55249295D01*
X180695342Y-55249295D02*
X180457247Y-55249295D01*
X180457247Y-55249295D02*
X180362009Y-55296914D01*
X180362009Y-55296914D02*
X180314390Y-55344533D01*
X180314390Y-55344533D02*
X180266771Y-55439771D01*
X180266771Y-55439771D02*
X180266771Y-55630247D01*
X180266771Y-55630247D02*
X180314390Y-55725485D01*
X180314390Y-55725485D02*
X180362009Y-55773104D01*
X180362009Y-55773104D02*
X180457247Y-55820723D01*
X181205819Y-60583104D02*
X180205819Y-60583104D01*
X181205819Y-60011676D02*
X180634390Y-60440247D01*
X180205819Y-60011676D02*
X180777247Y-60583104D01*
X218983419Y-114078185D02*
X217983419Y-114078185D01*
X217983419Y-114078185D02*
X217983419Y-113840090D01*
X217983419Y-113840090D02*
X218031038Y-113697233D01*
X218031038Y-113697233D02*
X218126276Y-113601995D01*
X218126276Y-113601995D02*
X218221514Y-113554376D01*
X218221514Y-113554376D02*
X218411990Y-113506757D01*
X218411990Y-113506757D02*
X218554847Y-113506757D01*
X218554847Y-113506757D02*
X218745323Y-113554376D01*
X218745323Y-113554376D02*
X218840561Y-113601995D01*
X218840561Y-113601995D02*
X218935800Y-113697233D01*
X218935800Y-113697233D02*
X218983419Y-113840090D01*
X218983419Y-113840090D02*
X218983419Y-114078185D01*
X217983419Y-112649614D02*
X217983419Y-112840090D01*
X217983419Y-112840090D02*
X218031038Y-112935328D01*
X218031038Y-112935328D02*
X218078657Y-112982947D01*
X218078657Y-112982947D02*
X218221514Y-113078185D01*
X218221514Y-113078185D02*
X218411990Y-113125804D01*
X218411990Y-113125804D02*
X218792942Y-113125804D01*
X218792942Y-113125804D02*
X218888180Y-113078185D01*
X218888180Y-113078185D02*
X218935800Y-113030566D01*
X218935800Y-113030566D02*
X218983419Y-112935328D01*
X218983419Y-112935328D02*
X218983419Y-112744852D01*
X218983419Y-112744852D02*
X218935800Y-112649614D01*
X218935800Y-112649614D02*
X218888180Y-112601995D01*
X218888180Y-112601995D02*
X218792942Y-112554376D01*
X218792942Y-112554376D02*
X218554847Y-112554376D01*
X218554847Y-112554376D02*
X218459609Y-112601995D01*
X218459609Y-112601995D02*
X218411990Y-112649614D01*
X218411990Y-112649614D02*
X218364371Y-112744852D01*
X218364371Y-112744852D02*
X218364371Y-112935328D01*
X218364371Y-112935328D02*
X218411990Y-113030566D01*
X218411990Y-113030566D02*
X218459609Y-113078185D01*
X218459609Y-113078185D02*
X218554847Y-113125804D01*
X217983419Y-111649614D02*
X217983419Y-112125804D01*
X217983419Y-112125804D02*
X218459609Y-112173423D01*
X218459609Y-112173423D02*
X218411990Y-112125804D01*
X218411990Y-112125804D02*
X218364371Y-112030566D01*
X218364371Y-112030566D02*
X218364371Y-111792471D01*
X218364371Y-111792471D02*
X218411990Y-111697233D01*
X218411990Y-111697233D02*
X218459609Y-111649614D01*
X218459609Y-111649614D02*
X218554847Y-111601995D01*
X218554847Y-111601995D02*
X218792942Y-111601995D01*
X218792942Y-111601995D02*
X218888180Y-111649614D01*
X218888180Y-111649614D02*
X218935800Y-111697233D01*
X218935800Y-111697233D02*
X218983419Y-111792471D01*
X218983419Y-111792471D02*
X218983419Y-112030566D01*
X218983419Y-112030566D02*
X218935800Y-112125804D01*
X218935800Y-112125804D02*
X218888180Y-112173423D01*
X219303419Y-116935804D02*
X218303419Y-116935804D01*
X219303419Y-116364376D02*
X218731990Y-116792947D01*
X218303419Y-116364376D02*
X218874847Y-116935804D01*
X228800214Y-81673319D02*
X228800214Y-80673319D01*
X228800214Y-80673319D02*
X229038309Y-80673319D01*
X229038309Y-80673319D02*
X229181166Y-80720938D01*
X229181166Y-80720938D02*
X229276404Y-80816176D01*
X229276404Y-80816176D02*
X229324023Y-80911414D01*
X229324023Y-80911414D02*
X229371642Y-81101890D01*
X229371642Y-81101890D02*
X229371642Y-81244747D01*
X229371642Y-81244747D02*
X229324023Y-81435223D01*
X229324023Y-81435223D02*
X229276404Y-81530461D01*
X229276404Y-81530461D02*
X229181166Y-81625700D01*
X229181166Y-81625700D02*
X229038309Y-81673319D01*
X229038309Y-81673319D02*
X228800214Y-81673319D01*
X230228785Y-81006652D02*
X230228785Y-81673319D01*
X229990690Y-80625700D02*
X229752595Y-81339985D01*
X229752595Y-81339985D02*
X230371642Y-81339985D01*
X230657357Y-80673319D02*
X231276404Y-80673319D01*
X231276404Y-80673319D02*
X230943071Y-81054271D01*
X230943071Y-81054271D02*
X231085928Y-81054271D01*
X231085928Y-81054271D02*
X231181166Y-81101890D01*
X231181166Y-81101890D02*
X231228785Y-81149509D01*
X231228785Y-81149509D02*
X231276404Y-81244747D01*
X231276404Y-81244747D02*
X231276404Y-81482842D01*
X231276404Y-81482842D02*
X231228785Y-81578080D01*
X231228785Y-81578080D02*
X231181166Y-81625700D01*
X231181166Y-81625700D02*
X231085928Y-81673319D01*
X231085928Y-81673319D02*
X230800214Y-81673319D01*
X230800214Y-81673319D02*
X230704976Y-81625700D01*
X230704976Y-81625700D02*
X230657357Y-81578080D01*
X225942595Y-81993319D02*
X225942595Y-80993319D01*
X226514023Y-81993319D02*
X226085452Y-81421890D01*
X226514023Y-80993319D02*
X225942595Y-81564747D01*
X31670219Y-114078185D02*
X30670219Y-114078185D01*
X30670219Y-114078185D02*
X30670219Y-113840090D01*
X30670219Y-113840090D02*
X30717838Y-113697233D01*
X30717838Y-113697233D02*
X30813076Y-113601995D01*
X30813076Y-113601995D02*
X30908314Y-113554376D01*
X30908314Y-113554376D02*
X31098790Y-113506757D01*
X31098790Y-113506757D02*
X31241647Y-113506757D01*
X31241647Y-113506757D02*
X31432123Y-113554376D01*
X31432123Y-113554376D02*
X31527361Y-113601995D01*
X31527361Y-113601995D02*
X31622600Y-113697233D01*
X31622600Y-113697233D02*
X31670219Y-113840090D01*
X31670219Y-113840090D02*
X31670219Y-114078185D01*
X30670219Y-112649614D02*
X30670219Y-112840090D01*
X30670219Y-112840090D02*
X30717838Y-112935328D01*
X30717838Y-112935328D02*
X30765457Y-112982947D01*
X30765457Y-112982947D02*
X30908314Y-113078185D01*
X30908314Y-113078185D02*
X31098790Y-113125804D01*
X31098790Y-113125804D02*
X31479742Y-113125804D01*
X31479742Y-113125804D02*
X31574980Y-113078185D01*
X31574980Y-113078185D02*
X31622600Y-113030566D01*
X31622600Y-113030566D02*
X31670219Y-112935328D01*
X31670219Y-112935328D02*
X31670219Y-112744852D01*
X31670219Y-112744852D02*
X31622600Y-112649614D01*
X31622600Y-112649614D02*
X31574980Y-112601995D01*
X31574980Y-112601995D02*
X31479742Y-112554376D01*
X31479742Y-112554376D02*
X31241647Y-112554376D01*
X31241647Y-112554376D02*
X31146409Y-112601995D01*
X31146409Y-112601995D02*
X31098790Y-112649614D01*
X31098790Y-112649614D02*
X31051171Y-112744852D01*
X31051171Y-112744852D02*
X31051171Y-112935328D01*
X31051171Y-112935328D02*
X31098790Y-113030566D01*
X31098790Y-113030566D02*
X31146409Y-113078185D01*
X31146409Y-113078185D02*
X31241647Y-113125804D01*
X31670219Y-111601995D02*
X31670219Y-112173423D01*
X31670219Y-111887709D02*
X30670219Y-111887709D01*
X30670219Y-111887709D02*
X30813076Y-111982947D01*
X30813076Y-111982947D02*
X30908314Y-112078185D01*
X30908314Y-112078185D02*
X30955933Y-112173423D01*
X31990219Y-116935804D02*
X30990219Y-116935804D01*
X31990219Y-116364376D02*
X31418790Y-116792947D01*
X30990219Y-116364376D02*
X31561647Y-116935804D01*
X23733219Y-95664585D02*
X22733219Y-95664585D01*
X22733219Y-95664585D02*
X22733219Y-95426490D01*
X22733219Y-95426490D02*
X22780838Y-95283633D01*
X22780838Y-95283633D02*
X22876076Y-95188395D01*
X22876076Y-95188395D02*
X22971314Y-95140776D01*
X22971314Y-95140776D02*
X23161790Y-95093157D01*
X23161790Y-95093157D02*
X23304647Y-95093157D01*
X23304647Y-95093157D02*
X23495123Y-95140776D01*
X23495123Y-95140776D02*
X23590361Y-95188395D01*
X23590361Y-95188395D02*
X23685600Y-95283633D01*
X23685600Y-95283633D02*
X23733219Y-95426490D01*
X23733219Y-95426490D02*
X23733219Y-95664585D01*
X23066552Y-94236014D02*
X23733219Y-94236014D01*
X22685600Y-94474109D02*
X23399885Y-94712204D01*
X23399885Y-94712204D02*
X23399885Y-94093157D01*
X22733219Y-93236014D02*
X22733219Y-93712204D01*
X22733219Y-93712204D02*
X23209409Y-93759823D01*
X23209409Y-93759823D02*
X23161790Y-93712204D01*
X23161790Y-93712204D02*
X23114171Y-93616966D01*
X23114171Y-93616966D02*
X23114171Y-93378871D01*
X23114171Y-93378871D02*
X23161790Y-93283633D01*
X23161790Y-93283633D02*
X23209409Y-93236014D01*
X23209409Y-93236014D02*
X23304647Y-93188395D01*
X23304647Y-93188395D02*
X23542742Y-93188395D01*
X23542742Y-93188395D02*
X23637980Y-93236014D01*
X23637980Y-93236014D02*
X23685600Y-93283633D01*
X23685600Y-93283633D02*
X23733219Y-93378871D01*
X23733219Y-93378871D02*
X23733219Y-93616966D01*
X23733219Y-93616966D02*
X23685600Y-93712204D01*
X23685600Y-93712204D02*
X23637980Y-93759823D01*
X24053219Y-98522204D02*
X23053219Y-98522204D01*
X24053219Y-97950776D02*
X23481790Y-98379347D01*
X23053219Y-97950776D02*
X23624647Y-98522204D01*
%TO.C,D38*%
D11*
X129046800Y-76840000D02*
X131286800Y-76840000D01*
X129046800Y-76960000D02*
X131286800Y-76960000D01*
X129046800Y-77080000D02*
X131286800Y-77080000D01*
X130166800Y-72790000D02*
X130166800Y-73440000D01*
X130166800Y-78330000D02*
X130166800Y-77680000D01*
X129046800Y-73440000D02*
X131286800Y-73440000D01*
X131286800Y-77680000D01*
X129046800Y-77680000D01*
X129046800Y-73440000D01*
%TO.C,D30*%
X258500000Y-73500000D02*
X259150000Y-73500000D01*
X259750000Y-72380000D02*
X259750000Y-74620000D01*
X259870000Y-72380000D02*
X259870000Y-74620000D01*
X259990000Y-72380000D02*
X259990000Y-74620000D01*
X264040000Y-73500000D02*
X263390000Y-73500000D01*
X259150000Y-72380000D02*
X263390000Y-72380000D01*
X263390000Y-74620000D01*
X259150000Y-74620000D01*
X259150000Y-72380000D01*
%TO.C,D62*%
X210004200Y-38742400D02*
X212244200Y-38742400D01*
X210004200Y-38862400D02*
X212244200Y-38862400D01*
X210004200Y-38982400D02*
X212244200Y-38982400D01*
X211124200Y-34692400D02*
X211124200Y-35342400D01*
X211124200Y-40232400D02*
X211124200Y-39582400D01*
X210004200Y-35342400D02*
X212244200Y-35342400D01*
X212244200Y-39582400D01*
X210004200Y-39582400D01*
X210004200Y-35342400D01*
%TO.C,D27*%
X219528600Y-57791200D02*
X221768600Y-57791200D01*
X219528600Y-57911200D02*
X221768600Y-57911200D01*
X219528600Y-58031200D02*
X221768600Y-58031200D01*
X220648600Y-53741200D02*
X220648600Y-54391200D01*
X220648600Y-59281200D02*
X220648600Y-58631200D01*
X219528600Y-54391200D02*
X221768600Y-54391200D01*
X221768600Y-58631200D01*
X219528600Y-58631200D01*
X219528600Y-54391200D01*
%TO.C,D36*%
X90949200Y-76840000D02*
X93189200Y-76840000D01*
X90949200Y-76960000D02*
X93189200Y-76960000D01*
X90949200Y-77080000D02*
X93189200Y-77080000D01*
X92069200Y-72790000D02*
X92069200Y-73440000D01*
X92069200Y-78330000D02*
X92069200Y-77680000D01*
X90949200Y-73440000D02*
X93189200Y-73440000D01*
X93189200Y-77680000D01*
X90949200Y-77680000D01*
X90949200Y-73440000D01*
%TO.C,D8*%
X114760200Y-37948700D02*
X117000200Y-37948700D01*
X114760200Y-38068700D02*
X117000200Y-38068700D01*
X114760200Y-38188700D02*
X117000200Y-38188700D01*
X115880200Y-33898700D02*
X115880200Y-34548700D01*
X115880200Y-39438700D02*
X115880200Y-38788700D01*
X114760200Y-34548700D02*
X117000200Y-34548700D01*
X117000200Y-38788700D01*
X114760200Y-38788700D01*
X114760200Y-34548700D01*
%TO.C,D64*%
X174287700Y-114143900D02*
X176527700Y-114143900D01*
X174287700Y-114263900D02*
X176527700Y-114263900D01*
X174287700Y-114383900D02*
X176527700Y-114383900D01*
X175407700Y-110093900D02*
X175407700Y-110743900D01*
X175407700Y-115633900D02*
X175407700Y-114983900D01*
X174287700Y-110743900D02*
X176527700Y-110743900D01*
X176527700Y-114983900D01*
X174287700Y-114983900D01*
X174287700Y-110743900D01*
%TO.C,D60*%
X57613800Y-37948700D02*
X59853800Y-37948700D01*
X57613800Y-38068700D02*
X59853800Y-38068700D01*
X57613800Y-38188700D02*
X59853800Y-38188700D01*
X58733800Y-33898700D02*
X58733800Y-34548700D01*
X58733800Y-39438700D02*
X58733800Y-38788700D01*
X57613800Y-34548700D02*
X59853800Y-34548700D01*
X59853800Y-38788700D01*
X57613800Y-38788700D01*
X57613800Y-34548700D01*
%TO.C,D35*%
X71900400Y-76840000D02*
X74140400Y-76840000D01*
X71900400Y-76960000D02*
X74140400Y-76960000D01*
X71900400Y-77080000D02*
X74140400Y-77080000D01*
X73020400Y-72790000D02*
X73020400Y-73440000D01*
X73020400Y-78330000D02*
X73020400Y-77680000D01*
X71900400Y-73440000D02*
X74140400Y-73440000D01*
X74140400Y-77680000D01*
X71900400Y-77680000D01*
X71900400Y-73440000D01*
%TO.C,D52*%
X157620000Y-95888800D02*
X159860000Y-95888800D01*
X157620000Y-96008800D02*
X159860000Y-96008800D01*
X157620000Y-96128800D02*
X159860000Y-96128800D01*
X158740000Y-91838800D02*
X158740000Y-92488800D01*
X158740000Y-97378800D02*
X158740000Y-96728800D01*
X157620000Y-92488800D02*
X159860000Y-92488800D01*
X159860000Y-96728800D01*
X157620000Y-96728800D01*
X157620000Y-92488800D01*
%TO.C,D9*%
X133809000Y-37790200D02*
X136049000Y-37790200D01*
X133809000Y-37910200D02*
X136049000Y-37910200D01*
X133809000Y-38030200D02*
X136049000Y-38030200D01*
X134929000Y-33740200D02*
X134929000Y-34390200D01*
X134929000Y-39280200D02*
X134929000Y-38630200D01*
X133809000Y-34390200D02*
X136049000Y-34390200D01*
X136049000Y-38630200D01*
X133809000Y-38630200D01*
X133809000Y-34390200D01*
%TO.C,D50*%
X119522400Y-95888800D02*
X121762400Y-95888800D01*
X119522400Y-96008800D02*
X121762400Y-96008800D01*
X119522400Y-96128800D02*
X121762400Y-96128800D01*
X120642400Y-91838800D02*
X120642400Y-92488800D01*
X120642400Y-97378800D02*
X120642400Y-96728800D01*
X119522400Y-92488800D02*
X121762400Y-92488800D01*
X121762400Y-96728800D01*
X119522400Y-96728800D01*
X119522400Y-92488800D01*
%TO.C,D33*%
X33802800Y-76681500D02*
X36042800Y-76681500D01*
X33802800Y-76801500D02*
X36042800Y-76801500D01*
X33802800Y-76921500D02*
X36042800Y-76921500D01*
X34922800Y-72631500D02*
X34922800Y-73281500D01*
X34922800Y-78171500D02*
X34922800Y-77521500D01*
X33802800Y-73281500D02*
X36042800Y-73281500D01*
X36042800Y-77521500D01*
X33802800Y-77521500D01*
X33802800Y-73281500D01*
%TO.C,D1*%
X-18581400Y-37948700D02*
X-16341400Y-37948700D01*
X-18581400Y-38068700D02*
X-16341400Y-38068700D01*
X-18581400Y-38188700D02*
X-16341400Y-38188700D01*
X-17461400Y-33898700D02*
X-17461400Y-34548700D01*
X-17461400Y-39438700D02*
X-17461400Y-38788700D01*
X-18581400Y-34548700D02*
X-16341400Y-34548700D01*
X-16341400Y-38788700D01*
X-18581400Y-38788700D01*
X-18581400Y-34548700D01*
%TO.C,D55*%
X217941200Y-95095100D02*
X220181200Y-95095100D01*
X217941200Y-95215100D02*
X220181200Y-95215100D01*
X217941200Y-95335100D02*
X220181200Y-95335100D01*
X219061200Y-91045100D02*
X219061200Y-91695100D01*
X219061200Y-96585100D02*
X219061200Y-95935100D01*
X217941200Y-91695100D02*
X220181200Y-91695100D01*
X220181200Y-95935100D01*
X217941200Y-95935100D01*
X217941200Y-91695100D01*
%TO.C,D59*%
X38565000Y-37948700D02*
X40805000Y-37948700D01*
X38565000Y-38068700D02*
X40805000Y-38068700D01*
X38565000Y-38188700D02*
X40805000Y-38188700D01*
X39685000Y-33898700D02*
X39685000Y-34548700D01*
X39685000Y-39438700D02*
X39685000Y-38788700D01*
X38565000Y-34548700D02*
X40805000Y-34548700D01*
X40805000Y-38788700D01*
X38565000Y-38788700D01*
X38565000Y-34548700D01*
%TO.C,D22*%
X105235800Y-57791200D02*
X107475800Y-57791200D01*
X105235800Y-57911200D02*
X107475800Y-57911200D01*
X105235800Y-58031200D02*
X107475800Y-58031200D01*
X106355800Y-53741200D02*
X106355800Y-54391200D01*
X106355800Y-59281200D02*
X106355800Y-58631200D01*
X105235800Y-54391200D02*
X107475800Y-54391200D01*
X107475800Y-58631200D01*
X105235800Y-58631200D01*
X105235800Y-54391200D01*
%TO.C,D66*%
X238577400Y-114143900D02*
X240817400Y-114143900D01*
X238577400Y-114263900D02*
X240817400Y-114263900D01*
X238577400Y-114383900D02*
X240817400Y-114383900D01*
X239697400Y-110093900D02*
X239697400Y-110743900D01*
X239697400Y-115633900D02*
X239697400Y-114983900D01*
X238577400Y-110743900D02*
X240817400Y-110743900D01*
X240817400Y-114983900D01*
X238577400Y-114983900D01*
X238577400Y-110743900D01*
%TO.C,D44*%
X2054800Y-95730300D02*
X4294800Y-95730300D01*
X2054800Y-95850300D02*
X4294800Y-95850300D01*
X2054800Y-95970300D02*
X4294800Y-95970300D01*
X3174800Y-91680300D02*
X3174800Y-92330300D01*
X3174800Y-97220300D02*
X3174800Y-96570300D01*
X2054800Y-92330300D02*
X4294800Y-92330300D01*
X4294800Y-96570300D01*
X2054800Y-96570300D01*
X2054800Y-92330300D01*
%TO.C,D42*%
X205242000Y-76681500D02*
X207482000Y-76681500D01*
X205242000Y-76801500D02*
X207482000Y-76801500D01*
X205242000Y-76921500D02*
X207482000Y-76921500D01*
X206362000Y-72631500D02*
X206362000Y-73281500D01*
X206362000Y-78171500D02*
X206362000Y-77521500D01*
X205242000Y-73281500D02*
X207482000Y-73281500D01*
X207482000Y-77521500D01*
X205242000Y-77521500D01*
X205242000Y-73281500D01*
%TO.C,D34*%
X52851600Y-76840000D02*
X55091600Y-76840000D01*
X52851600Y-76960000D02*
X55091600Y-76960000D01*
X52851600Y-77080000D02*
X55091600Y-77080000D01*
X53971600Y-72790000D02*
X53971600Y-73440000D01*
X53971600Y-78330000D02*
X53971600Y-77680000D01*
X52851600Y-73440000D02*
X55091600Y-73440000D01*
X55091600Y-77680000D01*
X52851600Y-77680000D01*
X52851600Y-73440000D01*
%TO.C,D5*%
X198892400Y-114143900D02*
X201132400Y-114143900D01*
X198892400Y-114263900D02*
X201132400Y-114263900D01*
X198892400Y-114383900D02*
X201132400Y-114383900D01*
X200012400Y-110093900D02*
X200012400Y-110743900D01*
X200012400Y-115633900D02*
X200012400Y-114983900D01*
X198892400Y-110743900D02*
X201132400Y-110743900D01*
X201132400Y-114983900D01*
X198892400Y-114983900D01*
X198892400Y-110743900D01*
%TO.C,D39*%
X148095600Y-76840000D02*
X150335600Y-76840000D01*
X148095600Y-76960000D02*
X150335600Y-76960000D01*
X148095600Y-77080000D02*
X150335600Y-77080000D01*
X149215600Y-72790000D02*
X149215600Y-73440000D01*
X149215600Y-78330000D02*
X149215600Y-77680000D01*
X148095600Y-73440000D02*
X150335600Y-73440000D01*
X150335600Y-77680000D01*
X148095600Y-77680000D01*
X148095600Y-73440000D01*
%TO.C,D11*%
X171906600Y-38742400D02*
X174146600Y-38742400D01*
X171906600Y-38862400D02*
X174146600Y-38862400D01*
X171906600Y-38982400D02*
X174146600Y-38982400D01*
X173026600Y-34692400D02*
X173026600Y-35342400D01*
X173026600Y-40232400D02*
X173026600Y-39582400D01*
X171906600Y-35342400D02*
X174146600Y-35342400D01*
X174146600Y-39582400D01*
X171906600Y-39582400D01*
X171906600Y-35342400D01*
%TO.C,D17*%
X9991800Y-57791200D02*
X12231800Y-57791200D01*
X9991800Y-57911200D02*
X12231800Y-57911200D01*
X9991800Y-58031200D02*
X12231800Y-58031200D01*
X11111800Y-53741200D02*
X11111800Y-54391200D01*
X11111800Y-59281200D02*
X11111800Y-58631200D01*
X9991800Y-54391200D02*
X12231800Y-54391200D01*
X12231800Y-58631200D01*
X9991800Y-58631200D01*
X9991800Y-54391200D01*
%TO.C,D31*%
X-11438100Y-76046300D02*
X-9198100Y-76046300D01*
X-11438100Y-76166300D02*
X-9198100Y-76166300D01*
X-11438100Y-76286300D02*
X-9198100Y-76286300D01*
X-10318100Y-71996300D02*
X-10318100Y-72646300D01*
X-10318100Y-77536300D02*
X-10318100Y-76886300D01*
X-11438100Y-72646300D02*
X-9198100Y-72646300D01*
X-9198100Y-76886300D01*
X-11438100Y-76886300D01*
X-11438100Y-72646300D01*
%TO.C,D58*%
X275881300Y-95095100D02*
X278121300Y-95095100D01*
X275881300Y-95215100D02*
X278121300Y-95215100D01*
X275881300Y-95335100D02*
X278121300Y-95335100D01*
X277001300Y-91045100D02*
X277001300Y-91695100D01*
X277001300Y-96585100D02*
X277001300Y-95935100D01*
X275881300Y-91695100D02*
X278121300Y-91695100D01*
X278121300Y-95935100D01*
X275881300Y-95935100D01*
X275881300Y-91695100D01*
%TO.C,D54*%
X186193200Y-76046300D02*
X188433200Y-76046300D01*
X186193200Y-76166300D02*
X188433200Y-76166300D01*
X186193200Y-76286300D02*
X188433200Y-76286300D01*
X187313200Y-71996300D02*
X187313200Y-72646300D01*
X187313200Y-77536300D02*
X187313200Y-76886300D01*
X186193200Y-72646300D02*
X188433200Y-72646300D01*
X188433200Y-76886300D01*
X186193200Y-76886300D01*
X186193200Y-72646300D01*
%TO.C,D10*%
X152857800Y-37948700D02*
X155097800Y-37948700D01*
X152857800Y-38068700D02*
X155097800Y-38068700D01*
X152857800Y-38188700D02*
X155097800Y-38188700D01*
X153977800Y-33898700D02*
X153977800Y-34548700D01*
X153977800Y-39438700D02*
X153977800Y-38788700D01*
X152857800Y-34548700D02*
X155097800Y-34548700D01*
X155097800Y-38788700D01*
X152857800Y-38788700D01*
X152857800Y-34548700D01*
%TO.C,D41*%
X48089400Y-57791200D02*
X50329400Y-57791200D01*
X48089400Y-57911200D02*
X50329400Y-57911200D01*
X48089400Y-58031200D02*
X50329400Y-58031200D01*
X49209400Y-53741200D02*
X49209400Y-54391200D01*
X49209400Y-59281200D02*
X49209400Y-58631200D01*
X48089400Y-54391200D02*
X50329400Y-54391200D01*
X50329400Y-58631200D01*
X48089400Y-58631200D01*
X48089400Y-54391200D01*
%TO.C,D48*%
X81424800Y-95888800D02*
X83664800Y-95888800D01*
X81424800Y-96008800D02*
X83664800Y-96008800D01*
X81424800Y-96128800D02*
X83664800Y-96128800D01*
X82544800Y-91838800D02*
X82544800Y-92488800D01*
X82544800Y-97378800D02*
X82544800Y-96728800D01*
X81424800Y-92488800D02*
X83664800Y-92488800D01*
X83664800Y-96728800D01*
X81424800Y-96728800D01*
X81424800Y-92488800D01*
%TO.C,D3*%
X19516200Y-37948700D02*
X21756200Y-37948700D01*
X19516200Y-38068700D02*
X21756200Y-38068700D01*
X19516200Y-38188700D02*
X21756200Y-38188700D01*
X20636200Y-33898700D02*
X20636200Y-34548700D01*
X20636200Y-39438700D02*
X20636200Y-38788700D01*
X19516200Y-34548700D02*
X21756200Y-34548700D01*
X21756200Y-38788700D01*
X19516200Y-38788700D01*
X19516200Y-34548700D01*
%TO.C,D51*%
X138571200Y-95888800D02*
X140811200Y-95888800D01*
X138571200Y-96008800D02*
X140811200Y-96008800D01*
X138571200Y-96128800D02*
X140811200Y-96128800D01*
X139691200Y-91838800D02*
X139691200Y-92488800D01*
X139691200Y-97378800D02*
X139691200Y-96728800D01*
X138571200Y-92488800D02*
X140811200Y-92488800D01*
X140811200Y-96728800D01*
X138571200Y-96728800D01*
X138571200Y-92488800D01*
%TO.C,D32*%
X14754000Y-76840000D02*
X16994000Y-76840000D01*
X14754000Y-76960000D02*
X16994000Y-76960000D01*
X14754000Y-77080000D02*
X16994000Y-77080000D01*
X15874000Y-72790000D02*
X15874000Y-73440000D01*
X15874000Y-78330000D02*
X15874000Y-77680000D01*
X14754000Y-73440000D02*
X16994000Y-73440000D01*
X16994000Y-77680000D01*
X14754000Y-77680000D01*
X14754000Y-73440000D01*
%TO.C,D37*%
X109998000Y-76840000D02*
X112238000Y-76840000D01*
X109998000Y-76960000D02*
X112238000Y-76960000D01*
X109998000Y-77080000D02*
X112238000Y-77080000D01*
X111118000Y-72790000D02*
X111118000Y-73440000D01*
X111118000Y-78330000D02*
X111118000Y-77680000D01*
X109998000Y-73440000D02*
X112238000Y-73440000D01*
X112238000Y-77680000D01*
X109998000Y-77680000D01*
X109998000Y-73440000D01*
%TO.C,D49*%
X100473600Y-95888800D02*
X102713600Y-95888800D01*
X100473600Y-96008800D02*
X102713600Y-96008800D01*
X100473600Y-96128800D02*
X102713600Y-96128800D01*
X101593600Y-91838800D02*
X101593600Y-92488800D01*
X101593600Y-97378800D02*
X101593600Y-96728800D01*
X100473600Y-92488800D02*
X102713600Y-92488800D01*
X102713600Y-96728800D01*
X100473600Y-96728800D01*
X100473600Y-92488800D01*
%TO.C,D23*%
X124284600Y-57791200D02*
X126524600Y-57791200D01*
X124284600Y-57911200D02*
X126524600Y-57911200D01*
X124284600Y-58031200D02*
X126524600Y-58031200D01*
X125404600Y-53741200D02*
X125404600Y-54391200D01*
X125404600Y-59281200D02*
X125404600Y-58631200D01*
X124284600Y-54391200D02*
X126524600Y-54391200D01*
X126524600Y-58631200D01*
X124284600Y-58631200D01*
X124284600Y-54391200D01*
%TO.C,D13*%
X-16200300Y-114143900D02*
X-13960300Y-114143900D01*
X-16200300Y-114263900D02*
X-13960300Y-114263900D01*
X-16200300Y-114383900D02*
X-13960300Y-114383900D01*
X-15080300Y-110093900D02*
X-15080300Y-110743900D01*
X-15080300Y-115633900D02*
X-15080300Y-114983900D01*
X-16200300Y-110743900D02*
X-13960300Y-110743900D01*
X-13960300Y-114983900D01*
X-16200300Y-114983900D01*
X-16200300Y-110743900D01*
%TO.C,D68*%
X275881300Y-114143900D02*
X278121300Y-114143900D01*
X275881300Y-114263900D02*
X278121300Y-114263900D01*
X275881300Y-114383900D02*
X278121300Y-114383900D01*
X277001300Y-110093900D02*
X277001300Y-110743900D01*
X277001300Y-115633900D02*
X277001300Y-114983900D01*
X275881300Y-110743900D02*
X278121300Y-110743900D01*
X278121300Y-114983900D01*
X275881300Y-114983900D01*
X275881300Y-110743900D01*
%TO.C,D46*%
X43327200Y-95888800D02*
X45567200Y-95888800D01*
X43327200Y-96008800D02*
X45567200Y-96008800D01*
X43327200Y-96128800D02*
X45567200Y-96128800D01*
X44447200Y-91838800D02*
X44447200Y-92488800D01*
X44447200Y-97378800D02*
X44447200Y-96728800D01*
X43327200Y-92488800D02*
X45567200Y-92488800D01*
X45567200Y-96728800D01*
X43327200Y-96728800D01*
X43327200Y-92488800D01*
%TO.C,D15*%
X259000000Y-46500000D02*
X259650000Y-46500000D01*
X260250000Y-45380000D02*
X260250000Y-47620000D01*
X260370000Y-45380000D02*
X260370000Y-47620000D01*
X260490000Y-45380000D02*
X260490000Y-47620000D01*
X264540000Y-46500000D02*
X263890000Y-46500000D01*
X259650000Y-45380000D02*
X263890000Y-45380000D01*
X263890000Y-47620000D01*
X259650000Y-47620000D01*
X259650000Y-45380000D01*
%TO.C,D53*%
X176668800Y-95888800D02*
X178908800Y-95888800D01*
X176668800Y-96008800D02*
X178908800Y-96008800D01*
X176668800Y-96128800D02*
X178908800Y-96128800D01*
X177788800Y-91838800D02*
X177788800Y-92488800D01*
X177788800Y-97378800D02*
X177788800Y-96728800D01*
X176668800Y-92488800D02*
X178908800Y-92488800D01*
X178908800Y-96728800D01*
X176668800Y-96728800D01*
X176668800Y-92488800D01*
%TO.C,D63*%
X103648400Y-114143900D02*
X105888400Y-114143900D01*
X103648400Y-114263900D02*
X105888400Y-114263900D01*
X103648400Y-114383900D02*
X105888400Y-114383900D01*
X104768400Y-110093900D02*
X104768400Y-110743900D01*
X104768400Y-115633900D02*
X104768400Y-114983900D01*
X103648400Y-110743900D02*
X105888400Y-110743900D01*
X105888400Y-114983900D01*
X103648400Y-114983900D01*
X103648400Y-110743900D01*
%TO.C,D47*%
X62376000Y-95730300D02*
X64616000Y-95730300D01*
X62376000Y-95850300D02*
X64616000Y-95850300D01*
X62376000Y-95970300D02*
X64616000Y-95970300D01*
X63496000Y-91680300D02*
X63496000Y-92330300D01*
X63496000Y-97220300D02*
X63496000Y-96570300D01*
X62376000Y-92330300D02*
X64616000Y-92330300D01*
X64616000Y-96570300D01*
X62376000Y-96570300D01*
X62376000Y-92330300D01*
%TO.C,D62*%
X190955400Y-38742400D02*
X193195400Y-38742400D01*
X190955400Y-38862400D02*
X193195400Y-38862400D01*
X190955400Y-38982400D02*
X193195400Y-38982400D01*
X192075400Y-34692400D02*
X192075400Y-35342400D01*
X192075400Y-40232400D02*
X192075400Y-39582400D01*
X190955400Y-35342400D02*
X193195400Y-35342400D01*
X193195400Y-39582400D01*
X190955400Y-39582400D01*
X190955400Y-35342400D01*
%TO.C,D14*%
X231040000Y-45500000D02*
X231690000Y-45500000D01*
X232290000Y-44380000D02*
X232290000Y-46620000D01*
X232410000Y-44380000D02*
X232410000Y-46620000D01*
X232530000Y-44380000D02*
X232530000Y-46620000D01*
X236580000Y-45500000D02*
X235930000Y-45500000D01*
X231690000Y-44380000D02*
X235930000Y-44380000D01*
X235930000Y-46620000D01*
X231690000Y-46620000D01*
X231690000Y-44380000D01*
%TO.C,D28*%
X200479800Y-57791200D02*
X202719800Y-57791200D01*
X200479800Y-57911200D02*
X202719800Y-57911200D01*
X200479800Y-58031200D02*
X202719800Y-58031200D01*
X201599800Y-53741200D02*
X201599800Y-54391200D01*
X201599800Y-59281200D02*
X201599800Y-58631200D01*
X200479800Y-54391200D02*
X202719800Y-54391200D01*
X202719800Y-58631200D01*
X200479800Y-58631200D01*
X200479800Y-54391200D01*
%TO.C,D6*%
X76662600Y-37948700D02*
X78902600Y-37948700D01*
X76662600Y-38068700D02*
X78902600Y-38068700D01*
X76662600Y-38188700D02*
X78902600Y-38188700D01*
X77782600Y-33898700D02*
X77782600Y-34548700D01*
X77782600Y-39438700D02*
X77782600Y-38788700D01*
X76662600Y-34548700D02*
X78902600Y-34548700D01*
X78902600Y-38788700D01*
X76662600Y-38788700D01*
X76662600Y-34548700D01*
%TO.C,D18*%
X29040600Y-57791200D02*
X31280600Y-57791200D01*
X29040600Y-57911200D02*
X31280600Y-57911200D01*
X29040600Y-58031200D02*
X31280600Y-58031200D01*
X30160600Y-53741200D02*
X30160600Y-54391200D01*
X30160600Y-59281200D02*
X30160600Y-58631200D01*
X29040600Y-54391200D02*
X31280600Y-54391200D01*
X31280600Y-58631200D01*
X29040600Y-58631200D01*
X29040600Y-54391200D01*
%TO.C,D24*%
X143333400Y-57791200D02*
X145573400Y-57791200D01*
X143333400Y-57911200D02*
X145573400Y-57911200D01*
X143333400Y-58031200D02*
X145573400Y-58031200D01*
X144453400Y-53741200D02*
X144453400Y-54391200D01*
X144453400Y-59281200D02*
X144453400Y-58631200D01*
X143333400Y-54391200D02*
X145573400Y-54391200D01*
X145573400Y-58631200D01*
X143333400Y-58631200D01*
X143333400Y-54391200D01*
%TO.C,D2*%
X467400Y-37790200D02*
X2707400Y-37790200D01*
X467400Y-37910200D02*
X2707400Y-37910200D01*
X467400Y-38030200D02*
X2707400Y-38030200D01*
X1587400Y-33740200D02*
X1587400Y-34390200D01*
X1587400Y-39280200D02*
X1587400Y-38630200D01*
X467400Y-34390200D02*
X2707400Y-34390200D01*
X2707400Y-38630200D01*
X467400Y-38630200D01*
X467400Y-34390200D01*
%TO.C,D21*%
X86187000Y-57791200D02*
X88427000Y-57791200D01*
X86187000Y-57911200D02*
X88427000Y-57911200D01*
X86187000Y-58031200D02*
X88427000Y-58031200D01*
X87307000Y-53741200D02*
X87307000Y-54391200D01*
X87307000Y-59281200D02*
X87307000Y-58631200D01*
X86187000Y-54391200D02*
X88427000Y-54391200D01*
X88427000Y-58631200D01*
X86187000Y-58631200D01*
X86187000Y-54391200D01*
%TO.C,D56*%
X238577400Y-95095100D02*
X240817400Y-95095100D01*
X238577400Y-95215100D02*
X240817400Y-95215100D01*
X238577400Y-95335100D02*
X240817400Y-95335100D01*
X239697400Y-91045100D02*
X239697400Y-91695100D01*
X239697400Y-96585100D02*
X239697400Y-95935100D01*
X238577400Y-91695100D02*
X240817400Y-91695100D01*
X240817400Y-95935100D01*
X238577400Y-95935100D01*
X238577400Y-91695100D01*
%TO.C,D67*%
X257626200Y-113985400D02*
X259866200Y-113985400D01*
X257626200Y-114105400D02*
X259866200Y-114105400D01*
X257626200Y-114225400D02*
X259866200Y-114225400D01*
X258746200Y-109935400D02*
X258746200Y-110585400D01*
X258746200Y-115475400D02*
X258746200Y-114825400D01*
X257626200Y-110585400D02*
X259866200Y-110585400D01*
X259866200Y-114825400D01*
X257626200Y-114825400D01*
X257626200Y-110585400D01*
%TO.C,D29*%
X243339600Y-57791200D02*
X245579600Y-57791200D01*
X243339600Y-57911200D02*
X245579600Y-57911200D01*
X243339600Y-58031200D02*
X245579600Y-58031200D01*
X244459600Y-53741200D02*
X244459600Y-54391200D01*
X244459600Y-59281200D02*
X244459600Y-58631200D01*
X243339600Y-54391200D02*
X245579600Y-54391200D01*
X245579600Y-58631200D01*
X243339600Y-58631200D01*
X243339600Y-54391200D01*
%TO.C,D40*%
X167144400Y-76840000D02*
X169384400Y-76840000D01*
X167144400Y-76960000D02*
X169384400Y-76960000D01*
X167144400Y-77080000D02*
X169384400Y-77080000D01*
X168264400Y-72790000D02*
X168264400Y-73440000D01*
X168264400Y-78330000D02*
X168264400Y-77680000D01*
X167144400Y-73440000D02*
X169384400Y-73440000D01*
X169384400Y-77680000D01*
X167144400Y-77680000D01*
X167144400Y-73440000D01*
%TO.C,D19*%
X195717600Y-95095100D02*
X197957600Y-95095100D01*
X195717600Y-95215100D02*
X197957600Y-95215100D01*
X195717600Y-95335100D02*
X197957600Y-95335100D01*
X196837600Y-91045100D02*
X196837600Y-91695100D01*
X196837600Y-96585100D02*
X196837600Y-95935100D01*
X195717600Y-91695100D02*
X197957600Y-91695100D01*
X197957600Y-95935100D01*
X195717600Y-95935100D01*
X195717600Y-91695100D01*
%TO.C,D16*%
X-13025500Y-57632700D02*
X-10785500Y-57632700D01*
X-13025500Y-57752700D02*
X-10785500Y-57752700D01*
X-13025500Y-57872700D02*
X-10785500Y-57872700D01*
X-11905500Y-53582700D02*
X-11905500Y-54232700D01*
X-11905500Y-59122700D02*
X-11905500Y-58472700D01*
X-13025500Y-54232700D02*
X-10785500Y-54232700D01*
X-10785500Y-58472700D01*
X-13025500Y-58472700D01*
X-13025500Y-54232700D01*
%TO.C,D7*%
X95711400Y-37948700D02*
X97951400Y-37948700D01*
X95711400Y-38068700D02*
X97951400Y-38068700D01*
X95711400Y-38188700D02*
X97951400Y-38188700D01*
X96831400Y-33898700D02*
X96831400Y-34548700D01*
X96831400Y-39438700D02*
X96831400Y-38788700D01*
X95711400Y-34548700D02*
X97951400Y-34548700D01*
X97951400Y-38788700D01*
X95711400Y-38788700D01*
X95711400Y-34548700D01*
%TO.C,D20*%
X67138200Y-57791200D02*
X69378200Y-57791200D01*
X67138200Y-57911200D02*
X69378200Y-57911200D01*
X67138200Y-58031200D02*
X69378200Y-58031200D01*
X68258200Y-53741200D02*
X68258200Y-54391200D01*
X68258200Y-59281200D02*
X68258200Y-58631200D01*
X67138200Y-54391200D02*
X69378200Y-54391200D01*
X69378200Y-58631200D01*
X67138200Y-58631200D01*
X67138200Y-54391200D01*
%TO.C,D12*%
X7610700Y-114143900D02*
X9850700Y-114143900D01*
X7610700Y-114263900D02*
X9850700Y-114263900D01*
X7610700Y-114383900D02*
X9850700Y-114383900D01*
X8730700Y-110093900D02*
X8730700Y-110743900D01*
X8730700Y-115633900D02*
X8730700Y-114983900D01*
X7610700Y-110743900D02*
X9850700Y-110743900D01*
X9850700Y-114983900D01*
X7610700Y-114983900D01*
X7610700Y-110743900D01*
%TO.C,D25*%
X162382200Y-57791200D02*
X164622200Y-57791200D01*
X162382200Y-57911200D02*
X164622200Y-57911200D01*
X162382200Y-58031200D02*
X164622200Y-58031200D01*
X163502200Y-53741200D02*
X163502200Y-54391200D01*
X163502200Y-59281200D02*
X163502200Y-58631200D01*
X162382200Y-54391200D02*
X164622200Y-54391200D01*
X164622200Y-58631200D01*
X162382200Y-58631200D01*
X162382200Y-54391200D01*
%TO.C,D57*%
X257626200Y-95095100D02*
X259866200Y-95095100D01*
X257626200Y-95215100D02*
X259866200Y-95215100D01*
X257626200Y-95335100D02*
X259866200Y-95335100D01*
X258746200Y-91045100D02*
X258746200Y-91695100D01*
X258746200Y-96585100D02*
X258746200Y-95935100D01*
X257626200Y-91695100D02*
X259866200Y-91695100D01*
X259866200Y-95935100D01*
X257626200Y-95935100D01*
X257626200Y-91695100D01*
%TO.C,D26*%
X181431000Y-57791200D02*
X183671000Y-57791200D01*
X181431000Y-57911200D02*
X183671000Y-57911200D01*
X181431000Y-58031200D02*
X183671000Y-58031200D01*
X182551000Y-53741200D02*
X182551000Y-54391200D01*
X182551000Y-59281200D02*
X182551000Y-58631200D01*
X181431000Y-54391200D02*
X183671000Y-54391200D01*
X183671000Y-58631200D01*
X181431000Y-58631200D01*
X181431000Y-54391200D01*
%TO.C,D65*%
X219528600Y-114143900D02*
X221768600Y-114143900D01*
X219528600Y-114263900D02*
X221768600Y-114263900D01*
X219528600Y-114383900D02*
X221768600Y-114383900D01*
X220648600Y-110093900D02*
X220648600Y-110743900D01*
X220648600Y-115633900D02*
X220648600Y-114983900D01*
X219528600Y-110743900D02*
X221768600Y-110743900D01*
X221768600Y-114983900D01*
X219528600Y-114983900D01*
X219528600Y-110743900D01*
%TO.C,D43*%
X227244500Y-83338500D02*
X227894500Y-83338500D01*
X228494500Y-82218500D02*
X228494500Y-84458500D01*
X228614500Y-82218500D02*
X228614500Y-84458500D01*
X228734500Y-82218500D02*
X228734500Y-84458500D01*
X232784500Y-83338500D02*
X232134500Y-83338500D01*
X227894500Y-82218500D02*
X232134500Y-82218500D01*
X232134500Y-84458500D01*
X227894500Y-84458500D01*
X227894500Y-82218500D01*
%TO.C,D61*%
X32215400Y-114143900D02*
X34455400Y-114143900D01*
X32215400Y-114263900D02*
X34455400Y-114263900D01*
X32215400Y-114383900D02*
X34455400Y-114383900D01*
X33335400Y-110093900D02*
X33335400Y-110743900D01*
X33335400Y-115633900D02*
X33335400Y-114983900D01*
X32215400Y-110743900D02*
X34455400Y-110743900D01*
X34455400Y-114983900D01*
X32215400Y-114983900D01*
X32215400Y-110743900D01*
%TO.C,D45*%
X24278400Y-95730300D02*
X26518400Y-95730300D01*
X24278400Y-95850300D02*
X26518400Y-95850300D01*
X24278400Y-95970300D02*
X26518400Y-95970300D01*
X25398400Y-91680300D02*
X25398400Y-92330300D01*
X25398400Y-97220300D02*
X25398400Y-96570300D01*
X24278400Y-92330300D02*
X26518400Y-92330300D01*
X26518400Y-96570300D01*
X24278400Y-96570300D01*
X24278400Y-92330300D01*
%TD*%
M02*
