%TF.GenerationSoftware,KiCad,Pcbnew,10.0.4*%
%TF.CreationDate,2026-07-21T18:43:59+12:00*%
%TF.ProjectId,keyboard,6b657962-6f61-4726-942e-6b696361645f,rev?*%
%TF.SameCoordinates,Original*%
%TF.FileFunction,Legend,Bot*%
%TF.FilePolarity,Positive*%
%FSLAX46Y46*%
G04 Gerber Fmt 4.6, Leading zero omitted, Abs format (unit mm)*
G04 Created by KiCad (PCBNEW 10.0.4) date 2026-07-21 18:43:59*
%MOMM*%
%LPD*%
G01*
G04 APERTURE LIST*
%ADD10C,0.150000*%
%ADD11C,0.120000*%
G04 APERTURE END LIST*
D10*
X249533339Y-71564104D02*
X249057149Y-71564104D01*
X249628577Y-71849819D02*
X249295244Y-70849819D01*
X249295244Y-70849819D02*
X248961911Y-71849819D01*
X248104768Y-71849819D02*
X248676196Y-71849819D01*
X248390482Y-71849819D02*
X248390482Y-70849819D01*
X248390482Y-70849819D02*
X248485720Y-70992676D01*
X248485720Y-70992676D02*
X248580958Y-71087914D01*
X248580958Y-71087914D02*
X248676196Y-71135533D01*
%TO.C,A1*%
D11*
X272180000Y-71630000D02*
G75*
G02*
X271570000Y-72240000I-609901J-99D01*
G01*
X271570000Y-21020000D02*
G75*
G02*
X272180000Y-21630000I0J-610000D01*
G01*
X251570000Y-72240000D02*
G75*
G02*
X250960000Y-71630000I0J610000D01*
G01*
X250960000Y-21630000D02*
G75*
G02*
X251570000Y-21020000I610000J0D01*
G01*
X272500000Y-23300000D02*
X272500000Y-21700000D01*
X272180000Y-21630000D02*
X272180000Y-71630000D01*
X271840000Y-21083000D02*
X271840000Y-72177000D01*
X271570000Y-72240000D02*
X267732061Y-72240000D01*
X271570000Y-21020000D02*
X269080000Y-21020000D01*
X269080000Y-71326480D02*
X269080000Y-72240000D01*
X269080000Y-24326480D02*
X269080000Y-68933520D01*
X269080000Y-21020000D02*
X269080000Y-21933520D01*
X269080000Y-21020000D02*
X267732060Y-21020000D01*
X266807939Y-21020000D02*
X265805000Y-21020000D01*
X265805000Y-21020000D02*
X257335000Y-21020000D01*
X265680000Y-20540000D02*
X265470000Y-20540000D01*
X265680000Y-19720000D02*
X265680000Y-20540000D01*
X265680000Y-19720000D02*
X257460000Y-19720000D01*
X265470000Y-24324000D02*
X265470000Y-25540000D01*
X265470000Y-20540000D02*
X265470000Y-21936000D01*
X265170000Y-72240000D02*
X266807939Y-72240000D01*
X257970000Y-72240000D02*
X265170000Y-72240000D01*
X257670000Y-25540000D02*
X265470000Y-25540000D01*
X257670000Y-24324000D02*
X257670000Y-25540000D01*
X257670000Y-20540000D02*
X257670000Y-21936000D01*
X257460000Y-20540000D02*
X257670000Y-20540000D01*
X257460000Y-19720000D02*
X257460000Y-20540000D01*
X257335000Y-21020000D02*
X256332061Y-21020000D01*
X256332061Y-72240000D02*
X257970000Y-72240000D01*
X255407939Y-72240000D02*
X251570000Y-72240000D01*
X255407939Y-21020000D02*
X254060000Y-21020000D01*
X254060000Y-71326480D02*
X254060000Y-72240000D01*
X254060000Y-24326480D02*
X254060000Y-68933520D01*
X254060000Y-21020000D02*
X254060000Y-21933520D01*
X251570000Y-21020000D02*
X254060000Y-21020000D01*
X251300000Y-72177000D02*
X251300000Y-21083000D01*
X250960000Y-21630000D02*
X250960000Y-71630000D01*
%TD*%
M02*
