ISO-10303-21;
HEADER;
/* Generated by software containing ST-Developer
 * from STEP Tools, Inc. (www.steptools.com) 
 */
/* OPTION: using custom renumber hook */

FILE_DESCRIPTION(
/* description */ ('STEP AP242 Edition 2',
'CAx-IF Rec.Pracs.---Representation and Presentation of Product Manufa
cturing Information (PMI)---4.0---2014-10-13',
'CAx-IF Rec.Pracs.---3D Tessellated Geometry---0.4---2014-09-14','2;1',
'CAx-IF Rec.Pracs.---User Defined Attributes---1.5---2016-08-15'),
/* implementation_level */ '2;1');

FILE_NAME(
/* name */ 'Part Studio 3 - Part 4',
/* time_stamp */ '2026-07-28T10:09:42Z',
/* author */ (''),
/* organization */ (''),
/* preprocessor_version */ 'ST-DEVELOPER v20',
/* originating_system */ 'ONSHAPE BY PTC INC, 1.218',
/* authorisation */ '  ');

FILE_SCHEMA (('AP242_MANAGED_MODEL_BASED_3D_ENGINEERING_MIM_LF { 1 0 10303 442 3 1 4 }'));
ENDSEC;

DATA;
#10=SHAPE_REPRESENTATION_RELATIONSHIP('','',#922,#11);
#11=ADVANCED_BREP_SHAPE_REPRESENTATION('',(#920),#1454);
#12=CYLINDRICAL_SURFACE('',#948,0.0025);
#13=CYLINDRICAL_SURFACE('',#951,0.0025);
#14=CIRCLE('',#928,0.0025);
#15=CIRCLE('',#929,0.0025);
#16=CIRCLE('',#949,0.0025);
#17=CIRCLE('',#952,0.0025);
#18=ORIENTED_EDGE('',*,*,#268,.F.);
#19=ORIENTED_EDGE('',*,*,#269,.T.);
#20=ORIENTED_EDGE('',*,*,#270,.F.);
#21=ORIENTED_EDGE('',*,*,#271,.F.);
#22=ORIENTED_EDGE('',*,*,#272,.F.);
#23=ORIENTED_EDGE('',*,*,#273,.T.);
#24=ORIENTED_EDGE('',*,*,#274,.F.);
#25=ORIENTED_EDGE('',*,*,#275,.T.);
#26=ORIENTED_EDGE('',*,*,#276,.T.);
#27=ORIENTED_EDGE('',*,*,#277,.F.);
#28=ORIENTED_EDGE('',*,*,#278,.T.);
#29=ORIENTED_EDGE('',*,*,#279,.T.);
#30=ORIENTED_EDGE('',*,*,#280,.F.);
#31=ORIENTED_EDGE('',*,*,#281,.F.);
#32=ORIENTED_EDGE('',*,*,#282,.T.);
#33=ORIENTED_EDGE('',*,*,#283,.F.);
#34=ORIENTED_EDGE('',*,*,#284,.T.);
#35=ORIENTED_EDGE('',*,*,#285,.F.);
#36=ORIENTED_EDGE('',*,*,#286,.F.);
#37=ORIENTED_EDGE('',*,*,#287,.F.);
#38=ORIENTED_EDGE('',*,*,#278,.F.);
#39=ORIENTED_EDGE('',*,*,#288,.F.);
#40=ORIENTED_EDGE('',*,*,#289,.F.);
#41=ORIENTED_EDGE('',*,*,#290,.F.);
#42=ORIENTED_EDGE('',*,*,#291,.F.);
#43=ORIENTED_EDGE('',*,*,#292,.F.);
#44=ORIENTED_EDGE('',*,*,#293,.T.);
#45=ORIENTED_EDGE('',*,*,#294,.T.);
#46=ORIENTED_EDGE('',*,*,#295,.F.);
#47=ORIENTED_EDGE('',*,*,#296,.T.);
#48=ORIENTED_EDGE('',*,*,#282,.F.);
#49=ORIENTED_EDGE('',*,*,#297,.F.);
#50=ORIENTED_EDGE('',*,*,#298,.F.);
#51=ORIENTED_EDGE('',*,*,#299,.F.);
#52=ORIENTED_EDGE('',*,*,#300,.T.);
#53=ORIENTED_EDGE('',*,*,#301,.T.);
#54=ORIENTED_EDGE('',*,*,#276,.F.);
#55=ORIENTED_EDGE('',*,*,#302,.F.);
#56=ORIENTED_EDGE('',*,*,#303,.T.);
#57=ORIENTED_EDGE('',*,*,#304,.T.);
#58=ORIENTED_EDGE('',*,*,#284,.F.);
#59=ORIENTED_EDGE('',*,*,#305,.T.);
#60=ORIENTED_EDGE('',*,*,#306,.F.);
#61=ORIENTED_EDGE('',*,*,#307,.F.);
#62=ORIENTED_EDGE('',*,*,#308,.T.);
#63=ORIENTED_EDGE('',*,*,#309,.F.);
#64=ORIENTED_EDGE('',*,*,#310,.T.);
#65=ORIENTED_EDGE('',*,*,#311,.T.);
#66=ORIENTED_EDGE('',*,*,#312,.F.);
#67=ORIENTED_EDGE('',*,*,#313,.T.);
#68=ORIENTED_EDGE('',*,*,#314,.T.);
#69=ORIENTED_EDGE('',*,*,#315,.T.);
#70=ORIENTED_EDGE('',*,*,#305,.F.);
#71=ORIENTED_EDGE('',*,*,#283,.T.);
#72=ORIENTED_EDGE('',*,*,#299,.T.);
#73=ORIENTED_EDGE('',*,*,#316,.T.);
#74=ORIENTED_EDGE('',*,*,#317,.F.);
#75=ORIENTED_EDGE('',*,*,#318,.T.);
#76=ORIENTED_EDGE('',*,*,#319,.T.);
#77=ORIENTED_EDGE('',*,*,#320,.F.);
#78=ORIENTED_EDGE('',*,*,#321,.T.);
#79=ORIENTED_EDGE('',*,*,#285,.T.);
#80=ORIENTED_EDGE('',*,*,#304,.F.);
#81=ORIENTED_EDGE('',*,*,#322,.F.);
#82=ORIENTED_EDGE('',*,*,#288,.T.);
#83=ORIENTED_EDGE('',*,*,#277,.T.);
#84=ORIENTED_EDGE('',*,*,#315,.F.);
#85=ORIENTED_EDGE('',*,*,#323,.F.);
#86=ORIENTED_EDGE('',*,*,#275,.F.);
#87=ORIENTED_EDGE('',*,*,#324,.F.);
#88=ORIENTED_EDGE('',*,*,#325,.T.);
#89=ORIENTED_EDGE('',*,*,#302,.T.);
#90=ORIENTED_EDGE('',*,*,#326,.F.);
#91=ORIENTED_EDGE('',*,*,#286,.T.);
#92=ORIENTED_EDGE('',*,*,#321,.F.);
#93=ORIENTED_EDGE('',*,*,#327,.F.);
#94=ORIENTED_EDGE('',*,*,#324,.T.);
#95=ORIENTED_EDGE('',*,*,#274,.T.);
#96=ORIENTED_EDGE('',*,*,#328,.F.);
#97=ORIENTED_EDGE('',*,*,#329,.T.);
#98=ORIENTED_EDGE('',*,*,#330,.T.);
#99=ORIENTED_EDGE('',*,*,#270,.T.);
#100=ORIENTED_EDGE('',*,*,#331,.T.);
#101=ORIENTED_EDGE('',*,*,#332,.F.);
#102=ORIENTED_EDGE('',*,*,#279,.F.);
#103=ORIENTED_EDGE('',*,*,#296,.F.);
#104=ORIENTED_EDGE('',*,*,#333,.F.);
#105=ORIENTED_EDGE('',*,*,#334,.F.);
#106=ORIENTED_EDGE('',*,*,#297,.T.);
#107=ORIENTED_EDGE('',*,*,#281,.T.);
#108=ORIENTED_EDGE('',*,*,#335,.T.);
#109=ORIENTED_EDGE('',*,*,#336,.F.);
#110=ORIENTED_EDGE('',*,*,#335,.F.);
#111=ORIENTED_EDGE('',*,*,#280,.T.);
#112=ORIENTED_EDGE('',*,*,#334,.T.);
#113=ORIENTED_EDGE('',*,*,#337,.F.);
#114=ORIENTED_EDGE('',*,*,#338,.F.);
#115=ORIENTED_EDGE('',*,*,#339,.T.);
#116=ORIENTED_EDGE('',*,*,#340,.T.);
#117=ORIENTED_EDGE('',*,*,#341,.F.);
#118=ORIENTED_EDGE('',*,*,#342,.F.);
#119=ORIENTED_EDGE('',*,*,#343,.F.);
#120=ORIENTED_EDGE('',*,*,#344,.F.);
#121=ORIENTED_EDGE('',*,*,#345,.F.);
#122=ORIENTED_EDGE('',*,*,#338,.T.);
#123=ORIENTED_EDGE('',*,*,#346,.T.);
#124=ORIENTED_EDGE('',*,*,#345,.T.);
#125=ORIENTED_EDGE('',*,*,#347,.F.);
#126=ORIENTED_EDGE('',*,*,#292,.T.);
#127=ORIENTED_EDGE('',*,*,#348,.T.);
#128=ORIENTED_EDGE('',*,*,#349,.F.);
#129=ORIENTED_EDGE('',*,*,#350,.T.);
#130=ORIENTED_EDGE('',*,*,#340,.F.);
#131=ORIENTED_EDGE('',*,*,#351,.T.);
#132=ORIENTED_EDGE('',*,*,#352,.F.);
#133=ORIENTED_EDGE('',*,*,#353,.F.);
#134=ORIENTED_EDGE('',*,*,#298,.T.);
#135=ORIENTED_EDGE('',*,*,#336,.T.);
#136=ORIENTED_EDGE('',*,*,#341,.T.);
#137=ORIENTED_EDGE('',*,*,#353,.T.);
#138=ORIENTED_EDGE('',*,*,#354,.F.);
#139=ORIENTED_EDGE('',*,*,#355,.F.);
#140=ORIENTED_EDGE('',*,*,#306,.T.);
#141=ORIENTED_EDGE('',*,*,#316,.F.);
#142=ORIENTED_EDGE('',*,*,#339,.F.);
#143=ORIENTED_EDGE('',*,*,#350,.F.);
#144=ORIENTED_EDGE('',*,*,#356,.T.);
#145=ORIENTED_EDGE('',*,*,#351,.F.);
#146=ORIENTED_EDGE('',*,*,#357,.F.);
#147=ORIENTED_EDGE('',*,*,#294,.F.);
#148=ORIENTED_EDGE('',*,*,#358,.F.);
#149=ORIENTED_EDGE('',*,*,#343,.T.);
#150=ORIENTED_EDGE('',*,*,#359,.F.);
#151=ORIENTED_EDGE('',*,*,#308,.F.);
#152=ORIENTED_EDGE('',*,*,#360,.T.);
#153=ORIENTED_EDGE('',*,*,#361,.F.);
#154=ORIENTED_EDGE('',*,*,#313,.F.);
#155=ORIENTED_EDGE('',*,*,#362,.T.);
#156=ORIENTED_EDGE('',*,*,#290,.T.);
#157=ORIENTED_EDGE('',*,*,#363,.T.);
#158=ORIENTED_EDGE('',*,*,#314,.F.);
#159=ORIENTED_EDGE('',*,*,#363,.F.);
#160=ORIENTED_EDGE('',*,*,#289,.T.);
#161=ORIENTED_EDGE('',*,*,#323,.T.);
#162=ORIENTED_EDGE('',*,*,#303,.F.);
#163=ORIENTED_EDGE('',*,*,#325,.F.);
#164=ORIENTED_EDGE('',*,*,#327,.T.);
#165=ORIENTED_EDGE('',*,*,#322,.T.);
#166=ORIENTED_EDGE('',*,*,#364,.T.);
#167=ORIENTED_EDGE('',*,*,#301,.F.);
#168=ORIENTED_EDGE('',*,*,#364,.F.);
#169=ORIENTED_EDGE('',*,*,#365,.T.);
#170=ORIENTED_EDGE('',*,*,#300,.F.);
#171=ORIENTED_EDGE('',*,*,#365,.F.);
#172=ORIENTED_EDGE('',*,*,#318,.F.);
#173=ORIENTED_EDGE('',*,*,#366,.F.);
#174=ORIENTED_EDGE('',*,*,#367,.F.);
#175=ORIENTED_EDGE('',*,*,#354,.T.);
#176=ORIENTED_EDGE('',*,*,#352,.T.);
#177=ORIENTED_EDGE('',*,*,#356,.F.);
#178=ORIENTED_EDGE('',*,*,#349,.T.);
#179=ORIENTED_EDGE('',*,*,#368,.T.);
#180=ORIENTED_EDGE('',*,*,#369,.T.);
#181=ORIENTED_EDGE('',*,*,#370,.T.);
#182=ORIENTED_EDGE('',*,*,#371,.F.);
#183=ORIENTED_EDGE('',*,*,#372,.T.);
#184=ORIENTED_EDGE('',*,*,#366,.T.);
#185=ORIENTED_EDGE('',*,*,#317,.T.);
#186=ORIENTED_EDGE('',*,*,#373,.F.);
#187=ORIENTED_EDGE('',*,*,#374,.T.);
#188=ORIENTED_EDGE('',*,*,#361,.T.);
#189=ORIENTED_EDGE('',*,*,#371,.T.);
#190=ORIENTED_EDGE('',*,*,#320,.T.);
#191=ORIENTED_EDGE('',*,*,#375,.F.);
#192=ORIENTED_EDGE('',*,*,#376,.T.);
#193=ORIENTED_EDGE('',*,*,#373,.T.);
#194=ORIENTED_EDGE('',*,*,#319,.F.);
#195=ORIENTED_EDGE('',*,*,#370,.F.);
#196=ORIENTED_EDGE('',*,*,#311,.F.);
#197=ORIENTED_EDGE('',*,*,#377,.T.);
#198=ORIENTED_EDGE('',*,*,#378,.T.);
#199=ORIENTED_EDGE('',*,*,#375,.T.);
#200=ORIENTED_EDGE('',*,*,#369,.F.);
#201=ORIENTED_EDGE('',*,*,#379,.F.);
#202=ORIENTED_EDGE('',*,*,#312,.T.);
#203=ORIENTED_EDGE('',*,*,#379,.T.);
#204=ORIENTED_EDGE('',*,*,#368,.F.);
#205=ORIENTED_EDGE('',*,*,#348,.F.);
#206=ORIENTED_EDGE('',*,*,#291,.T.);
#207=ORIENTED_EDGE('',*,*,#362,.F.);
#208=ORIENTED_EDGE('',*,*,#344,.T.);
#209=ORIENTED_EDGE('',*,*,#358,.T.);
#210=ORIENTED_EDGE('',*,*,#293,.F.);
#211=ORIENTED_EDGE('',*,*,#347,.T.);
#212=ORIENTED_EDGE('',*,*,#307,.T.);
#213=ORIENTED_EDGE('',*,*,#355,.T.);
#214=ORIENTED_EDGE('',*,*,#367,.T.);
#215=ORIENTED_EDGE('',*,*,#372,.F.);
#216=ORIENTED_EDGE('',*,*,#360,.F.);
#217=ORIENTED_EDGE('',*,*,#380,.T.);
#218=ORIENTED_EDGE('',*,*,#381,.T.);
#219=ORIENTED_EDGE('',*,*,#377,.F.);
#220=ORIENTED_EDGE('',*,*,#310,.F.);
#221=ORIENTED_EDGE('',*,*,#378,.F.);
#222=ORIENTED_EDGE('',*,*,#381,.F.);
#223=ORIENTED_EDGE('',*,*,#382,.T.);
#224=ORIENTED_EDGE('',*,*,#376,.F.);
#225=ORIENTED_EDGE('',*,*,#309,.T.);
#226=ORIENTED_EDGE('',*,*,#359,.T.);
#227=ORIENTED_EDGE('',*,*,#374,.F.);
#228=ORIENTED_EDGE('',*,*,#382,.F.);
#229=ORIENTED_EDGE('',*,*,#380,.F.);
#230=ORIENTED_EDGE('',*,*,#337,.T.);
#231=ORIENTED_EDGE('',*,*,#333,.T.);
#232=ORIENTED_EDGE('',*,*,#295,.T.);
#233=ORIENTED_EDGE('',*,*,#357,.T.);
#234=ORIENTED_EDGE('',*,*,#342,.T.);
#235=ORIENTED_EDGE('',*,*,#346,.F.);
#236=ORIENTED_EDGE('',*,*,#329,.F.);
#237=ORIENTED_EDGE('',*,*,#383,.F.);
#238=ORIENTED_EDGE('',*,*,#384,.T.);
#239=ORIENTED_EDGE('',*,*,#385,.T.);
#240=ORIENTED_EDGE('',*,*,#328,.T.);
#241=ORIENTED_EDGE('',*,*,#273,.F.);
#242=ORIENTED_EDGE('',*,*,#386,.F.);
#243=ORIENTED_EDGE('',*,*,#383,.T.);
#244=ORIENTED_EDGE('',*,*,#330,.F.);
#245=ORIENTED_EDGE('',*,*,#385,.F.);
#246=ORIENTED_EDGE('',*,*,#387,.T.);
#247=ORIENTED_EDGE('',*,*,#271,.T.);
#248=ORIENTED_EDGE('',*,*,#384,.F.);
#249=ORIENTED_EDGE('',*,*,#386,.T.);
#250=ORIENTED_EDGE('',*,*,#272,.T.);
#251=ORIENTED_EDGE('',*,*,#387,.F.);
#252=ORIENTED_EDGE('',*,*,#326,.T.);
#253=ORIENTED_EDGE('',*,*,#388,.F.);
#254=ORIENTED_EDGE('',*,*,#389,.F.);
#255=ORIENTED_EDGE('',*,*,#287,.T.);
#256=ORIENTED_EDGE('',*,*,#332,.T.);
#257=ORIENTED_EDGE('',*,*,#390,.F.);
#258=ORIENTED_EDGE('',*,*,#391,.F.);
#259=ORIENTED_EDGE('',*,*,#388,.T.);
#260=ORIENTED_EDGE('',*,*,#331,.F.);
#261=ORIENTED_EDGE('',*,*,#269,.F.);
#262=ORIENTED_EDGE('',*,*,#392,.T.);
#263=ORIENTED_EDGE('',*,*,#390,.T.);
#264=ORIENTED_EDGE('',*,*,#268,.T.);
#265=ORIENTED_EDGE('',*,*,#389,.T.);
#266=ORIENTED_EDGE('',*,*,#391,.T.);
#267=ORIENTED_EDGE('',*,*,#392,.F.);
#268=EDGE_CURVE('',#393,#394,#477,.T.);
#269=EDGE_CURVE('',#393,#395,#478,.T.);
#270=EDGE_CURVE('',#396,#395,#479,.T.);
#271=EDGE_CURVE('',#397,#396,#480,.T.);
#272=EDGE_CURVE('',#398,#397,#481,.T.);
#273=EDGE_CURVE('',#398,#399,#482,.T.);
#274=EDGE_CURVE('',#400,#399,#483,.T.);
#275=EDGE_CURVE('',#400,#401,#484,.T.);
#276=EDGE_CURVE('',#401,#402,#485,.T.);
#277=EDGE_CURVE('',#403,#402,#486,.T.);
#278=EDGE_CURVE('',#403,#404,#487,.T.);
#279=EDGE_CURVE('',#404,#405,#488,.T.);
#280=EDGE_CURVE('',#406,#405,#489,.T.);
#281=EDGE_CURVE('',#407,#406,#490,.T.);
#282=EDGE_CURVE('',#407,#408,#491,.T.);
#283=EDGE_CURVE('',#409,#408,#492,.T.);
#284=EDGE_CURVE('',#409,#410,#493,.T.);
#285=EDGE_CURVE('',#411,#410,#494,.T.);
#286=EDGE_CURVE('',#412,#411,#495,.T.);
#287=EDGE_CURVE('',#394,#412,#496,.T.);
#288=EDGE_CURVE('',#413,#403,#497,.F.);
#289=EDGE_CURVE('',#414,#413,#498,.F.);
#290=EDGE_CURVE('',#415,#414,#499,.T.);
#291=EDGE_CURVE('',#416,#415,#500,.T.);
#292=EDGE_CURVE('',#417,#416,#501,.T.);
#293=EDGE_CURVE('',#417,#418,#502,.T.);
#294=EDGE_CURVE('',#418,#419,#503,.T.);
#295=EDGE_CURVE('',#420,#419,#504,.T.);
#296=EDGE_CURVE('',#420,#404,#505,.T.);
#297=EDGE_CURVE('',#421,#407,#506,.T.);
#298=EDGE_CURVE('',#422,#421,#507,.T.);
#299=EDGE_CURVE('',#408,#422,#508,.T.);
#300=EDGE_CURVE('',#423,#423,#14,.T.);
#301=EDGE_CURVE('',#424,#424,#15,.T.);
#302=EDGE_CURVE('',#425,#401,#509,.T.);
#303=EDGE_CURVE('',#425,#426,#510,.T.);
#304=EDGE_CURVE('',#426,#410,#511,.T.);
#305=EDGE_CURVE('',#409,#427,#512,.T.);
#306=EDGE_CURVE('',#428,#427,#513,.T.);
#307=EDGE_CURVE('',#429,#428,#514,.T.);
#308=EDGE_CURVE('',#429,#430,#515,.T.);
#309=EDGE_CURVE('',#431,#430,#516,.T.);
#310=EDGE_CURVE('',#431,#432,#517,.T.);
#311=EDGE_CURVE('',#432,#433,#518,.T.);
#312=EDGE_CURVE('',#434,#433,#519,.T.);
#313=EDGE_CURVE('',#434,#435,#520,.T.);
#314=EDGE_CURVE('',#435,#436,#521,.F.);
#315=EDGE_CURVE('',#436,#402,#522,.F.);
#316=EDGE_CURVE('',#422,#427,#523,.T.);
#317=EDGE_CURVE('',#437,#438,#524,.T.);
#318=EDGE_CURVE('',#437,#439,#525,.T.);
#319=EDGE_CURVE('',#439,#440,#526,.T.);
#320=EDGE_CURVE('',#438,#440,#527,.T.);
#321=EDGE_CURVE('',#441,#411,#528,.T.);
#322=EDGE_CURVE('',#441,#426,#529,.T.);
#323=EDGE_CURVE('',#413,#436,#530,.T.);
#324=EDGE_CURVE('',#442,#400,#531,.T.);
#325=EDGE_CURVE('',#442,#425,#532,.T.);
#326=EDGE_CURVE('',#412,#443,#533,.T.);
#327=EDGE_CURVE('',#442,#441,#534,.T.);
#328=EDGE_CURVE('',#444,#399,#535,.T.);
#329=EDGE_CURVE('',#444,#445,#536,.T.);
#330=EDGE_CURVE('',#445,#396,#537,.T.);
#331=EDGE_CURVE('',#395,#446,#538,.T.);
#332=EDGE_CURVE('',#443,#446,#539,.T.);
#333=EDGE_CURVE('',#447,#420,#540,.T.);
#334=EDGE_CURVE('',#405,#447,#541,.T.);
#335=EDGE_CURVE('',#406,#448,#542,.T.);
#336=EDGE_CURVE('',#421,#448,#543,.T.);
#337=EDGE_CURVE('',#449,#447,#544,.T.);
#338=EDGE_CURVE('',#450,#449,#545,.T.);
#339=EDGE_CURVE('',#450,#451,#546,.T.);
#340=EDGE_CURVE('',#451,#452,#547,.T.);
#341=EDGE_CURVE('',#448,#452,#548,.T.);
#342=EDGE_CURVE('',#453,#454,#549,.T.);
#343=EDGE_CURVE('',#455,#453,#550,.T.);
#344=EDGE_CURVE('',#456,#455,#551,.T.);
#345=EDGE_CURVE('',#454,#456,#552,.T.);
#346=EDGE_CURVE('',#449,#454,#553,.T.);
#347=EDGE_CURVE('',#417,#456,#554,.T.);
#348=EDGE_CURVE('',#416,#457,#555,.T.);
#349=EDGE_CURVE('',#458,#457,#556,.T.);
#350=EDGE_CURVE('',#458,#450,#557,.T.);
#351=EDGE_CURVE('',#451,#459,#558,.T.);
#352=EDGE_CURVE('',#460,#459,#559,.T.);
#353=EDGE_CURVE('',#452,#460,#560,.T.);
#354=EDGE_CURVE('',#461,#460,#561,.T.);
#355=EDGE_CURVE('',#428,#461,#562,.T.);
#356=EDGE_CURVE('',#458,#459,#563,.T.);
#357=EDGE_CURVE('',#419,#453,#564,.T.);
#358=EDGE_CURVE('',#455,#418,#565,.T.);
#359=EDGE_CURVE('',#430,#462,#566,.T.);
#360=EDGE_CURVE('',#429,#463,#567,.T.);
#361=EDGE_CURVE('',#462,#463,#568,.T.);
#362=EDGE_CURVE('',#434,#415,#569,.T.);
#363=EDGE_CURVE('',#414,#435,#570,.T.);
#364=EDGE_CURVE('',#464,#464,#16,.T.);
#365=EDGE_CURVE('',#465,#465,#17,.T.);
#366=EDGE_CURVE('',#466,#437,#571,.T.);
#367=EDGE_CURVE('',#461,#466,#572,.T.);
#368=EDGE_CURVE('',#457,#467,#573,.T.);
#369=EDGE_CURVE('',#467,#468,#574,.T.);
#370=EDGE_CURVE('',#468,#439,#575,.T.);
#371=EDGE_CURVE('',#463,#438,#576,.T.);
#372=EDGE_CURVE('',#463,#466,#577,.T.);
#373=EDGE_CURVE('',#469,#440,#578,.T.);
#374=EDGE_CURVE('',#469,#462,#579,.T.);
#375=EDGE_CURVE('',#470,#468,#580,.T.);
#376=EDGE_CURVE('',#470,#469,#581,.T.);
#377=EDGE_CURVE('',#432,#471,#582,.T.);
#378=EDGE_CURVE('',#471,#470,#583,.T.);
#379=EDGE_CURVE('',#433,#467,#584,.T.);
#380=EDGE_CURVE('',#431,#472,#585,.T.);
#381=EDGE_CURVE('',#472,#471,#586,.T.);
#382=EDGE_CURVE('',#472,#469,#587,.T.);
#383=EDGE_CURVE('',#473,#444,#588,.T.);
#384=EDGE_CURVE('',#473,#474,#589,.T.);
#385=EDGE_CURVE('',#474,#445,#590,.T.);
#386=EDGE_CURVE('',#473,#398,#591,.T.);
#387=EDGE_CURVE('',#474,#397,#592,.T.);
#388=EDGE_CURVE('',#475,#443,#593,.T.);
#389=EDGE_CURVE('',#394,#475,#594,.T.);
#390=EDGE_CURVE('',#476,#446,#595,.T.);
#391=EDGE_CURVE('',#475,#476,#596,.T.);
#392=EDGE_CURVE('',#393,#476,#597,.T.);
#393=VERTEX_POINT('',#1200);
#394=VERTEX_POINT('',#1201);
#395=VERTEX_POINT('',#1203);
#396=VERTEX_POINT('',#1205);
#397=VERTEX_POINT('',#1207);
#398=VERTEX_POINT('',#1209);
#399=VERTEX_POINT('',#1211);
#400=VERTEX_POINT('',#1213);
#401=VERTEX_POINT('',#1215);
#402=VERTEX_POINT('',#1217);
#403=VERTEX_POINT('',#1219);
#404=VERTEX_POINT('',#1221);
#405=VERTEX_POINT('',#1223);
#406=VERTEX_POINT('',#1225);
#407=VERTEX_POINT('',#1227);
#408=VERTEX_POINT('',#1229);
#409=VERTEX_POINT('',#1231);
#410=VERTEX_POINT('',#1233);
#411=VERTEX_POINT('',#1235);
#412=VERTEX_POINT('',#1237);
#413=VERTEX_POINT('',#1241);
#414=VERTEX_POINT('',#1243);
#415=VERTEX_POINT('',#1245);
#416=VERTEX_POINT('',#1247);
#417=VERTEX_POINT('',#1249);
#418=VERTEX_POINT('',#1251);
#419=VERTEX_POINT('',#1253);
#420=VERTEX_POINT('',#1255);
#421=VERTEX_POINT('',#1259);
#422=VERTEX_POINT('',#1261);
#423=VERTEX_POINT('',#1265);
#424=VERTEX_POINT('',#1267);
#425=VERTEX_POINT('',#1269);
#426=VERTEX_POINT('',#1271);
#427=VERTEX_POINT('',#1274);
#428=VERTEX_POINT('',#1276);
#429=VERTEX_POINT('',#1278);
#430=VERTEX_POINT('',#1280);
#431=VERTEX_POINT('',#1282);
#432=VERTEX_POINT('',#1284);
#433=VERTEX_POINT('',#1286);
#434=VERTEX_POINT('',#1288);
#435=VERTEX_POINT('',#1290);
#436=VERTEX_POINT('',#1292);
#437=VERTEX_POINT('',#1298);
#438=VERTEX_POINT('',#1299);
#439=VERTEX_POINT('',#1301);
#440=VERTEX_POINT('',#1303);
#441=VERTEX_POINT('',#1306);
#442=VERTEX_POINT('',#1312);
#443=VERTEX_POINT('',#1316);
#444=VERTEX_POINT('',#1319);
#445=VERTEX_POINT('',#1321);
#446=VERTEX_POINT('',#1324);
#447=VERTEX_POINT('',#1328);
#448=VERTEX_POINT('',#1332);
#449=VERTEX_POINT('',#1336);
#450=VERTEX_POINT('',#1338);
#451=VERTEX_POINT('',#1340);
#452=VERTEX_POINT('',#1342);
#453=VERTEX_POINT('',#1346);
#454=VERTEX_POINT('',#1347);
#455=VERTEX_POINT('',#1349);
#456=VERTEX_POINT('',#1351);
#457=VERTEX_POINT('',#1357);
#458=VERTEX_POINT('',#1359);
#459=VERTEX_POINT('',#1363);
#460=VERTEX_POINT('',#1365);
#461=VERTEX_POINT('',#1369);
#462=VERTEX_POINT('',#1378);
#463=VERTEX_POINT('',#1380);
#464=VERTEX_POINT('',#1389);
#465=VERTEX_POINT('',#1393);
#466=VERTEX_POINT('',#1397);
#467=VERTEX_POINT('',#1400);
#468=VERTEX_POINT('',#1402);
#469=VERTEX_POINT('',#1409);
#470=VERTEX_POINT('',#1413);
#471=VERTEX_POINT('',#1417);
#472=VERTEX_POINT('',#1425);
#473=VERTEX_POINT('',#1433);
#474=VERTEX_POINT('',#1435);
#475=VERTEX_POINT('',#1444);
#476=VERTEX_POINT('',#1448);
#477=LINE('',#1199,#598);
#478=LINE('',#1202,#599);
#479=LINE('',#1204,#600);
#480=LINE('',#1206,#601);
#481=LINE('',#1208,#602);
#482=LINE('',#1210,#603);
#483=LINE('',#1212,#604);
#484=LINE('',#1214,#605);
#485=LINE('',#1216,#606);
#486=LINE('',#1218,#607);
#487=LINE('',#1220,#608);
#488=LINE('',#1222,#609);
#489=LINE('',#1224,#610);
#490=LINE('',#1226,#611);
#491=LINE('',#1228,#612);
#492=LINE('',#1230,#613);
#493=LINE('',#1232,#614);
#494=LINE('',#1234,#615);
#495=LINE('',#1236,#616);
#496=LINE('',#1238,#617);
#497=LINE('',#1240,#618);
#498=LINE('',#1242,#619);
#499=LINE('',#1244,#620);
#500=LINE('',#1246,#621);
#501=LINE('',#1248,#622);
#502=LINE('',#1250,#623);
#503=LINE('',#1252,#624);
#504=LINE('',#1254,#625);
#505=LINE('',#1256,#626);
#506=LINE('',#1258,#627);
#507=LINE('',#1260,#628);
#508=LINE('',#1262,#629);
#509=LINE('',#1268,#630);
#510=LINE('',#1270,#631);
#511=LINE('',#1272,#632);
#512=LINE('',#1273,#633);
#513=LINE('',#1275,#634);
#514=LINE('',#1277,#635);
#515=LINE('',#1279,#636);
#516=LINE('',#1281,#637);
#517=LINE('',#1283,#638);
#518=LINE('',#1285,#639);
#519=LINE('',#1287,#640);
#520=LINE('',#1289,#641);
#521=LINE('',#1291,#642);
#522=LINE('',#1293,#643);
#523=LINE('',#1295,#644);
#524=LINE('',#1297,#645);
#525=LINE('',#1300,#646);
#526=LINE('',#1302,#647);
#527=LINE('',#1304,#648);
#528=LINE('',#1305,#649);
#529=LINE('',#1307,#650);
#530=LINE('',#1309,#651);
#531=LINE('',#1311,#652);
#532=LINE('',#1313,#653);
#533=LINE('',#1315,#654);
#534=LINE('',#1317,#655);
#535=LINE('',#1318,#656);
#536=LINE('',#1320,#657);
#537=LINE('',#1322,#658);
#538=LINE('',#1323,#659);
#539=LINE('',#1325,#660);
#540=LINE('',#1327,#661);
#541=LINE('',#1329,#662);
#542=LINE('',#1331,#663);
#543=LINE('',#1333,#664);
#544=LINE('',#1335,#665);
#545=LINE('',#1337,#666);
#546=LINE('',#1339,#667);
#547=LINE('',#1341,#668);
#548=LINE('',#1343,#669);
#549=LINE('',#1345,#670);
#550=LINE('',#1348,#671);
#551=LINE('',#1350,#672);
#552=LINE('',#1352,#673);
#553=LINE('',#1354,#674);
#554=LINE('',#1355,#675);
#555=LINE('',#1356,#676);
#556=LINE('',#1358,#677);
#557=LINE('',#1360,#678);
#558=LINE('',#1362,#679);
#559=LINE('',#1364,#680);
#560=LINE('',#1366,#681);
#561=LINE('',#1368,#682);
#562=LINE('',#1370,#683);
#563=LINE('',#1372,#684);
#564=LINE('',#1374,#685);
#565=LINE('',#1375,#686);
#566=LINE('',#1377,#687);
#567=LINE('',#1379,#688);
#568=LINE('',#1381,#689);
#569=LINE('',#1383,#690);
#570=LINE('',#1384,#691);
#571=LINE('',#1396,#692);
#572=LINE('',#1398,#693);
#573=LINE('',#1399,#694);
#574=LINE('',#1401,#695);
#575=LINE('',#1403,#696);
#576=LINE('',#1405,#697);
#577=LINE('',#1406,#698);
#578=LINE('',#1408,#699);
#579=LINE('',#1410,#700);
#580=LINE('',#1412,#701);
#581=LINE('',#1414,#702);
#582=LINE('',#1416,#703);
#583=LINE('',#1418,#704);
#584=LINE('',#1419,#705);
#585=LINE('',#1424,#706);
#586=LINE('',#1426,#707);
#587=LINE('',#1428,#708);
#588=LINE('',#1432,#709);
#589=LINE('',#1434,#710);
#590=LINE('',#1436,#711);
#591=LINE('',#1438,#712);
#592=LINE('',#1440,#713);
#593=LINE('',#1443,#714);
#594=LINE('',#1445,#715);
#595=LINE('',#1447,#716);
#596=LINE('',#1449,#717);
#597=LINE('',#1451,#718);
#598=VECTOR('',#978,1.);
#599=VECTOR('',#979,1.);
#600=VECTOR('',#980,1.);
#601=VECTOR('',#981,1.);
#602=VECTOR('',#982,1.);
#603=VECTOR('',#983,1.);
#604=VECTOR('',#984,1.);
#605=VECTOR('',#985,1.);
#606=VECTOR('',#986,1.);
#607=VECTOR('',#987,1.);
#608=VECTOR('',#988,1.);
#609=VECTOR('',#989,1.);
#610=VECTOR('',#990,1.);
#611=VECTOR('',#991,1.);
#612=VECTOR('',#992,1.);
#613=VECTOR('',#993,1.);
#614=VECTOR('',#994,1.);
#615=VECTOR('',#995,1.);
#616=VECTOR('',#996,1.);
#617=VECTOR('',#997,1.);
#618=VECTOR('',#1000,1.);
#619=VECTOR('',#1001,1.);
#620=VECTOR('',#1002,1.);
#621=VECTOR('',#1003,1.);
#622=VECTOR('',#1004,1.);
#623=VECTOR('',#1005,1.);
#624=VECTOR('',#1006,1.);
#625=VECTOR('',#1007,1.);
#626=VECTOR('',#1008,1.);
#627=VECTOR('',#1011,1.);
#628=VECTOR('',#1012,1.);
#629=VECTOR('',#1013,1.);
#630=VECTOR('',#1020,1.);
#631=VECTOR('',#1021,1.);
#632=VECTOR('',#1022,1.);
#633=VECTOR('',#1023,1.);
#634=VECTOR('',#1024,1.);
#635=VECTOR('',#1025,1.);
#636=VECTOR('',#1026,1.);
#637=VECTOR('',#1027,1.);
#638=VECTOR('',#1028,1.);
#639=VECTOR('',#1029,1.);
#640=VECTOR('',#1030,1.);
#641=VECTOR('',#1031,1.);
#642=VECTOR('',#1032,1.);
#643=VECTOR('',#1033,1.);
#644=VECTOR('',#1036,1.);
#645=VECTOR('',#1039,1.);
#646=VECTOR('',#1040,1.);
#647=VECTOR('',#1041,1.);
#648=VECTOR('',#1042,1.);
#649=VECTOR('',#1043,1.);
#650=VECTOR('',#1044,1.);
#651=VECTOR('',#1047,1.);
#652=VECTOR('',#1050,1.);
#653=VECTOR('',#1051,1.);
#654=VECTOR('',#1054,1.);
#655=VECTOR('',#1055,1.);
#656=VECTOR('',#1056,1.);
#657=VECTOR('',#1057,1.);
#658=VECTOR('',#1058,1.);
#659=VECTOR('',#1059,1.);
#660=VECTOR('',#1060,1.);
#661=VECTOR('',#1063,1.);
#662=VECTOR('',#1064,1.);
#663=VECTOR('',#1067,1.);
#664=VECTOR('',#1068,1.);
#665=VECTOR('',#1071,1.);
#666=VECTOR('',#1072,1.);
#667=VECTOR('',#1073,1.);
#668=VECTOR('',#1074,1.);
#669=VECTOR('',#1075,1.);
#670=VECTOR('',#1078,1.);
#671=VECTOR('',#1079,1.);
#672=VECTOR('',#1080,1.);
#673=VECTOR('',#1081,1.);
#674=VECTOR('',#1084,1.);
#675=VECTOR('',#1085,1.);
#676=VECTOR('',#1086,1.);
#677=VECTOR('',#1087,1.);
#678=VECTOR('',#1088,1.);
#679=VECTOR('',#1091,1.);
#680=VECTOR('',#1092,1.);
#681=VECTOR('',#1093,1.);
#682=VECTOR('',#1096,1.);
#683=VECTOR('',#1097,1.);
#684=VECTOR('',#1100,1.);
#685=VECTOR('',#1103,1.);
#686=VECTOR('',#1104,1.);
#687=VECTOR('',#1107,1.);
#688=VECTOR('',#1108,1.);
#689=VECTOR('',#1109,1.);
#690=VECTOR('',#1112,1.);
#691=VECTOR('',#1113,1.);
#692=VECTOR('',#1132,1.);
#693=VECTOR('',#1133,1.);
#694=VECTOR('',#1134,1.);
#695=VECTOR('',#1135,1.);
#696=VECTOR('',#1136,1.);
#697=VECTOR('',#1139,1.);
#698=VECTOR('',#1140,1.);
#699=VECTOR('',#1143,1.);
#700=VECTOR('',#1144,1.);
#701=VECTOR('',#1147,1.);
#702=VECTOR('',#1148,1.);
#703=VECTOR('',#1151,1.);
#704=VECTOR('',#1152,1.);
#705=VECTOR('',#1153,1.);
#706=VECTOR('',#1162,1.);
#707=VECTOR('',#1163,1.);
#708=VECTOR('',#1166,1.);
#709=VECTOR('',#1173,1.);
#710=VECTOR('',#1174,1.);
#711=VECTOR('',#1175,1.);
#712=VECTOR('',#1178,1.);
#713=VECTOR('',#1181,1.);
#714=VECTOR('',#1186,1.);
#715=VECTOR('',#1187,1.);
#716=VECTOR('',#1190,1.);
#717=VECTOR('',#1191,1.);
#718=VECTOR('',#1194,1.);
#719=EDGE_LOOP('',(#18,#19,#20,#21,#22,#23,#24,#25,#26,#27,#28,#29,#30,
#31,#32,#33,#34,#35,#36,#37));
#720=EDGE_LOOP('',(#38,#39,#40,#41,#42,#43,#44,#45,#46,#47));
#721=EDGE_LOOP('',(#48,#49,#50,#51));
#722=EDGE_LOOP('',(#52));
#723=EDGE_LOOP('',(#53));
#724=EDGE_LOOP('',(#54,#55,#56,#57,#58,#59,#60,#61,#62,#63,#64,#65,#66,
#67,#68,#69));
#725=EDGE_LOOP('',(#70,#71,#72,#73));
#726=EDGE_LOOP('',(#74,#75,#76,#77));
#727=EDGE_LOOP('',(#78,#79,#80,#81));
#728=EDGE_LOOP('',(#82,#83,#84,#85));
#729=EDGE_LOOP('',(#86,#87,#88,#89));
#730=EDGE_LOOP('',(#90,#91,#92,#93,#94,#95,#96,#97,#98,#99,#100,#101));
#731=EDGE_LOOP('',(#102,#103,#104,#105));
#732=EDGE_LOOP('',(#106,#107,#108,#109));
#733=EDGE_LOOP('',(#110,#111,#112,#113,#114,#115,#116,#117));
#734=EDGE_LOOP('',(#118,#119,#120,#121));
#735=EDGE_LOOP('',(#122,#123,#124,#125,#126,#127,#128,#129));
#736=EDGE_LOOP('',(#130,#131,#132,#133));
#737=EDGE_LOOP('',(#134,#135,#136,#137,#138,#139,#140,#141));
#738=EDGE_LOOP('',(#142,#143,#144,#145));
#739=EDGE_LOOP('',(#146,#147,#148,#149));
#740=EDGE_LOOP('',(#150,#151,#152,#153));
#741=EDGE_LOOP('',(#154,#155,#156,#157));
#742=EDGE_LOOP('',(#158,#159,#160,#161));
#743=EDGE_LOOP('',(#162,#163,#164,#165));
#744=EDGE_LOOP('',(#166));
#745=EDGE_LOOP('',(#167));
#746=EDGE_LOOP('',(#168));
#747=EDGE_LOOP('',(#169));
#748=EDGE_LOOP('',(#170));
#749=EDGE_LOOP('',(#171));
#750=EDGE_LOOP('',(#172,#173,#174,#175,#176,#177,#178,#179,#180,#181));
#751=EDGE_LOOP('',(#182,#183,#184,#185));
#752=EDGE_LOOP('',(#186,#187,#188,#189,#190));
#753=EDGE_LOOP('',(#191,#192,#193,#194,#195));
#754=EDGE_LOOP('',(#196,#197,#198,#199,#200,#201));
#755=EDGE_LOOP('',(#202,#203,#204,#205,#206,#207));
#756=EDGE_LOOP('',(#208,#209,#210,#211));
#757=EDGE_LOOP('',(#212,#213,#214,#215,#216));
#758=EDGE_LOOP('',(#217,#218,#219,#220));
#759=EDGE_LOOP('',(#221,#222,#223,#224));
#760=EDGE_LOOP('',(#225,#226,#227,#228,#229));
#761=EDGE_LOOP('',(#230,#231,#232,#233,#234,#235));
#762=EDGE_LOOP('',(#236,#237,#238,#239));
#763=EDGE_LOOP('',(#240,#241,#242,#243));
#764=EDGE_LOOP('',(#244,#245,#246,#247));
#765=EDGE_LOOP('',(#248,#249,#250,#251));
#766=EDGE_LOOP('',(#252,#253,#254,#255));
#767=EDGE_LOOP('',(#256,#257,#258,#259));
#768=EDGE_LOOP('',(#260,#261,#262,#263));
#769=EDGE_LOOP('',(#264,#265,#266,#267));
#770=FACE_BOUND('',#719,.T.);
#771=FACE_BOUND('',#720,.T.);
#772=FACE_BOUND('',#721,.T.);
#773=FACE_BOUND('',#722,.T.);
#774=FACE_BOUND('',#723,.T.);
#775=FACE_BOUND('',#724,.T.);
#776=FACE_BOUND('',#725,.T.);
#777=FACE_BOUND('',#726,.T.);
#778=FACE_BOUND('',#727,.T.);
#779=FACE_BOUND('',#728,.T.);
#780=FACE_BOUND('',#729,.T.);
#781=FACE_BOUND('',#730,.T.);
#782=FACE_BOUND('',#731,.T.);
#783=FACE_BOUND('',#732,.T.);
#784=FACE_BOUND('',#733,.T.);
#785=FACE_BOUND('',#734,.T.);
#786=FACE_BOUND('',#735,.T.);
#787=FACE_BOUND('',#736,.T.);
#788=FACE_BOUND('',#737,.T.);
#789=FACE_BOUND('',#738,.T.);
#790=FACE_BOUND('',#739,.T.);
#791=FACE_BOUND('',#740,.T.);
#792=FACE_BOUND('',#741,.T.);
#793=FACE_BOUND('',#742,.T.);
#794=FACE_BOUND('',#743,.T.);
#795=FACE_BOUND('',#744,.T.);
#796=FACE_BOUND('',#745,.T.);
#797=FACE_BOUND('',#746,.T.);
#798=FACE_BOUND('',#747,.T.);
#799=FACE_BOUND('',#748,.T.);
#800=FACE_BOUND('',#749,.T.);
#801=FACE_BOUND('',#750,.T.);
#802=FACE_BOUND('',#751,.T.);
#803=FACE_BOUND('',#752,.T.);
#804=FACE_BOUND('',#753,.T.);
#805=FACE_BOUND('',#754,.T.);
#806=FACE_BOUND('',#755,.T.);
#807=FACE_BOUND('',#756,.T.);
#808=FACE_BOUND('',#757,.T.);
#809=FACE_BOUND('',#758,.T.);
#810=FACE_BOUND('',#759,.T.);
#811=FACE_BOUND('',#760,.T.);
#812=FACE_BOUND('',#761,.T.);
#813=FACE_BOUND('',#762,.T.);
#814=FACE_BOUND('',#763,.T.);
#815=FACE_BOUND('',#764,.T.);
#816=FACE_BOUND('',#765,.T.);
#817=FACE_BOUND('',#766,.T.);
#818=FACE_BOUND('',#767,.T.);
#819=FACE_BOUND('',#768,.T.);
#820=FACE_BOUND('',#769,.T.);
#821=PLANE('',#924);
#822=PLANE('',#925);
#823=PLANE('',#926);
#824=PLANE('',#927);
#825=PLANE('',#930);
#826=PLANE('',#931);
#827=PLANE('',#932);
#828=PLANE('',#933);
#829=PLANE('',#934);
#830=PLANE('',#935);
#831=PLANE('',#936);
#832=PLANE('',#937);
#833=PLANE('',#938);
#834=PLANE('',#939);
#835=PLANE('',#940);
#836=PLANE('',#941);
#837=PLANE('',#942);
#838=PLANE('',#943);
#839=PLANE('',#944);
#840=PLANE('',#945);
#841=PLANE('',#946);
#842=PLANE('',#947);
#843=PLANE('',#950);
#844=PLANE('',#953);
#845=PLANE('',#954);
#846=PLANE('',#955);
#847=PLANE('',#956);
#848=PLANE('',#957);
#849=PLANE('',#958);
#850=PLANE('',#959);
#851=PLANE('',#960);
#852=PLANE('',#961);
#853=PLANE('',#962);
#854=PLANE('',#963);
#855=PLANE('',#964);
#856=PLANE('',#965);
#857=PLANE('',#966);
#858=PLANE('',#967);
#859=PLANE('',#968);
#860=PLANE('',#969);
#861=PLANE('',#970);
#862=PLANE('',#971);
#863=PLANE('',#972);
#864=PLANE('',#973);
#865=ADVANCED_FACE('',(#770),#821,.T.);
#866=ADVANCED_FACE('',(#771),#822,.F.);
#867=ADVANCED_FACE('',(#772),#823,.F.);
#868=ADVANCED_FACE('',(#773,#774,#775),#824,.F.);
#869=ADVANCED_FACE('',(#776),#825,.T.);
#870=ADVANCED_FACE('',(#777,#778),#826,.T.);
#871=ADVANCED_FACE('',(#779),#827,.T.);
#872=ADVANCED_FACE('',(#780),#828,.F.);
#873=ADVANCED_FACE('',(#781),#829,.T.);
#874=ADVANCED_FACE('',(#782),#830,.F.);
#875=ADVANCED_FACE('',(#783),#831,.T.);
#876=ADVANCED_FACE('',(#784),#832,.T.);
#877=ADVANCED_FACE('',(#785),#833,.F.);
#878=ADVANCED_FACE('',(#786),#834,.T.);
#879=ADVANCED_FACE('',(#787),#835,.F.);
#880=ADVANCED_FACE('',(#788),#836,.T.);
#881=ADVANCED_FACE('',(#789),#837,.F.);
#882=ADVANCED_FACE('',(#790),#838,.F.);
#883=ADVANCED_FACE('',(#791),#839,.F.);
#884=ADVANCED_FACE('',(#792),#840,.T.);
#885=ADVANCED_FACE('',(#793),#841,.T.);
#886=ADVANCED_FACE('',(#794),#842,.T.);
#887=ADVANCED_FACE('',(#795,#796),#12,.T.);
#888=ADVANCED_FACE('',(#797),#843,.F.);
#889=ADVANCED_FACE('',(#798,#799),#13,.T.);
#890=ADVANCED_FACE('',(#800),#844,.F.);
#891=ADVANCED_FACE('',(#801),#845,.T.);
#892=ADVANCED_FACE('',(#802),#846,.F.);
#893=ADVANCED_FACE('',(#803),#847,.F.);
#894=ADVANCED_FACE('',(#804),#848,.T.);
#895=ADVANCED_FACE('',(#805),#849,.F.);
#896=ADVANCED_FACE('',(#806),#850,.T.);
#897=ADVANCED_FACE('',(#807),#851,.F.);
#898=ADVANCED_FACE('',(#808),#852,.T.);
#899=ADVANCED_FACE('',(#809),#853,.F.);
#900=ADVANCED_FACE('',(#810),#854,.F.);
#901=ADVANCED_FACE('',(#811),#855,.T.);
#902=ADVANCED_FACE('',(#812),#856,.T.);
#903=ADVANCED_FACE('',(#813),#857,.T.);
#904=ADVANCED_FACE('',(#814),#858,.F.);
#905=ADVANCED_FACE('',(#815),#859,.T.);
#906=ADVANCED_FACE('',(#816),#860,.T.);
#907=ADVANCED_FACE('',(#817),#861,.F.);
#908=ADVANCED_FACE('',(#818),#862,.F.);
#909=ADVANCED_FACE('',(#819),#863,.T.);
#910=ADVANCED_FACE('',(#820),#864,.T.);
#911=CLOSED_SHELL('',(#865,#866,#867,#868,#869,#870,#871,#872,#873,#874,
#875,#876,#877,#878,#879,#880,#881,#882,#883,#884,#885,#886,#887,#888,#889,
#890,#891,#892,#893,#894,#895,#896,#897,#898,#899,#900,#901,#902,#903,#904,
#905,#906,#907,#908,#909,#910));
#912=STYLED_ITEM('',(#913),#920);
#913=PRESENTATION_STYLE_ASSIGNMENT((#914));
#914=SURFACE_STYLE_USAGE(.BOTH.,#915);
#915=SURFACE_SIDE_STYLE('',(#916));
#916=SURFACE_STYLE_FILL_AREA(#917);
#917=FILL_AREA_STYLE('',(#918));
#918=FILL_AREA_STYLE_COLOUR('',#919);
#919=COLOUR_RGB('',0.647058823529412,0.647058823529412,0.647058823529412);
#920=MANIFOLD_SOLID_BREP('Part 4',#911);
#921=SHAPE_DEFINITION_REPRESENTATION(#1459,#922);
#922=SHAPE_REPRESENTATION('Part 4',(#923),#1454);
#923=AXIS2_PLACEMENT_3D('',#1197,#974,#975);
#924=AXIS2_PLACEMENT_3D('',#1198,#976,#977);
#925=AXIS2_PLACEMENT_3D('',#1239,#998,#999);
#926=AXIS2_PLACEMENT_3D('',#1257,#1009,#1010);
#927=AXIS2_PLACEMENT_3D('',#1263,#1014,#1015);
#928=AXIS2_PLACEMENT_3D('',#1264,#1016,#1017);
#929=AXIS2_PLACEMENT_3D('',#1266,#1018,#1019);
#930=AXIS2_PLACEMENT_3D('',#1294,#1034,#1035);
#931=AXIS2_PLACEMENT_3D('',#1296,#1037,#1038);
#932=AXIS2_PLACEMENT_3D('',#1308,#1045,#1046);
#933=AXIS2_PLACEMENT_3D('',#1310,#1048,#1049);
#934=AXIS2_PLACEMENT_3D('',#1314,#1052,#1053);
#935=AXIS2_PLACEMENT_3D('',#1326,#1061,#1062);
#936=AXIS2_PLACEMENT_3D('',#1330,#1065,#1066);
#937=AXIS2_PLACEMENT_3D('',#1334,#1069,#1070);
#938=AXIS2_PLACEMENT_3D('',#1344,#1076,#1077);
#939=AXIS2_PLACEMENT_3D('',#1353,#1082,#1083);
#940=AXIS2_PLACEMENT_3D('',#1361,#1089,#1090);
#941=AXIS2_PLACEMENT_3D('',#1367,#1094,#1095);
#942=AXIS2_PLACEMENT_3D('',#1371,#1098,#1099);
#943=AXIS2_PLACEMENT_3D('',#1373,#1101,#1102);
#944=AXIS2_PLACEMENT_3D('',#1376,#1105,#1106);
#945=AXIS2_PLACEMENT_3D('',#1382,#1110,#1111);
#946=AXIS2_PLACEMENT_3D('',#1385,#1114,#1115);
#947=AXIS2_PLACEMENT_3D('',#1386,#1116,#1117);
#948=AXIS2_PLACEMENT_3D('',#1387,#1118,#1119);
#949=AXIS2_PLACEMENT_3D('',#1388,#1120,#1121);
#950=AXIS2_PLACEMENT_3D('',#1390,#1122,#1123);
#951=AXIS2_PLACEMENT_3D('',#1391,#1124,#1125);
#952=AXIS2_PLACEMENT_3D('',#1392,#1126,#1127);
#953=AXIS2_PLACEMENT_3D('',#1394,#1128,#1129);
#954=AXIS2_PLACEMENT_3D('',#1395,#1130,#1131);
#955=AXIS2_PLACEMENT_3D('',#1404,#1137,#1138);
#956=AXIS2_PLACEMENT_3D('',#1407,#1141,#1142);
#957=AXIS2_PLACEMENT_3D('',#1411,#1145,#1146);
#958=AXIS2_PLACEMENT_3D('',#1415,#1149,#1150);
#959=AXIS2_PLACEMENT_3D('',#1420,#1154,#1155);
#960=AXIS2_PLACEMENT_3D('',#1421,#1156,#1157);
#961=AXIS2_PLACEMENT_3D('',#1422,#1158,#1159);
#962=AXIS2_PLACEMENT_3D('',#1423,#1160,#1161);
#963=AXIS2_PLACEMENT_3D('',#1427,#1164,#1165);
#964=AXIS2_PLACEMENT_3D('',#1429,#1167,#1168);
#965=AXIS2_PLACEMENT_3D('',#1430,#1169,#1170);
#966=AXIS2_PLACEMENT_3D('',#1431,#1171,#1172);
#967=AXIS2_PLACEMENT_3D('',#1437,#1176,#1177);
#968=AXIS2_PLACEMENT_3D('',#1439,#1179,#1180);
#969=AXIS2_PLACEMENT_3D('',#1441,#1182,#1183);
#970=AXIS2_PLACEMENT_3D('',#1442,#1184,#1185);
#971=AXIS2_PLACEMENT_3D('',#1446,#1188,#1189);
#972=AXIS2_PLACEMENT_3D('',#1450,#1192,#1193);
#973=AXIS2_PLACEMENT_3D('',#1452,#1195,#1196);
#974=DIRECTION('',(0.,0.,1.));
#975=DIRECTION('',(1.,0.,0.));
#976=DIRECTION('',(-1.,-2.83712590511265E-16,0.));
#977=DIRECTION('',(2.83712590511265E-16,-1.,0.));
#978=DIRECTION('',(-2.83712590511265E-16,1.,0.));
#979=DIRECTION('',(0.,0.,-1.));
#980=DIRECTION('',(-2.83712590511265E-16,1.,0.));
#981=DIRECTION('',(0.,0.,-1.));
#982=DIRECTION('',(-2.83712590511265E-16,1.,0.));
#983=DIRECTION('',(0.,0.,-1.));
#984=DIRECTION('',(-2.83712590511265E-16,1.,0.));
#985=DIRECTION('',(0.,0.,1.));
#986=DIRECTION('',(-2.83712590511265E-16,1.,0.));
#987=DIRECTION('',(0.,0.,1.));
#988=DIRECTION('',(-2.83712590511265E-16,1.,0.));
#989=DIRECTION('',(0.,0.,-1.));
#990=DIRECTION('',(2.83712590511265E-16,-1.,0.));
#991=DIRECTION('',(0.,0.,-1.));
#992=DIRECTION('',(-2.83712590511265E-16,1.,0.));
#993=DIRECTION('',(0.,0.,-1.));
#994=DIRECTION('',(-2.83712590511265E-16,1.,0.));
#995=DIRECTION('',(0.,0.,1.));
#996=DIRECTION('',(-2.83712590511265E-16,1.,0.));
#997=DIRECTION('',(0.,0.,-1.));
#998=DIRECTION('',(0.,0.,-1.));
#999=DIRECTION('',(1.,0.,0.));
#1000=DIRECTION('',(1.,0.,0.));
#1001=DIRECTION('',(0.,1.,0.));
#1002=DIRECTION('',(1.,0.,0.));
#1003=DIRECTION('',(1.26477351576715E-16,1.,0.));
#1004=DIRECTION('',(1.,-1.26477351576715E-16,0.));
#1005=DIRECTION('',(1.26477351576715E-16,1.,0.));
#1006=DIRECTION('',(-1.,1.74264453367955E-48,0.));
#1007=DIRECTION('',(0.,1.,0.));
#1008=DIRECTION('',(-1.,0.,0.));
#1009=DIRECTION('',(0.,0.,-1.));
#1010=DIRECTION('',(1.,0.,0.));
#1011=DIRECTION('',(-1.,0.,0.));
#1012=DIRECTION('',(-1.26477351576715E-16,-1.,0.));
#1013=DIRECTION('',(1.,0.,0.));
#1014=DIRECTION('',(0.,0.,-1.));
#1015=DIRECTION('',(1.,0.,0.));
#1016=DIRECTION('',(0.,0.,-1.));
#1017=DIRECTION('',(-1.,0.,0.));
#1018=DIRECTION('',(0.,0.,-1.));
#1019=DIRECTION('',(-1.,0.,0.));
#1020=DIRECTION('',(-1.,1.55664432709803E-16,0.));
#1021=DIRECTION('',(0.,1.,0.));
#1022=DIRECTION('',(-1.,1.26477351576715E-16,0.));
#1023=DIRECTION('',(1.,0.,0.));
#1024=DIRECTION('',(-1.26477351576715E-16,-1.,0.));
#1025=DIRECTION('',(-1.,1.26477351576715E-16,0.));
#1026=DIRECTION('',(-1.26477351576715E-16,-1.,0.));
#1027=DIRECTION('',(-1.,1.74264453367955E-48,0.));
#1028=DIRECTION('',(0.,-1.,0.));
#1029=DIRECTION('',(1.,-1.26477351576715E-16,0.));
#1030=DIRECTION('',(1.26477351576715E-16,1.,0.));
#1031=DIRECTION('',(1.,0.,0.));
#1032=DIRECTION('',(0.,1.,0.));
#1033=DIRECTION('',(1.,0.,0.));
#1034=DIRECTION('',(0.,-1.,0.));
#1035=DIRECTION('',(0.,0.,-1.));
#1036=DIRECTION('',(0.,0.,1.));
#1037=DIRECTION('',(1.26477351576715E-16,1.,0.));
#1038=DIRECTION('',(-1.,1.26477351576715E-16,0.));
#1039=DIRECTION('',(0.,0.,1.));
#1040=DIRECTION('',(1.,-1.26477351576715E-16,-1.43957572515803E-16));
#1041=DIRECTION('',(0.,0.,1.));
#1042=DIRECTION('',(1.,-1.26477351576715E-16,-1.07968179386852E-16));
#1043=DIRECTION('',(-1.,0.,0.));
#1044=DIRECTION('',(0.,0.,1.));
#1045=DIRECTION('',(0.,1.,0.));
#1046=DIRECTION('',(0.,0.,1.));
#1047=DIRECTION('',(0.,0.,1.));
#1048=DIRECTION('',(1.55664432709803E-16,1.,0.));
#1049=DIRECTION('',(-1.,1.55664432709803E-16,0.));
#1050=DIRECTION('',(-1.,0.,0.));
#1051=DIRECTION('',(0.,0.,1.));
#1052=DIRECTION('',(0.,0.,-1.));
#1053=DIRECTION('',(1.,0.,0.));
#1054=DIRECTION('',(1.,0.,0.));
#1055=DIRECTION('',(0.,1.,0.));
#1056=DIRECTION('',(-1.,0.,0.));
#1057=DIRECTION('',(0.,1.,0.));
#1058=DIRECTION('',(-1.,0.,0.));
#1059=DIRECTION('',(1.,0.,0.));
#1060=DIRECTION('',(0.,-1.,0.));
#1061=DIRECTION('',(0.,-1.,0.));
#1062=DIRECTION('',(0.,0.,-1.));
#1063=DIRECTION('',(0.,0.,1.));
#1064=DIRECTION('',(1.,0.,0.));
#1065=DIRECTION('',(0.,-1.,0.));
#1066=DIRECTION('',(0.,0.,-1.));
#1067=DIRECTION('',(1.,0.,0.));
#1068=DIRECTION('',(0.,0.,-1.));
#1069=DIRECTION('',(0.,0.,1.));
#1070=DIRECTION('',(1.,0.,0.));
#1071=DIRECTION('',(0.,-1.,0.));
#1072=DIRECTION('',(1.,-1.26477351576715E-16,0.));
#1073=DIRECTION('',(-1.26477351576715E-16,-1.,0.));
#1074=DIRECTION('',(-1.,1.26477351576715E-16,0.));
#1075=DIRECTION('',(-1.26477351576715E-16,-1.,0.));
#1076=DIRECTION('',(1.07968179386852E-16,-1.36555293834088E-32,1.));
#1077=DIRECTION('',(1.,0.,-1.07968179386852E-16));
#1078=DIRECTION('',(0.,-1.,-1.36555293834088E-32));
#1079=DIRECTION('',(-1.,2.68281887589234E-49,1.07968179386852E-16));
#1080=DIRECTION('',(1.26477351576715E-16,1.,0.));
#1081=DIRECTION('',(1.,-1.26477351576715E-16,-1.07968179386852E-16));
#1082=DIRECTION('',(1.26477351576715E-16,1.,0.));
#1083=DIRECTION('',(-1.,1.26477351576715E-16,0.));
#1084=DIRECTION('',(0.,0.,1.));
#1085=DIRECTION('',(0.,0.,-1.));
#1086=DIRECTION('',(0.,0.,-1.));
#1087=DIRECTION('',(1.,-1.26477351576715E-16,-1.43957572515803E-16));
#1088=DIRECTION('',(0.,0.,1.));
#1089=DIRECTION('',(-1.26477351576715E-16,-1.,0.));
#1090=DIRECTION('',(1.,-1.26477351576715E-16,0.));
#1091=DIRECTION('',(0.,0.,-1.));
#1092=DIRECTION('',(1.,-1.26477351576715E-16,0.));
#1093=DIRECTION('',(0.,0.,-1.));
#1094=DIRECTION('',(1.,-1.26477351576715E-16,0.));
#1095=DIRECTION('',(1.26477351576715E-16,1.,0.));
#1096=DIRECTION('',(-1.26477351576715E-16,-1.,0.));
#1097=DIRECTION('',(0.,0.,-1.));
#1098=DIRECTION('',(1.,-1.26477351576715E-16,0.));
#1099=DIRECTION('',(1.26477351576715E-16,1.,0.));
#1100=DIRECTION('',(-1.26477351576715E-16,-1.,0.));
#1101=DIRECTION('',(-1.74264453367955E-48,-1.,-1.36555293834088E-32));
#1102=DIRECTION('',(0.,1.36555293834088E-32,-1.));
#1103=DIRECTION('',(0.,1.36555293834088E-32,-1.));
#1104=DIRECTION('',(-1.72711519079156E-48,-1.36555293834088E-32,1.));
#1105=DIRECTION('',(1.,-1.26477351576715E-16,0.));
#1106=DIRECTION('',(1.26477351576715E-16,1.,0.));
#1107=DIRECTION('',(1.72711519079156E-48,1.36555293834088E-32,-1.));
#1108=DIRECTION('',(0.,0.,-1.));
#1109=DIRECTION('',(1.26477351576715E-16,1.,0.));
#1110=DIRECTION('',(0.,-1.,0.));
#1111=DIRECTION('',(0.,0.,-1.));
#1112=DIRECTION('',(0.,0.,-1.));
#1113=DIRECTION('',(0.,0.,1.));
#1114=DIRECTION('',(-1.,0.,0.));
#1115=DIRECTION('',(0.,0.,1.));
#1116=DIRECTION('',(1.,0.,0.));
#1117=DIRECTION('',(0.,0.,-1.));
#1118=DIRECTION('',(0.,0.,-1.));
#1119=DIRECTION('',(-1.,0.,0.));
#1120=DIRECTION('',(0.,0.,-1.));
#1121=DIRECTION('',(-1.,0.,0.));
#1122=DIRECTION('',(0.,0.,-1.));
#1123=DIRECTION('',(1.,0.,0.));
#1124=DIRECTION('',(0.,0.,-1.));
#1125=DIRECTION('',(-1.,0.,0.));
#1126=DIRECTION('',(0.,0.,-1.));
#1127=DIRECTION('',(-1.,0.,0.));
#1128=DIRECTION('',(0.,0.,-1.));
#1129=DIRECTION('',(1.,0.,0.));
#1130=DIRECTION('',(1.43957572515803E-16,-1.82073725112118E-32,1.));
#1131=DIRECTION('',(1.,0.,-1.43957572515803E-16));
#1132=DIRECTION('',(1.26477351576715E-16,1.,0.));
#1133=DIRECTION('',(1.,-1.26477351576715E-16,0.));
#1134=DIRECTION('',(1.26477351576715E-16,1.,0.));
#1135=DIRECTION('',(-1.,1.26477351576715E-16,0.));
#1136=DIRECTION('',(1.26477351576715E-16,1.,0.));
#1137=DIRECTION('',(-1.,1.26477351576715E-16,0.));
#1138=DIRECTION('',(-1.26477351576715E-16,-1.,0.));
#1139=DIRECTION('',(1.26477351576715E-16,1.,0.));
#1140=DIRECTION('',(0.,0.,-1.));
#1141=DIRECTION('',(1.07968179386852E-16,-1.36555293834088E-32,1.));
#1142=DIRECTION('',(1.,0.,-1.07968179386852E-16));
#1143=DIRECTION('',(1.26477351576715E-16,1.,0.));
#1144=DIRECTION('',(-1.,2.68281887589234E-49,1.07968179386852E-16));
#1145=DIRECTION('',(-1.,1.26477351576715E-16,0.));
#1146=DIRECTION('',(-1.26477351576715E-16,-1.,0.));
#1147=DIRECTION('',(0.,0.,-1.));
#1148=DIRECTION('',(1.26477351576715E-16,1.,0.));
#1149=DIRECTION('',(1.26477351576715E-16,1.,0.));
#1150=DIRECTION('',(-1.,1.26477351576715E-16,0.));
#1151=DIRECTION('',(-1.07968179386852E-16,1.36555293834088E-32,-1.));
#1152=DIRECTION('',(-1.,1.26477351576715E-16,1.07968179386852E-16));
#1153=DIRECTION('',(0.,0.,-1.));
#1154=DIRECTION('',(-1.,1.26477351576715E-16,0.));
#1155=DIRECTION('',(-1.26477351576715E-16,-1.,0.));
#1156=DIRECTION('',(-1.,1.26477351576715E-16,0.));
#1157=DIRECTION('',(-1.26477351576715E-16,-1.,0.));
#1158=DIRECTION('',(-1.26477351576715E-16,-1.,0.));
#1159=DIRECTION('',(1.,-1.26477351576715E-16,0.));
#1160=DIRECTION('',(1.,0.,-1.07968179386852E-16));
#1161=DIRECTION('',(-1.07968179386852E-16,0.,-1.));
#1162=DIRECTION('',(-1.07968179386852E-16,1.36555293834088E-32,-1.));
#1163=DIRECTION('',(-1.47436264609032E-48,-1.,-1.36555293834088E-32));
#1164=DIRECTION('',(-1.07968179386852E-16,1.36555293834088E-32,-1.));
#1165=DIRECTION('',(1.,1.47436264609032E-48,-1.07968179386852E-16));
#1166=DIRECTION('',(-1.,2.68281887589234E-49,1.07968179386852E-16));
#1167=DIRECTION('',(-1.74264453367955E-48,-1.,-1.36555293834088E-32));
#1168=DIRECTION('',(0.,1.36555293834088E-32,-1.));
#1169=DIRECTION('',(-1.,0.,0.));
#1170=DIRECTION('',(0.,0.,1.));
#1171=DIRECTION('',(-1.,0.,0.));
#1172=DIRECTION('',(0.,0.,1.));
#1173=DIRECTION('',(0.,0.,-1.));
#1174=DIRECTION('',(0.,1.,0.));
#1175=DIRECTION('',(0.,0.,-1.));
#1176=DIRECTION('',(0.,-1.,0.));
#1177=DIRECTION('',(0.,0.,-1.));
#1178=DIRECTION('',(-1.,0.,0.));
#1179=DIRECTION('',(0.,-1.,0.));
#1180=DIRECTION('',(0.,0.,-1.));
#1181=DIRECTION('',(-1.,0.,0.));
#1182=DIRECTION('',(0.,0.,-1.));
#1183=DIRECTION('',(1.,0.,0.));
#1184=DIRECTION('',(0.,1.,0.));
#1185=DIRECTION('',(0.,0.,1.));
#1186=DIRECTION('',(0.,0.,-1.));
#1187=DIRECTION('',(1.,0.,0.));
#1188=DIRECTION('',(1.,0.,0.));
#1189=DIRECTION('',(0.,0.,-1.));
#1190=DIRECTION('',(0.,0.,-1.));
#1191=DIRECTION('',(0.,-1.,0.));
#1192=DIRECTION('',(0.,1.,0.));
#1193=DIRECTION('',(0.,0.,1.));
#1194=DIRECTION('',(1.,0.,0.));
#1195=DIRECTION('',(0.,0.,-1.));
#1196=DIRECTION('',(1.,0.,0.));
#1197=CARTESIAN_POINT('',(0.,0.,0.));
#1198=CARTESIAN_POINT('',(0.120659736948008,-0.0749652548879627,0.00851));
#1199=CARTESIAN_POINT('',(0.120659736948008,-0.0749648846685887,-0.0133));
#1200=CARTESIAN_POINT('',(0.120659736948008,-0.0208728054598218,-0.0133));
#1201=CARTESIAN_POINT('',(0.120659736948008,-0.0158728054598218,-0.0133));
#1202=CARTESIAN_POINT('',(0.120659736948008,-0.0208728054598218,-0.0133));
#1203=CARTESIAN_POINT('',(0.120659736948008,-0.0208728054598218,-0.0173));
#1204=CARTESIAN_POINT('',(0.120659736948008,-0.0749648846685887,-0.0173));
#1205=CARTESIAN_POINT('',(0.120659736948008,-0.130010679180752,-0.0173));
#1206=CARTESIAN_POINT('',(0.120659736948008,-0.130010679180752,-0.0133));
#1207=CARTESIAN_POINT('',(0.120659736948008,-0.130010679180752,-0.0133));
#1208=CARTESIAN_POINT('',(0.120659736948008,-0.0749648846685887,-0.0133));
#1209=CARTESIAN_POINT('',(0.120659736948008,-0.134836122232768,-0.0133));
#1210=CARTESIAN_POINT('',(0.120659736948008,-0.134836122232768,-0.0133));
#1211=CARTESIAN_POINT('',(0.120659736948008,-0.134836122232768,-0.0173));
#1212=CARTESIAN_POINT('',(0.120659736948008,-0.0749648846685887,-0.0173));
#1213=CARTESIAN_POINT('',(0.120659736948008,-0.136108130216599,-0.0173));
#1214=CARTESIAN_POINT('',(0.120659736948008,-0.136108130216599,-0.0103));
#1215=CARTESIAN_POINT('',(0.120659736948008,-0.136108130216599,-0.009));
#1216=CARTESIAN_POINT('',(0.120659736948008,-0.0749648846685887,-0.009));
#1217=CARTESIAN_POINT('',(0.120659736948008,-0.12825,-0.009));
#1218=CARTESIAN_POINT('',(0.120659736948008,-0.12825,-0.0103));
#1219=CARTESIAN_POINT('',(0.120659736948008,-0.12825,-0.0103));
#1220=CARTESIAN_POINT('',(0.120659736948008,-0.0749648846685887,-0.0103));
#1221=CARTESIAN_POINT('',(0.120659736948008,-0.126463428139687,-0.0103));
#1222=CARTESIAN_POINT('',(0.120659736948008,-0.126463428139687,-0.0144));
#1223=CARTESIAN_POINT('',(0.120659736948008,-0.126463428139687,-0.0144));
#1224=CARTESIAN_POINT('',(0.120659736948008,-0.0755522921681404,-0.0144));
#1225=CARTESIAN_POINT('',(0.120659736948008,-0.0246411561965942,-0.0144));
#1226=CARTESIAN_POINT('',(0.120659736948008,-0.0246411561965942,-0.0144));
#1227=CARTESIAN_POINT('',(0.120659736948008,-0.0246411561965942,-0.0103));
#1228=CARTESIAN_POINT('',(0.120659736948008,-0.0749648846685887,-0.0103));
#1229=CARTESIAN_POINT('',(0.120659736948008,-0.02075,-0.0103));
#1230=CARTESIAN_POINT('',(0.120659736948008,-0.02075,-0.0103));
#1231=CARTESIAN_POINT('',(0.120659736948008,-0.02075,-0.009));
#1232=CARTESIAN_POINT('',(0.120659736948008,-0.0749648846685887,-0.009));
#1233=CARTESIAN_POINT('',(0.120659736948008,-0.0138216391205787,-0.009));
#1234=CARTESIAN_POINT('',(0.120659736948008,-0.0138216391205787,-0.0103));
#1235=CARTESIAN_POINT('',(0.120659736948008,-0.0138216391205787,-0.0173));
#1236=CARTESIAN_POINT('',(0.120659736948008,-0.0749648846685887,-0.0173));
#1237=CARTESIAN_POINT('',(0.120659736948008,-0.0158728054598218,-0.0173));
#1238=CARTESIAN_POINT('',(0.120659736948008,-0.0158728054598218,-0.0133));
#1239=CARTESIAN_POINT('',(0.128850705446743,-0.0749648846685887,-0.0103));
#1240=CARTESIAN_POINT('',(0.,-0.12825,-0.0103));
#1241=CARTESIAN_POINT('',(0.2992249,-0.12825,-0.0103));
#1242=CARTESIAN_POINT('',(0.2992249,0.,-0.0103));
#1243=CARTESIAN_POINT('',(0.2992249,-0.02075,-0.0103));
#1244=CARTESIAN_POINT('',(0.,-0.02075,-0.0103));
#1245=CARTESIAN_POINT('',(0.297521671485901,-0.02075,-0.0103));
#1246=CARTESIAN_POINT('',(0.297521671485901,-0.0749648846685887,-0.0103));
#1247=CARTESIAN_POINT('',(0.297521671485901,-0.0741216391205788,-0.0103));
#1248=CARTESIAN_POINT('',(0.128850705446743,-0.0741216391205787,-0.0103));
#1249=CARTESIAN_POINT('',(0.290821671485901,-0.0741216391205788,-0.0103));
#1250=CARTESIAN_POINT('',(0.290821671485901,-0.0749648846685887,-0.0103));
#1251=CARTESIAN_POINT('',(0.290821671485901,-0.0734923756995808,-0.0103));
#1252=CARTESIAN_POINT('',(0.128850705446743,-0.0734923756995808,-0.0103));
#1253=CARTESIAN_POINT('',(0.284351080656051,-0.0734923756995808,-0.0103));
#1254=CARTESIAN_POINT('',(0.284351080656051,-0.0749648846685887,-0.0103));
#1255=CARTESIAN_POINT('',(0.284351080656051,-0.126463428139687,-0.0103));
#1256=CARTESIAN_POINT('',(0.128850705446743,-0.126463428139687,-0.0103));
#1257=CARTESIAN_POINT('',(0.128850705446743,-0.0749648846685887,-0.0103));
#1258=CARTESIAN_POINT('',(0.128850705446743,-0.0246411561965942,-0.0103));
#1259=CARTESIAN_POINT('',(0.273371430253983,-0.0246411561965942,-0.0103));
#1260=CARTESIAN_POINT('',(0.273371430253983,-0.0749648846685887,-0.0103));
#1261=CARTESIAN_POINT('',(0.273371430253983,-0.02075,-0.0103));
#1262=CARTESIAN_POINT('',(0.,-0.02075,-0.0103));
#1263=CARTESIAN_POINT('',(0.128863658756018,-0.0749648846685887,-0.009));
#1264=CARTESIAN_POINT('',(0.3024610370118,-0.131540116868596,-0.009));
#1265=CARTESIAN_POINT('',(0.2999610370118,-0.131540116868596,-0.009));
#1266=CARTESIAN_POINT('',(0.302858125287799,-0.0179887046532538,-0.009));
#1267=CARTESIAN_POINT('',(0.300358125287799,-0.0179887046532538,-0.009));
#1268=CARTESIAN_POINT('',(0.128863658756018,-0.136108130216599,-0.009));
#1269=CARTESIAN_POINT('',(0.307167559862137,-0.136108130216599,-0.009));
#1270=CARTESIAN_POINT('',(0.307167559862137,-0.0749648846685887,-0.009));
#1271=CARTESIAN_POINT('',(0.307167559862137,-0.0138216391205788,-0.009));
#1272=CARTESIAN_POINT('',(0.128863658756018,-0.0138216391205787,-0.009));
#1273=CARTESIAN_POINT('',(0.,-0.02075,-0.009));
#1274=CARTESIAN_POINT('',(0.273371430253983,-0.02075,-0.009));
#1275=CARTESIAN_POINT('',(0.273371430253983,-0.0749648846685887,-0.009));
#1276=CARTESIAN_POINT('',(0.273371430253983,-0.0185089934895853,-0.009));
#1277=CARTESIAN_POINT('',(0.128863658756018,-0.0185089934895853,-0.009));
#1278=CARTESIAN_POINT('',(0.278771430253982,-0.0185089934895853,-0.009));
#1279=CARTESIAN_POINT('',(0.278771430253982,-0.0749648846685887,-0.009));
#1280=CARTESIAN_POINT('',(0.278771430253982,-0.0195733793625634,-0.009));
#1281=CARTESIAN_POINT('',(0.128863658756018,-0.0195733793625634,-0.009));
#1282=CARTESIAN_POINT('',(0.2949362498367,-0.0195733793625634,-0.009));
#1283=CARTESIAN_POINT('',(0.2949362498367,-0.0749648846685887,-0.009));
#1284=CARTESIAN_POINT('',(0.2949362498367,-0.0195853505283594,-0.009));
#1285=CARTESIAN_POINT('',(0.128863658756018,-0.0195853505283594,-0.009));
#1286=CARTESIAN_POINT('',(0.297521671485901,-0.0195853505283594,-0.009));
#1287=CARTESIAN_POINT('',(0.297521671485901,-0.0749648846685887,-0.009));
#1288=CARTESIAN_POINT('',(0.297521671485901,-0.02075,-0.009));
#1289=CARTESIAN_POINT('',(0.,-0.02075,-0.009));
#1290=CARTESIAN_POINT('',(0.2992249,-0.02075,-0.009));
#1291=CARTESIAN_POINT('',(0.2992249,0.,-0.009));
#1292=CARTESIAN_POINT('',(0.2992249,-0.12825,-0.009));
#1293=CARTESIAN_POINT('',(0.,-0.12825,-0.009));
#1294=CARTESIAN_POINT('',(0.,-0.02075,-0.0103));
#1295=CARTESIAN_POINT('',(0.273371430253983,-0.02075,-0.0103));
#1296=CARTESIAN_POINT('',(0.128863658756018,-0.0138216391205787,-0.0103));
#1297=CARTESIAN_POINT('',(0.278771430253982,-0.0138216391205788,-0.013918608315693));
#1298=CARTESIAN_POINT('',(0.278771430253982,-0.0138216391205788,-0.0163604616336524));
#1299=CARTESIAN_POINT('',(0.278771430253982,-0.0138216391205788,-0.0114767549977337));
#1300=CARTESIAN_POINT('',(0.284796550869941,-0.0138216391205788,-0.0163604616336524));
#1301=CARTESIAN_POINT('',(0.290821671485901,-0.0138216391205788,-0.0163604616336524));
#1302=CARTESIAN_POINT('',(0.290821671485901,-0.0138216391205788,-0.013918608315693));
#1303=CARTESIAN_POINT('',(0.290821671485901,-0.0138216391205788,-0.0114767549977337));
#1304=CARTESIAN_POINT('',(0.284796550869941,-0.0138216391205788,-0.0114767549977337));
#1305=CARTESIAN_POINT('',(0.128850705446743,-0.0138216391205787,-0.0173));
#1306=CARTESIAN_POINT('',(0.307167559862137,-0.0138216391205788,-0.0173));
#1307=CARTESIAN_POINT('',(0.307167559862137,-0.0138216391205788,-0.0103));
#1308=CARTESIAN_POINT('',(0.,-0.12825,-0.0103));
#1309=CARTESIAN_POINT('',(0.2992249,-0.12825,-0.0103));
#1310=CARTESIAN_POINT('',(0.128863658756018,-0.136108130216599,-0.0103));
#1311=CARTESIAN_POINT('',(0.128850705446743,-0.136108130216599,-0.0173));
#1312=CARTESIAN_POINT('',(0.307167559862137,-0.136108130216599,-0.0173));
#1313=CARTESIAN_POINT('',(0.307167559862137,-0.136108130216599,-0.0103));
#1314=CARTESIAN_POINT('',(0.128850705446743,-0.0749648846685887,-0.0173));
#1315=CARTESIAN_POINT('',(0.120371930056304,-0.0158728054598218,-0.0173));
#1316=CARTESIAN_POINT('',(0.127871930056304,-0.0158728054598218,-0.0173));
#1317=CARTESIAN_POINT('',(0.307167559862137,-0.0749648846685887,-0.0173));
#1318=CARTESIAN_POINT('',(0.1192406674196,-0.134836122232768,-0.0173));
#1319=CARTESIAN_POINT('',(0.125963987494588,-0.134836122232768,-0.0173));
#1320=CARTESIAN_POINT('',(0.125963987494588,-0.13242340070676,-0.0173));
#1321=CARTESIAN_POINT('',(0.125963987494588,-0.130010679180752,-0.0173));
#1322=CARTESIAN_POINT('',(0.1192406674196,-0.130010679180752,-0.0173));
#1323=CARTESIAN_POINT('',(0.120371930056304,-0.0208728054598218,-0.0173));
#1324=CARTESIAN_POINT('',(0.127871930056304,-0.0208728054598218,-0.0173));
#1325=CARTESIAN_POINT('',(0.127871930056304,-0.0183728054598218,-0.0173));
#1326=CARTESIAN_POINT('',(0.122597994282842,-0.126463428139687,-0.0144));
#1327=CARTESIAN_POINT('',(0.284351080656051,-0.126463428139687,-0.0144));
#1328=CARTESIAN_POINT('',(0.284351080656051,-0.126463428139687,-0.0144));
#1329=CARTESIAN_POINT('',(0.122597994282842,-0.126463428139687,-0.0144));
#1330=CARTESIAN_POINT('',(0.122597994282842,-0.0246411561965942,-0.0144));
#1331=CARTESIAN_POINT('',(0.122597994282842,-0.0246411561965942,-0.0144));
#1332=CARTESIAN_POINT('',(0.273371430253983,-0.0246411561965942,-0.0144));
#1333=CARTESIAN_POINT('',(0.273371430253983,-0.0246411561965942,-0.0114022720754147));
#1334=CARTESIAN_POINT('',(0.122597994282842,-0.0755522921681404,-0.0144));
#1335=CARTESIAN_POINT('',(0.284351080656051,-0.0755522921681404,-0.0144));
#1336=CARTESIAN_POINT('',(0.284351080656051,-0.0741216391205788,-0.0144));
#1337=CARTESIAN_POINT('',(0.128863658756018,-0.0741216391205787,-0.0144));
#1338=CARTESIAN_POINT('',(0.278771430253982,-0.0741216391205788,-0.0144));
#1339=CARTESIAN_POINT('',(0.278771430253982,-0.045115765184164,-0.0144));
#1340=CARTESIAN_POINT('',(0.278771430253982,-0.0764098912477493,-0.0144));
#1341=CARTESIAN_POINT('',(0.273371430253983,-0.0764098912477493,-0.0144));
#1342=CARTESIAN_POINT('',(0.273371430253983,-0.0764098912477493,-0.0144));
#1343=CARTESIAN_POINT('',(0.273371430253983,-0.045115765184164,-0.0144));
#1344=CARTESIAN_POINT('',(0.284796550869941,-0.0741216391205788,-0.0114767549977337));
#1345=CARTESIAN_POINT('',(0.284351080656051,-0.0741216391205788,-0.0114767549977337));
#1346=CARTESIAN_POINT('',(0.284351080656051,-0.0734923756995808,-0.0114767549977337));
#1347=CARTESIAN_POINT('',(0.284351080656051,-0.0741216391205788,-0.0114767549977337));
#1348=CARTESIAN_POINT('',(0.286440337826078,-0.0734923756995808,-0.0114767549977337));
#1349=CARTESIAN_POINT('',(0.290821671485901,-0.0734923756995808,-0.0114767549977337));
#1350=CARTESIAN_POINT('',(0.290821671485901,-0.0741216391205788,-0.0114767549977337));
#1351=CARTESIAN_POINT('',(0.290821671485901,-0.0741216391205788,-0.0114767549977337));
#1352=CARTESIAN_POINT('',(0.284796550869941,-0.0741216391205788,-0.0114767549977337));
#1353=CARTESIAN_POINT('',(0.128863658756018,-0.0741216391205787,-0.0126802308168262));
#1354=CARTESIAN_POINT('',(0.284351080656051,-0.0741216391205788,-0.0126802308168262));
#1355=CARTESIAN_POINT('',(0.290821671485901,-0.0741216391205788,-0.0119911315068603));
#1356=CARTESIAN_POINT('',(0.297521671485901,-0.0741216391205788,-0.0119911315068603));
#1357=CARTESIAN_POINT('',(0.297521671485901,-0.0741216391205788,-0.0163604616336524));
#1358=CARTESIAN_POINT('',(0.284796550869941,-0.0741216391205788,-0.0163604616336524));
#1359=CARTESIAN_POINT('',(0.278771430253982,-0.0741216391205788,-0.0163604616336524));
#1360=CARTESIAN_POINT('',(0.278771430253982,-0.0741216391205788,-0.013918608315693));
#1361=CARTESIAN_POINT('',(0.273371430253983,-0.0764098912477493,-0.0114022720754147));
#1362=CARTESIAN_POINT('',(0.278771430253982,-0.0764098912477493,-0.0114022720754147));
#1363=CARTESIAN_POINT('',(0.278771430253982,-0.0764098912477493,-0.0163604616336524));
#1364=CARTESIAN_POINT('',(0.273371430253983,-0.0764098912477493,-0.0163604616336524));
#1365=CARTESIAN_POINT('',(0.273371430253983,-0.0764098912477493,-0.0163604616336524));
#1366=CARTESIAN_POINT('',(0.273371430253983,-0.0764098912477493,-0.0114022720754147));
#1367=CARTESIAN_POINT('',(0.273371430253983,-0.045115765184164,-0.0114022720754147));
#1368=CARTESIAN_POINT('',(0.273371430253983,-0.0474594423686673,-0.0163604616336524));
#1369=CARTESIAN_POINT('',(0.273371430253983,-0.0185089934895853,-0.0163604616336524));
#1370=CARTESIAN_POINT('',(0.273371430253983,-0.0185089934895853,-0.0114022720754147));
#1371=CARTESIAN_POINT('',(0.278771430253982,-0.045115765184164,-0.0114022720754147));
#1372=CARTESIAN_POINT('',(0.278771430253982,-0.0474594423686673,-0.0163604616336524));
#1373=CARTESIAN_POINT('',(0.286440337826078,-0.0734923756995808,-0.00647675499773366));
#1374=CARTESIAN_POINT('',(0.284351080656051,-0.0734923756995808,-0.00647675499773366));
#1375=CARTESIAN_POINT('',(0.290821671485901,-0.0734923756995808,-0.0119911315068603));
#1376=CARTESIAN_POINT('',(0.278771430253982,-0.045115765184164,-0.0114022720754147));
#1377=CARTESIAN_POINT('',(0.278771430253982,-0.0195733793625634,-0.0114022720754147));
#1378=CARTESIAN_POINT('',(0.278771430253982,-0.0195733793625634,-0.0114767549977337));
#1379=CARTESIAN_POINT('',(0.278771430253982,-0.0185089934895853,-0.0114022720754147));
#1380=CARTESIAN_POINT('',(0.278771430253982,-0.0185089934895853,-0.0114767549977337));
#1381=CARTESIAN_POINT('',(0.278771430253982,-0.0741216391205788,-0.0114767549977337));
#1382=CARTESIAN_POINT('',(0.,-0.02075,-0.0103));
#1383=CARTESIAN_POINT('',(0.297521671485901,-0.02075,-0.0103));
#1384=CARTESIAN_POINT('',(0.2992249,-0.02075,-0.0103));
#1385=CARTESIAN_POINT('',(0.2992249,0.,-0.0103));
#1386=CARTESIAN_POINT('',(0.307167559862137,-0.0749648846685887,-0.0103));
#1387=CARTESIAN_POINT('',(0.302858125287799,-0.0179887046532538,-0.0041));
#1388=CARTESIAN_POINT('',(0.302858125287799,-0.0179887046532538,-0.0041));
#1389=CARTESIAN_POINT('',(0.300358125287799,-0.0179887046532538,-0.0041));
#1390=CARTESIAN_POINT('',(0.128863658756018,-0.0749648846685887,-0.0041));
#1391=CARTESIAN_POINT('',(0.3024610370118,-0.131540116868596,-0.0041));
#1392=CARTESIAN_POINT('',(0.3024610370118,-0.131540116868596,-0.0041));
#1393=CARTESIAN_POINT('',(0.2999610370118,-0.131540116868596,-0.0041));
#1394=CARTESIAN_POINT('',(0.128863658756018,-0.0749648846685887,-0.0041));
#1395=CARTESIAN_POINT('',(0.284796550869941,-0.0741216391205788,-0.0163604616336524));
#1396=CARTESIAN_POINT('',(0.278771430253982,-0.0741216391205788,-0.0163604616336524));
#1397=CARTESIAN_POINT('',(0.278771430253982,-0.0185089934895853,-0.0163604616336524));
#1398=CARTESIAN_POINT('',(0.273371430253983,-0.0185089934895853,-0.0163604616336524));
#1399=CARTESIAN_POINT('',(0.297521671485901,-0.0741216391205788,-0.0163604616336524));
#1400=CARTESIAN_POINT('',(0.297521671485901,-0.0195853505283594,-0.0163604616336524));
#1401=CARTESIAN_POINT('',(0.297521671485901,-0.0195853505283594,-0.0163604616336524));
#1402=CARTESIAN_POINT('',(0.290821671485901,-0.0195853505283594,-0.0163604616336524));
#1403=CARTESIAN_POINT('',(0.290821671485901,-0.0741216391205788,-0.0163604616336524));
#1404=CARTESIAN_POINT('',(0.278771430253982,-0.0741216391205788,-0.013918608315693));
#1405=CARTESIAN_POINT('',(0.278771430253982,-0.0741216391205788,-0.0114767549977337));
#1406=CARTESIAN_POINT('',(0.278771430253982,-0.0185089934895853,-0.0114022720754147));
#1407=CARTESIAN_POINT('',(0.284796550869941,-0.0741216391205788,-0.0114767549977337));
#1408=CARTESIAN_POINT('',(0.290821671485901,-0.0741216391205788,-0.0114767549977337));
#1409=CARTESIAN_POINT('',(0.290821671485901,-0.0195733793625634,-0.0114767549977337));
#1410=CARTESIAN_POINT('',(0.286440337826078,-0.0195733793625634,-0.0114767549977337));
#1411=CARTESIAN_POINT('',(0.290821671485901,-0.0741216391205788,-0.013918608315693));
#1412=CARTESIAN_POINT('',(0.290821671485901,-0.0195853505283594,-0.0119911315068603));
#1413=CARTESIAN_POINT('',(0.290821671485901,-0.0195853505283594,-0.0114767549977337));
#1414=CARTESIAN_POINT('',(0.290821671485901,-0.0741216391205788,-0.0114767549977337));
#1415=CARTESIAN_POINT('',(0.297521671485901,-0.0195853505283594,-0.0119911315068603));
#1416=CARTESIAN_POINT('',(0.2949362498367,-0.0195853505283594,-0.0119911315068603));
#1417=CARTESIAN_POINT('',(0.2949362498367,-0.0195853505283594,-0.0114767549977337));
#1418=CARTESIAN_POINT('',(0.297521671485901,-0.0195853505283594,-0.0114767549977337));
#1419=CARTESIAN_POINT('',(0.297521671485901,-0.0195853505283594,-0.0119911315068603));
#1420=CARTESIAN_POINT('',(0.297521671485901,-0.0439716391205787,-0.0119911315068603));
#1421=CARTESIAN_POINT('',(0.290821671485901,-0.0439716391205787,-0.0119911315068603));
#1422=CARTESIAN_POINT('',(0.273371430253983,-0.0185089934895853,-0.0114022720754147));
#1423=CARTESIAN_POINT('',(0.2949362498367,-0.0465328775310721,-0.00647675499773366));
#1424=CARTESIAN_POINT('',(0.2949362498367,-0.0195733793625634,-0.00647675499773366));
#1425=CARTESIAN_POINT('',(0.2949362498367,-0.0195733793625634,-0.0114767549977337));
#1426=CARTESIAN_POINT('',(0.2949362498367,-0.0465328775310721,-0.0114767549977337));
#1427=CARTESIAN_POINT('',(0.286440337826078,-0.0439716391205787,-0.0114767549977337));
#1428=CARTESIAN_POINT('',(0.286440337826078,-0.0195733793625634,-0.0114767549977337));
#1429=CARTESIAN_POINT('',(0.286440337826078,-0.0195733793625634,-0.00647675499773366));
#1430=CARTESIAN_POINT('',(0.284351080656051,-0.0755522921681404,-0.0144));
#1431=CARTESIAN_POINT('',(0.125963987494588,-0.13242340070676,-0.0133));
#1432=CARTESIAN_POINT('',(0.125963987494588,-0.134836122232768,-0.0133));
#1433=CARTESIAN_POINT('',(0.125963987494588,-0.134836122232768,-0.0133));
#1434=CARTESIAN_POINT('',(0.125963987494588,-0.13242340070676,-0.0133));
#1435=CARTESIAN_POINT('',(0.125963987494588,-0.130010679180752,-0.0133));
#1436=CARTESIAN_POINT('',(0.125963987494588,-0.130010679180752,-0.0133));
#1437=CARTESIAN_POINT('',(0.1192406674196,-0.134836122232768,-0.0133));
#1438=CARTESIAN_POINT('',(0.1192406674196,-0.134836122232768,-0.0133));
#1439=CARTESIAN_POINT('',(0.1192406674196,-0.130010679180752,-0.0133));
#1440=CARTESIAN_POINT('',(0.1192406674196,-0.130010679180752,-0.0133));
#1441=CARTESIAN_POINT('',(0.209842453603375,-0.0749648846685887,-0.0133));
#1442=CARTESIAN_POINT('',(0.120371930056304,-0.0158728054598218,-0.0133));
#1443=CARTESIAN_POINT('',(0.127871930056304,-0.0158728054598218,-0.0133));
#1444=CARTESIAN_POINT('',(0.127871930056304,-0.0158728054598218,-0.0133));
#1445=CARTESIAN_POINT('',(0.120371930056304,-0.0158728054598218,-0.0133));
#1446=CARTESIAN_POINT('',(0.127871930056304,-0.0183728054598218,-0.0133));
#1447=CARTESIAN_POINT('',(0.127871930056304,-0.0208728054598218,-0.0133));
#1448=CARTESIAN_POINT('',(0.127871930056304,-0.0208728054598218,-0.0133));
#1449=CARTESIAN_POINT('',(0.127871930056304,-0.0183728054598218,-0.0133));
#1450=CARTESIAN_POINT('',(0.120371930056304,-0.0208728054598218,-0.0133));
#1451=CARTESIAN_POINT('',(0.120371930056304,-0.0208728054598218,-0.0133));
#1452=CARTESIAN_POINT('',(0.209842453603375,-0.0749648846685887,-0.0133));
#1453=MECHANICAL_DESIGN_GEOMETRIC_PRESENTATION_REPRESENTATION('',(#912),
#1454);
#1454=(
GEOMETRIC_REPRESENTATION_CONTEXT(3)
GLOBAL_UNCERTAINTY_ASSIGNED_CONTEXT((#1455))
GLOBAL_UNIT_ASSIGNED_CONTEXT((#1458,#1457,#1456))
REPRESENTATION_CONTEXT('Part 4','TOP_LEVEL_ASSEMBLY_PART')
);
#1455=UNCERTAINTY_MEASURE_WITH_UNIT(LENGTH_MEASURE(1.E-8),#1458,
'DISTANCE_ACCURACY_VALUE','Maximum Tolerance applied to model');
#1456=(
NAMED_UNIT(*)
SI_UNIT($,.STERADIAN.)
SOLID_ANGLE_UNIT()
);
#1457=(
NAMED_UNIT(*)
PLANE_ANGLE_UNIT()
SI_UNIT($,.RADIAN.)
);
#1458=(
LENGTH_UNIT()
NAMED_UNIT(*)
SI_UNIT($,.METRE.)
);
#1459=PRODUCT_DEFINITION_SHAPE('','',#1460);
#1460=PRODUCT_DEFINITION('','',#1462,#1461);
#1461=PRODUCT_DEFINITION_CONTEXT('',#1468,'design');
#1462=PRODUCT_DEFINITION_FORMATION_WITH_SPECIFIED_SOURCE('','',#1464,
 .NOT_KNOWN.);
#1463=PRODUCT_RELATED_PRODUCT_CATEGORY('','',(#1464));
#1464=PRODUCT('Part 4','Part 4','Part 4',(#1466));
#1465=PRODUCT_CATEGORY('','');
#1466=PRODUCT_CONTEXT('',#1468,'mechanical');
#1467=APPLICATION_PROTOCOL_DEFINITION('international standard',
'ap242_managed_model_based_3d_engineering',2020,#1468);
#1468=APPLICATION_CONTEXT('managed model based 3d engineering');
ENDSEC;
END-ISO-10303-21;
