ISO-10303-21;
HEADER;
/* Generated by software containing ST-Developer
 * from STEP Tools, Inc. (www.steptools.com) 
 */
/* OPTION: using custom renumber hook */

FILE_DESCRIPTION(
/* description */ ('STEP AP242 Edition 2',
'CAx-IF Rec.Pracs.---Representation and Presentation of Product Manufa
cturing Information (PMI)---4.0---2014-10-13',
'CAx-IF Rec.Pracs.---3D Tessellated Geometry---0.4---2014-09-14','2;1',
'CAx-IF Rec.Pracs.---User Defined Attributes---1.5---2016-08-15'),
/* implementation_level */ '2;1');

FILE_NAME(
/* name */ 'Part Studio 3 - Part 3',
/* time_stamp */ '2026-07-28T10:09:28Z',
/* author */ (''),
/* organization */ (''),
/* preprocessor_version */ 'ST-DEVELOPER v20',
/* originating_system */ 'ONSHAPE BY PTC INC, 1.218',
/* authorisation */ '  ');

FILE_SCHEMA (('AP242_MANAGED_MODEL_BASED_3D_ENGINEERING_MIM_LF { 1 0 10303 442 3 1 4 }'));
ENDSEC;

DATA;
#10=SHAPE_REPRESENTATION_RELATIONSHIP('','',#537,#11);
#11=ADVANCED_BREP_SHAPE_REPRESENTATION('',(#535),#851);
#12=LINE('',#717,#78);
#13=LINE('',#720,#79);
#14=LINE('',#722,#80);
#15=LINE('',#724,#81);
#16=LINE('',#726,#82);
#17=LINE('',#729,#83);
#18=LINE('',#731,#84);
#19=LINE('',#733,#85);
#20=LINE('',#735,#86);
#21=LINE('',#738,#87);
#22=LINE('',#739,#88);
#23=LINE('',#741,#89);
#24=LINE('',#743,#90);
#25=LINE('',#745,#91);
#26=LINE('',#747,#92);
#27=LINE('',#750,#93);
#28=LINE('',#752,#94);
#29=LINE('',#754,#95);
#30=LINE('',#756,#96);
#31=LINE('',#759,#97);
#32=LINE('',#760,#98);
#33=LINE('',#762,#99);
#34=LINE('',#764,#100);
#35=LINE('',#766,#101);
#36=LINE('',#768,#102);
#37=LINE('',#770,#103);
#38=LINE('',#773,#104);
#39=LINE('',#774,#105);
#40=LINE('',#776,#106);
#41=LINE('',#779,#107);
#42=LINE('',#780,#108);
#43=LINE('',#782,#109);
#44=LINE('',#785,#110);
#45=LINE('',#787,#111);
#46=LINE('',#788,#112);
#47=LINE('',#790,#113);
#48=LINE('',#792,#114);
#49=LINE('',#794,#115);
#50=LINE('',#796,#116);
#51=LINE('',#798,#117);
#52=LINE('',#800,#118);
#53=LINE('',#802,#119);
#54=LINE('',#804,#120);
#55=LINE('',#806,#121);
#56=LINE('',#808,#122);
#57=LINE('',#810,#123);
#58=LINE('',#812,#124);
#59=LINE('',#813,#125);
#60=LINE('',#815,#126);
#61=LINE('',#816,#127);
#62=LINE('',#818,#128);
#63=LINE('',#821,#129);
#64=LINE('',#822,#130);
#65=LINE('',#824,#131);
#66=LINE('',#826,#132);
#67=LINE('',#827,#133);
#68=LINE('',#829,#134);
#69=LINE('',#831,#135);
#70=LINE('',#833,#136);
#71=LINE('',#835,#137);
#72=LINE('',#837,#138);
#73=LINE('',#840,#139);
#74=LINE('',#842,#140);
#75=LINE('',#844,#141);
#76=LINE('',#846,#142);
#77=LINE('',#848,#143);
#78=VECTOR('',#591,1.);
#79=VECTOR('',#592,1.);
#80=VECTOR('',#593,1.);
#81=VECTOR('',#594,1.);
#82=VECTOR('',#597,1.);
#83=VECTOR('',#598,1.);
#84=VECTOR('',#599,1.);
#85=VECTOR('',#600,1.);
#86=VECTOR('',#603,1.);
#87=VECTOR('',#604,1.);
#88=VECTOR('',#605,1.);
#89=VECTOR('',#608,1.);
#90=VECTOR('',#609,1.);
#91=VECTOR('',#610,1.);
#92=VECTOR('',#613,1.);
#93=VECTOR('',#614,1.);
#94=VECTOR('',#615,1.);
#95=VECTOR('',#616,1.);
#96=VECTOR('',#619,1.);
#97=VECTOR('',#620,1.);
#98=VECTOR('',#621,1.);
#99=VECTOR('',#624,1.);
#100=VECTOR('',#625,1.);
#101=VECTOR('',#628,1.);
#102=VECTOR('',#629,1.);
#103=VECTOR('',#632,1.);
#104=VECTOR('',#633,1.);
#105=VECTOR('',#634,1.);
#106=VECTOR('',#637,1.);
#107=VECTOR('',#638,1.);
#108=VECTOR('',#639,1.);
#109=VECTOR('',#642,1.);
#110=VECTOR('',#643,1.);
#111=VECTOR('',#644,1.);
#112=VECTOR('',#645,1.);
#113=VECTOR('',#646,1.);
#114=VECTOR('',#647,1.);
#115=VECTOR('',#648,1.);
#116=VECTOR('',#649,1.);
#117=VECTOR('',#650,1.);
#118=VECTOR('',#651,1.);
#119=VECTOR('',#652,1.);
#120=VECTOR('',#655,1.);
#121=VECTOR('',#656,1.);
#122=VECTOR('',#659,1.);
#123=VECTOR('',#660,1.);
#124=VECTOR('',#663,1.);
#125=VECTOR('',#664,1.);
#126=VECTOR('',#667,1.);
#127=VECTOR('',#668,1.);
#128=VECTOR('',#671,1.);
#129=VECTOR('',#672,1.);
#130=VECTOR('',#673,1.);
#131=VECTOR('',#674,1.);
#132=VECTOR('',#675,1.);
#133=VECTOR('',#676,1.);
#134=VECTOR('',#679,1.);
#135=VECTOR('',#680,1.);
#136=VECTOR('',#681,1.);
#137=VECTOR('',#684,1.);
#138=VECTOR('',#687,1.);
#139=VECTOR('',#692,1.);
#140=VECTOR('',#693,1.);
#141=VECTOR('',#696,1.);
#142=VECTOR('',#697,1.);
#143=VECTOR('',#700,1.);
#144=CYLINDRICAL_SURFACE('',#543,0.0025);
#145=CYLINDRICAL_SURFACE('',#545,0.0025);
#146=ORIENTED_EDGE('',*,*,#286,.F.);
#147=ORIENTED_EDGE('',*,*,#287,.F.);
#148=ORIENTED_EDGE('',*,*,#286,.T.);
#149=ORIENTED_EDGE('',*,*,#288,.F.);
#150=ORIENTED_EDGE('',*,*,#287,.T.);
#151=ORIENTED_EDGE('',*,*,#289,.F.);
#152=ORIENTED_EDGE('',*,*,#290,.F.);
#153=ORIENTED_EDGE('',*,*,#291,.F.);
#154=ORIENTED_EDGE('',*,*,#292,.T.);
#155=ORIENTED_EDGE('',*,*,#293,.T.);
#156=ORIENTED_EDGE('',*,*,#294,.F.);
#157=ORIENTED_EDGE('',*,*,#295,.T.);
#158=ORIENTED_EDGE('',*,*,#296,.T.);
#159=ORIENTED_EDGE('',*,*,#297,.F.);
#160=ORIENTED_EDGE('',*,*,#298,.T.);
#161=ORIENTED_EDGE('',*,*,#299,.F.);
#162=ORIENTED_EDGE('',*,*,#295,.F.);
#163=ORIENTED_EDGE('',*,*,#300,.T.);
#164=ORIENTED_EDGE('',*,*,#297,.T.);
#165=ORIENTED_EDGE('',*,*,#301,.F.);
#166=ORIENTED_EDGE('',*,*,#302,.F.);
#167=ORIENTED_EDGE('',*,*,#303,.T.);
#168=ORIENTED_EDGE('',*,*,#304,.F.);
#169=ORIENTED_EDGE('',*,*,#305,.F.);
#170=ORIENTED_EDGE('',*,*,#306,.T.);
#171=ORIENTED_EDGE('',*,*,#307,.F.);
#172=ORIENTED_EDGE('',*,*,#308,.F.);
#173=ORIENTED_EDGE('',*,*,#309,.F.);
#174=ORIENTED_EDGE('',*,*,#305,.T.);
#175=ORIENTED_EDGE('',*,*,#310,.T.);
#176=ORIENTED_EDGE('',*,*,#311,.F.);
#177=ORIENTED_EDGE('',*,*,#312,.T.);
#178=ORIENTED_EDGE('',*,*,#306,.F.);
#179=ORIENTED_EDGE('',*,*,#309,.T.);
#180=ORIENTED_EDGE('',*,*,#313,.F.);
#181=ORIENTED_EDGE('',*,*,#314,.T.);
#182=ORIENTED_EDGE('',*,*,#310,.F.);
#183=ORIENTED_EDGE('',*,*,#304,.T.);
#184=ORIENTED_EDGE('',*,*,#315,.F.);
#185=ORIENTED_EDGE('',*,*,#316,.F.);
#186=ORIENTED_EDGE('',*,*,#293,.F.);
#187=ORIENTED_EDGE('',*,*,#317,.T.);
#188=ORIENTED_EDGE('',*,*,#318,.F.);
#189=ORIENTED_EDGE('',*,*,#319,.T.);
#190=ORIENTED_EDGE('',*,*,#291,.T.);
#191=ORIENTED_EDGE('',*,*,#320,.F.);
#192=ORIENTED_EDGE('',*,*,#321,.F.);
#193=ORIENTED_EDGE('',*,*,#322,.F.);
#194=ORIENTED_EDGE('',*,*,#323,.T.);
#195=ORIENTED_EDGE('',*,*,#302,.T.);
#196=ORIENTED_EDGE('',*,*,#324,.F.);
#197=ORIENTED_EDGE('',*,*,#325,.F.);
#198=ORIENTED_EDGE('',*,*,#326,.F.);
#199=ORIENTED_EDGE('',*,*,#327,.T.);
#200=ORIENTED_EDGE('',*,*,#328,.T.);
#201=ORIENTED_EDGE('',*,*,#329,.F.);
#202=ORIENTED_EDGE('',*,*,#330,.T.);
#203=ORIENTED_EDGE('',*,*,#331,.F.);
#204=ORIENTED_EDGE('',*,*,#323,.F.);
#205=ORIENTED_EDGE('',*,*,#332,.T.);
#206=ORIENTED_EDGE('',*,*,#333,.T.);
#207=ORIENTED_EDGE('',*,*,#300,.F.);
#208=ORIENTED_EDGE('',*,*,#294,.T.);
#209=ORIENTED_EDGE('',*,*,#303,.F.);
#210=ORIENTED_EDGE('',*,*,#334,.F.);
#211=ORIENTED_EDGE('',*,*,#324,.T.);
#212=ORIENTED_EDGE('',*,*,#301,.T.);
#213=ORIENTED_EDGE('',*,*,#296,.F.);
#214=ORIENTED_EDGE('',*,*,#299,.T.);
#215=ORIENTED_EDGE('',*,*,#335,.F.);
#216=ORIENTED_EDGE('',*,*,#289,.T.);
#217=ORIENTED_EDGE('',*,*,#288,.T.);
#218=ORIENTED_EDGE('',*,*,#333,.F.);
#219=ORIENTED_EDGE('',*,*,#336,.T.);
#220=ORIENTED_EDGE('',*,*,#320,.T.);
#221=ORIENTED_EDGE('',*,*,#290,.T.);
#222=ORIENTED_EDGE('',*,*,#316,.T.);
#223=ORIENTED_EDGE('',*,*,#337,.T.);
#224=ORIENTED_EDGE('',*,*,#335,.T.);
#225=ORIENTED_EDGE('',*,*,#298,.F.);
#226=ORIENTED_EDGE('',*,*,#319,.F.);
#227=ORIENTED_EDGE('',*,*,#338,.T.);
#228=ORIENTED_EDGE('',*,*,#313,.T.);
#229=ORIENTED_EDGE('',*,*,#307,.T.);
#230=ORIENTED_EDGE('',*,*,#312,.F.);
#231=ORIENTED_EDGE('',*,*,#339,.T.);
#232=ORIENTED_EDGE('',*,*,#317,.F.);
#233=ORIENTED_EDGE('',*,*,#292,.F.);
#234=ORIENTED_EDGE('',*,*,#340,.T.);
#235=ORIENTED_EDGE('',*,*,#341,.T.);
#236=ORIENTED_EDGE('',*,*,#329,.T.);
#237=ORIENTED_EDGE('',*,*,#342,.F.);
#238=ORIENTED_EDGE('',*,*,#343,.T.);
#239=ORIENTED_EDGE('',*,*,#344,.T.);
#240=ORIENTED_EDGE('',*,*,#325,.T.);
#241=ORIENTED_EDGE('',*,*,#334,.T.);
#242=ORIENTED_EDGE('',*,*,#337,.F.);
#243=ORIENTED_EDGE('',*,*,#315,.T.);
#244=ORIENTED_EDGE('',*,*,#339,.F.);
#245=ORIENTED_EDGE('',*,*,#311,.T.);
#246=ORIENTED_EDGE('',*,*,#308,.T.);
#247=ORIENTED_EDGE('',*,*,#314,.F.);
#248=ORIENTED_EDGE('',*,*,#338,.F.);
#249=ORIENTED_EDGE('',*,*,#318,.T.);
#250=ORIENTED_EDGE('',*,*,#336,.F.);
#251=ORIENTED_EDGE('',*,*,#332,.F.);
#252=ORIENTED_EDGE('',*,*,#322,.T.);
#253=ORIENTED_EDGE('',*,*,#345,.F.);
#254=ORIENTED_EDGE('',*,*,#327,.F.);
#255=ORIENTED_EDGE('',*,*,#346,.F.);
#256=ORIENTED_EDGE('',*,*,#347,.T.);
#257=ORIENTED_EDGE('',*,*,#348,.T.);
#258=ORIENTED_EDGE('',*,*,#326,.T.);
#259=ORIENTED_EDGE('',*,*,#344,.F.);
#260=ORIENTED_EDGE('',*,*,#349,.F.);
#261=ORIENTED_EDGE('',*,*,#346,.T.);
#262=ORIENTED_EDGE('',*,*,#328,.F.);
#263=ORIENTED_EDGE('',*,*,#348,.F.);
#264=ORIENTED_EDGE('',*,*,#350,.T.);
#265=ORIENTED_EDGE('',*,*,#342,.T.);
#266=ORIENTED_EDGE('',*,*,#347,.F.);
#267=ORIENTED_EDGE('',*,*,#349,.T.);
#268=ORIENTED_EDGE('',*,*,#343,.F.);
#269=ORIENTED_EDGE('',*,*,#350,.F.);
#270=ORIENTED_EDGE('',*,*,#321,.T.);
#271=ORIENTED_EDGE('',*,*,#351,.F.);
#272=ORIENTED_EDGE('',*,*,#352,.F.);
#273=ORIENTED_EDGE('',*,*,#345,.T.);
#274=ORIENTED_EDGE('',*,*,#331,.T.);
#275=ORIENTED_EDGE('',*,*,#353,.F.);
#276=ORIENTED_EDGE('',*,*,#354,.F.);
#277=ORIENTED_EDGE('',*,*,#351,.T.);
#278=ORIENTED_EDGE('',*,*,#330,.F.);
#279=ORIENTED_EDGE('',*,*,#341,.F.);
#280=ORIENTED_EDGE('',*,*,#355,.T.);
#281=ORIENTED_EDGE('',*,*,#353,.T.);
#282=ORIENTED_EDGE('',*,*,#340,.F.);
#283=ORIENTED_EDGE('',*,*,#352,.T.);
#284=ORIENTED_EDGE('',*,*,#354,.T.);
#285=ORIENTED_EDGE('',*,*,#355,.F.);
#286=EDGE_CURVE('',#356,#356,#404,.T.);
#287=EDGE_CURVE('',#357,#357,#405,.T.);
#288=EDGE_CURVE('',#358,#358,#406,.T.);
#289=EDGE_CURVE('',#359,#359,#407,.T.);
#290=EDGE_CURVE('',#360,#361,#12,.T.);
#291=EDGE_CURVE('',#362,#360,#13,.T.);
#292=EDGE_CURVE('',#362,#363,#14,.T.);
#293=EDGE_CURVE('',#363,#361,#15,.T.);
#294=EDGE_CURVE('',#364,#365,#16,.T.);
#295=EDGE_CURVE('',#364,#366,#17,.T.);
#296=EDGE_CURVE('',#366,#367,#18,.T.);
#297=EDGE_CURVE('',#365,#367,#19,.T.);
#298=EDGE_CURVE('',#368,#369,#20,.T.);
#299=EDGE_CURVE('',#366,#369,#21,.T.);
#300=EDGE_CURVE('',#364,#368,#22,.T.);
#301=EDGE_CURVE('',#370,#367,#23,.T.);
#302=EDGE_CURVE('',#371,#370,#24,.T.);
#303=EDGE_CURVE('',#371,#365,#25,.T.);
#304=EDGE_CURVE('',#372,#373,#26,.T.);
#305=EDGE_CURVE('',#374,#372,#27,.T.);
#306=EDGE_CURVE('',#374,#375,#28,.T.);
#307=EDGE_CURVE('',#373,#375,#29,.T.);
#308=EDGE_CURVE('',#376,#377,#30,.T.);
#309=EDGE_CURVE('',#374,#376,#31,.T.);
#310=EDGE_CURVE('',#372,#377,#32,.T.);
#311=EDGE_CURVE('',#378,#376,#33,.T.);
#312=EDGE_CURVE('',#378,#375,#34,.T.);
#313=EDGE_CURVE('',#379,#373,#35,.T.);
#314=EDGE_CURVE('',#379,#377,#36,.T.);
#315=EDGE_CURVE('',#380,#381,#37,.T.);
#316=EDGE_CURVE('',#361,#380,#38,.T.);
#317=EDGE_CURVE('',#363,#381,#39,.T.);
#318=EDGE_CURVE('',#382,#383,#40,.T.);
#319=EDGE_CURVE('',#382,#362,#41,.F.);
#320=EDGE_CURVE('',#383,#360,#42,.F.);
#321=EDGE_CURVE('',#384,#385,#43,.T.);
#322=EDGE_CURVE('',#386,#384,#44,.T.);
#323=EDGE_CURVE('',#386,#371,#45,.T.);
#324=EDGE_CURVE('',#387,#370,#46,.T.);
#325=EDGE_CURVE('',#388,#387,#47,.T.);
#326=EDGE_CURVE('',#389,#388,#48,.T.);
#327=EDGE_CURVE('',#389,#390,#49,.T.);
#328=EDGE_CURVE('',#390,#391,#50,.T.);
#329=EDGE_CURVE('',#392,#391,#51,.T.);
#330=EDGE_CURVE('',#392,#393,#52,.T.);
#331=EDGE_CURVE('',#385,#393,#53,.T.);
#332=EDGE_CURVE('',#386,#394,#54,.T.);
#333=EDGE_CURVE('',#394,#368,#55,.T.);
#334=EDGE_CURVE('',#387,#395,#56,.T.);
#335=EDGE_CURVE('',#395,#369,#57,.T.);
#336=EDGE_CURVE('',#394,#383,#58,.T.);
#337=EDGE_CURVE('',#380,#395,#59,.T.);
#338=EDGE_CURVE('',#382,#379,#60,.T.);
#339=EDGE_CURVE('',#378,#381,#61,.T.);
#340=EDGE_CURVE('',#396,#397,#62,.T.);
#341=EDGE_CURVE('',#397,#392,#63,.T.);
#342=EDGE_CURVE('',#398,#391,#64,.T.);
#343=EDGE_CURVE('',#398,#399,#65,.T.);
#344=EDGE_CURVE('',#399,#388,#66,.T.);
#345=EDGE_CURVE('',#396,#384,#67,.T.);
#346=EDGE_CURVE('',#400,#389,#68,.T.);
#347=EDGE_CURVE('',#400,#401,#69,.T.);
#348=EDGE_CURVE('',#401,#390,#70,.T.);
#349=EDGE_CURVE('',#400,#399,#71,.T.);
#350=EDGE_CURVE('',#401,#398,#72,.T.);
#351=EDGE_CURVE('',#402,#385,#73,.T.);
#352=EDGE_CURVE('',#396,#402,#74,.T.);
#353=EDGE_CURVE('',#403,#393,#75,.T.);
#354=EDGE_CURVE('',#402,#403,#76,.T.);
#355=EDGE_CURVE('',#397,#403,#77,.T.);
#356=VERTEX_POINT('',#706);
#357=VERTEX_POINT('',#709);
#358=VERTEX_POINT('',#712);
#359=VERTEX_POINT('',#715);
#360=VERTEX_POINT('',#718);
#361=VERTEX_POINT('',#719);
#362=VERTEX_POINT('',#721);
#363=VERTEX_POINT('',#723);
#364=VERTEX_POINT('',#727);
#365=VERTEX_POINT('',#728);
#366=VERTEX_POINT('',#730);
#367=VERTEX_POINT('',#732);
#368=VERTEX_POINT('',#736);
#369=VERTEX_POINT('',#737);
#370=VERTEX_POINT('',#742);
#371=VERTEX_POINT('',#744);
#372=VERTEX_POINT('',#748);
#373=VERTEX_POINT('',#749);
#374=VERTEX_POINT('',#751);
#375=VERTEX_POINT('',#753);
#376=VERTEX_POINT('',#757);
#377=VERTEX_POINT('',#758);
#378=VERTEX_POINT('',#763);
#379=VERTEX_POINT('',#767);
#380=VERTEX_POINT('',#771);
#381=VERTEX_POINT('',#772);
#382=VERTEX_POINT('',#777);
#383=VERTEX_POINT('',#778);
#384=VERTEX_POINT('',#783);
#385=VERTEX_POINT('',#784);
#386=VERTEX_POINT('',#786);
#387=VERTEX_POINT('',#789);
#388=VERTEX_POINT('',#791);
#389=VERTEX_POINT('',#793);
#390=VERTEX_POINT('',#795);
#391=VERTEX_POINT('',#797);
#392=VERTEX_POINT('',#799);
#393=VERTEX_POINT('',#801);
#394=VERTEX_POINT('',#805);
#395=VERTEX_POINT('',#809);
#396=VERTEX_POINT('',#819);
#397=VERTEX_POINT('',#820);
#398=VERTEX_POINT('',#823);
#399=VERTEX_POINT('',#825);
#400=VERTEX_POINT('',#830);
#401=VERTEX_POINT('',#832);
#402=VERTEX_POINT('',#841);
#403=VERTEX_POINT('',#845);
#404=CIRCLE('',#540,0.0025);
#405=CIRCLE('',#542,0.0025);
#406=CIRCLE('',#544,0.0025);
#407=CIRCLE('',#546,0.0025);
#408=EDGE_LOOP('',(#146));
#409=EDGE_LOOP('',(#147));
#410=EDGE_LOOP('',(#148));
#411=EDGE_LOOP('',(#149));
#412=EDGE_LOOP('',(#150));
#413=EDGE_LOOP('',(#151));
#414=EDGE_LOOP('',(#152,#153,#154,#155));
#415=EDGE_LOOP('',(#156,#157,#158,#159));
#416=EDGE_LOOP('',(#160,#161,#162,#163));
#417=EDGE_LOOP('',(#164,#165,#166,#167));
#418=EDGE_LOOP('',(#168,#169,#170,#171));
#419=EDGE_LOOP('',(#172,#173,#174,#175));
#420=EDGE_LOOP('',(#176,#177,#178,#179));
#421=EDGE_LOOP('',(#180,#181,#182,#183));
#422=EDGE_LOOP('',(#184,#185,#186,#187));
#423=EDGE_LOOP('',(#188,#189,#190,#191));
#424=EDGE_LOOP('',(#192,#193,#194,#195,#196,#197,#198,#199,#200,#201,#202,
#203));
#425=EDGE_LOOP('',(#204,#205,#206,#207,#208,#209));
#426=EDGE_LOOP('',(#210,#211,#212,#213,#214,#215));
#427=EDGE_LOOP('',(#216));
#428=EDGE_LOOP('',(#217));
#429=EDGE_LOOP('',(#218,#219,#220,#221,#222,#223,#224,#225));
#430=EDGE_LOOP('',(#226,#227,#228,#229,#230,#231,#232,#233));
#431=EDGE_LOOP('',(#234,#235,#236,#237,#238,#239,#240,#241,#242,#243,#244,
#245,#246,#247,#248,#249,#250,#251,#252,#253));
#432=EDGE_LOOP('',(#254,#255,#256,#257));
#433=EDGE_LOOP('',(#258,#259,#260,#261));
#434=EDGE_LOOP('',(#262,#263,#264,#265));
#435=EDGE_LOOP('',(#266,#267,#268,#269));
#436=EDGE_LOOP('',(#270,#271,#272,#273));
#437=EDGE_LOOP('',(#274,#275,#276,#277));
#438=EDGE_LOOP('',(#278,#279,#280,#281));
#439=EDGE_LOOP('',(#282,#283,#284,#285));
#440=FACE_BOUND('',#408,.T.);
#441=FACE_BOUND('',#409,.T.);
#442=FACE_BOUND('',#410,.T.);
#443=FACE_BOUND('',#411,.T.);
#444=FACE_BOUND('',#412,.T.);
#445=FACE_BOUND('',#413,.T.);
#446=FACE_BOUND('',#414,.T.);
#447=FACE_BOUND('',#415,.T.);
#448=FACE_BOUND('',#416,.T.);
#449=FACE_BOUND('',#417,.T.);
#450=FACE_BOUND('',#418,.T.);
#451=FACE_BOUND('',#419,.T.);
#452=FACE_BOUND('',#420,.T.);
#453=FACE_BOUND('',#421,.T.);
#454=FACE_BOUND('',#422,.T.);
#455=FACE_BOUND('',#423,.T.);
#456=FACE_BOUND('',#424,.T.);
#457=FACE_BOUND('',#425,.T.);
#458=FACE_BOUND('',#426,.T.);
#459=FACE_BOUND('',#427,.T.);
#460=FACE_BOUND('',#428,.T.);
#461=FACE_BOUND('',#429,.T.);
#462=FACE_BOUND('',#430,.T.);
#463=FACE_BOUND('',#431,.T.);
#464=FACE_BOUND('',#432,.T.);
#465=FACE_BOUND('',#433,.T.);
#466=FACE_BOUND('',#434,.T.);
#467=FACE_BOUND('',#435,.T.);
#468=FACE_BOUND('',#436,.T.);
#469=FACE_BOUND('',#437,.T.);
#470=FACE_BOUND('',#438,.T.);
#471=FACE_BOUND('',#439,.T.);
#472=PLANE('',#539);
#473=PLANE('',#541);
#474=PLANE('',#547);
#475=PLANE('',#548);
#476=PLANE('',#549);
#477=PLANE('',#550);
#478=PLANE('',#551);
#479=PLANE('',#552);
#480=PLANE('',#553);
#481=PLANE('',#554);
#482=PLANE('',#555);
#483=PLANE('',#556);
#484=PLANE('',#557);
#485=PLANE('',#558);
#486=PLANE('',#559);
#487=PLANE('',#560);
#488=PLANE('',#561);
#489=PLANE('',#562);
#490=PLANE('',#563);
#491=PLANE('',#564);
#492=PLANE('',#565);
#493=PLANE('',#566);
#494=PLANE('',#567);
#495=PLANE('',#568);
#496=PLANE('',#569);
#497=PLANE('',#570);
#498=ADVANCED_FACE('',(#440),#472,.F.);
#499=ADVANCED_FACE('',(#441),#473,.F.);
#500=ADVANCED_FACE('',(#442,#443),#144,.T.);
#501=ADVANCED_FACE('',(#444,#445),#145,.T.);
#502=ADVANCED_FACE('',(#446),#474,.T.);
#503=ADVANCED_FACE('',(#447),#475,.F.);
#504=ADVANCED_FACE('',(#448),#476,.F.);
#505=ADVANCED_FACE('',(#449),#477,.F.);
#506=ADVANCED_FACE('',(#450),#478,.F.);
#507=ADVANCED_FACE('',(#451),#479,.T.);
#508=ADVANCED_FACE('',(#452),#480,.T.);
#509=ADVANCED_FACE('',(#453),#481,.F.);
#510=ADVANCED_FACE('',(#454),#482,.T.);
#511=ADVANCED_FACE('',(#455),#483,.T.);
#512=ADVANCED_FACE('',(#456),#484,.T.);
#513=ADVANCED_FACE('',(#457),#485,.F.);
#514=ADVANCED_FACE('',(#458),#486,.T.);
#515=ADVANCED_FACE('',(#459,#460,#461),#487,.F.);
#516=ADVANCED_FACE('',(#462),#488,.F.);
#517=ADVANCED_FACE('',(#463),#489,.F.);
#518=ADVANCED_FACE('',(#464),#490,.T.);
#519=ADVANCED_FACE('',(#465),#491,.F.);
#520=ADVANCED_FACE('',(#466),#492,.T.);
#521=ADVANCED_FACE('',(#467),#493,.T.);
#522=ADVANCED_FACE('',(#468),#494,.F.);
#523=ADVANCED_FACE('',(#469),#495,.F.);
#524=ADVANCED_FACE('',(#470),#496,.T.);
#525=ADVANCED_FACE('',(#471),#497,.T.);
#526=CLOSED_SHELL('',(#498,#499,#500,#501,#502,#503,#504,#505,#506,#507,
#508,#509,#510,#511,#512,#513,#514,#515,#516,#517,#518,#519,#520,#521,#522,
#523,#524,#525));
#527=STYLED_ITEM('',(#528),#535);
#528=PRESENTATION_STYLE_ASSIGNMENT((#529));
#529=SURFACE_STYLE_USAGE(.BOTH.,#530);
#530=SURFACE_SIDE_STYLE('',(#531));
#531=SURFACE_STYLE_FILL_AREA(#532);
#532=FILL_AREA_STYLE('',(#533));
#533=FILL_AREA_STYLE_COLOUR('',#534);
#534=COLOUR_RGB('',0.647058823529412,0.647058823529412,0.647058823529412);
#535=MANIFOLD_SOLID_BREP('Part 3',#526);
#536=SHAPE_DEFINITION_REPRESENTATION(#856,#537);
#537=SHAPE_REPRESENTATION('Part 3',(#538),#851);
#538=AXIS2_PLACEMENT_3D('',#703,#571,#572);
#539=AXIS2_PLACEMENT_3D('',#704,#573,#574);
#540=AXIS2_PLACEMENT_3D('',#705,#575,#576);
#541=AXIS2_PLACEMENT_3D('',#707,#577,#578);
#542=AXIS2_PLACEMENT_3D('',#708,#579,#580);
#543=AXIS2_PLACEMENT_3D('',#710,#581,#582);
#544=AXIS2_PLACEMENT_3D('',#711,#583,#584);
#545=AXIS2_PLACEMENT_3D('',#713,#585,#586);
#546=AXIS2_PLACEMENT_3D('',#714,#587,#588);
#547=AXIS2_PLACEMENT_3D('',#716,#589,#590);
#548=AXIS2_PLACEMENT_3D('',#725,#595,#596);
#549=AXIS2_PLACEMENT_3D('',#734,#601,#602);
#550=AXIS2_PLACEMENT_3D('',#740,#606,#607);
#551=AXIS2_PLACEMENT_3D('',#746,#611,#612);
#552=AXIS2_PLACEMENT_3D('',#755,#617,#618);
#553=AXIS2_PLACEMENT_3D('',#761,#622,#623);
#554=AXIS2_PLACEMENT_3D('',#765,#626,#627);
#555=AXIS2_PLACEMENT_3D('',#769,#630,#631);
#556=AXIS2_PLACEMENT_3D('',#775,#635,#636);
#557=AXIS2_PLACEMENT_3D('',#781,#640,#641);
#558=AXIS2_PLACEMENT_3D('',#803,#653,#654);
#559=AXIS2_PLACEMENT_3D('',#807,#657,#658);
#560=AXIS2_PLACEMENT_3D('',#811,#661,#662);
#561=AXIS2_PLACEMENT_3D('',#814,#665,#666);
#562=AXIS2_PLACEMENT_3D('',#817,#669,#670);
#563=AXIS2_PLACEMENT_3D('',#828,#677,#678);
#564=AXIS2_PLACEMENT_3D('',#834,#682,#683);
#565=AXIS2_PLACEMENT_3D('',#836,#685,#686);
#566=AXIS2_PLACEMENT_3D('',#838,#688,#689);
#567=AXIS2_PLACEMENT_3D('',#839,#690,#691);
#568=AXIS2_PLACEMENT_3D('',#843,#694,#695);
#569=AXIS2_PLACEMENT_3D('',#847,#698,#699);
#570=AXIS2_PLACEMENT_3D('',#849,#701,#702);
#571=DIRECTION('',(0.,0.,1.));
#572=DIRECTION('',(1.,0.,0.));
#573=DIRECTION('',(0.,0.,-1.));
#574=DIRECTION('',(1.,0.,0.));
#575=DIRECTION('',(0.,0.,-1.));
#576=DIRECTION('',(-1.,0.,0.));
#577=DIRECTION('',(0.,0.,-1.));
#578=DIRECTION('',(1.,0.,0.));
#579=DIRECTION('',(0.,0.,-1.));
#580=DIRECTION('',(-1.,0.,0.));
#581=DIRECTION('',(0.,0.,-1.));
#582=DIRECTION('',(-1.,0.,0.));
#583=DIRECTION('',(0.,0.,-1.));
#584=DIRECTION('',(-1.,0.,0.));
#585=DIRECTION('',(0.,0.,-1.));
#586=DIRECTION('',(-1.,0.,0.));
#587=DIRECTION('',(0.,0.,-1.));
#588=DIRECTION('',(-1.,0.,0.));
#589=DIRECTION('',(1.,0.,0.));
#590=DIRECTION('',(0.,0.,-1.));
#591=DIRECTION('',(0.,1.,0.));
#592=DIRECTION('',(0.,0.,1.));
#593=DIRECTION('',(0.,1.,0.));
#594=DIRECTION('',(0.,0.,1.));
#595=DIRECTION('',(0.,0.,-1.));
#596=DIRECTION('',(1.,0.,0.));
#597=DIRECTION('',(-1.,0.,0.));
#598=DIRECTION('',(3.40457584891799E-16,1.,0.));
#599=DIRECTION('',(-1.,0.,0.));
#600=DIRECTION('',(3.40457584891799E-16,1.,0.));
#601=DIRECTION('',(1.,-3.40457584891799E-16,0.));
#602=DIRECTION('',(3.40457584891799E-16,1.,0.));
#603=DIRECTION('',(3.40457584891799E-16,1.,0.));
#604=DIRECTION('',(0.,0.,1.));
#605=DIRECTION('',(0.,0.,1.));
#606=DIRECTION('',(1.,-3.40457584891799E-16,0.));
#607=DIRECTION('',(3.40457584891799E-16,1.,0.));
#608=DIRECTION('',(0.,0.,1.));
#609=DIRECTION('',(3.40457584891799E-16,1.,0.));
#610=DIRECTION('',(0.,0.,1.));
#611=DIRECTION('',(-1.,0.,0.));
#612=DIRECTION('',(0.,0.,1.));
#613=DIRECTION('',(0.,0.,1.));
#614=DIRECTION('',(0.,-1.,0.));
#615=DIRECTION('',(0.,0.,1.));
#616=DIRECTION('',(0.,1.,0.));
#617=DIRECTION('',(0.,0.,1.));
#618=DIRECTION('',(1.,0.,0.));
#619=DIRECTION('',(2.83712590511265E-16,-1.,0.));
#620=DIRECTION('',(1.,0.,0.));
#621=DIRECTION('',(1.,0.,0.));
#622=DIRECTION('',(0.,-1.,0.));
#623=DIRECTION('',(0.,0.,-1.));
#624=DIRECTION('',(0.,0.,-1.));
#625=DIRECTION('',(-1.,0.,0.));
#626=DIRECTION('',(0.,-1.,0.));
#627=DIRECTION('',(0.,0.,-1.));
#628=DIRECTION('',(-1.,0.,0.));
#629=DIRECTION('',(0.,0.,-1.));
#630=DIRECTION('',(0.,-1.,0.));
#631=DIRECTION('',(0.,0.,-1.));
#632=DIRECTION('',(0.,0.,-1.));
#633=DIRECTION('',(1.,0.,0.));
#634=DIRECTION('',(1.,0.,0.));
#635=DIRECTION('',(0.,1.,0.));
#636=DIRECTION('',(0.,0.,1.));
#637=DIRECTION('',(0.,0.,1.));
#638=DIRECTION('',(1.,0.,0.));
#639=DIRECTION('',(1.,0.,0.));
#640=DIRECTION('',(0.,0.,-1.));
#641=DIRECTION('',(1.,0.,0.));
#642=DIRECTION('',(-1.,0.,0.));
#643=DIRECTION('',(-2.83712590511265E-16,1.,0.));
#644=DIRECTION('',(-1.,0.,0.));
#645=DIRECTION('',(-1.,0.,0.));
#646=DIRECTION('',(-2.83712590511265E-16,1.,0.));
#647=DIRECTION('',(1.,0.,0.));
#648=DIRECTION('',(0.,-1.,0.));
#649=DIRECTION('',(1.,0.,0.));
#650=DIRECTION('',(-2.83712590511265E-16,1.,0.));
#651=DIRECTION('',(-1.,0.,0.));
#652=DIRECTION('',(0.,1.,0.));
#653=DIRECTION('',(1.55664432709803E-16,1.,0.));
#654=DIRECTION('',(-1.,1.55664432709803E-16,0.));
#655=DIRECTION('',(0.,0.,1.));
#656=DIRECTION('',(-1.,1.55664432709803E-16,0.));
#657=DIRECTION('',(1.26477351576715E-16,1.,0.));
#658=DIRECTION('',(-1.,1.26477351576715E-16,0.));
#659=DIRECTION('',(0.,0.,1.));
#660=DIRECTION('',(-1.,1.26477351576715E-16,0.));
#661=DIRECTION('',(0.,0.,-1.));
#662=DIRECTION('',(1.,0.,0.));
#663=DIRECTION('',(-2.83712590511265E-16,1.,0.));
#664=DIRECTION('',(-2.83712590511265E-16,1.,0.));
#665=DIRECTION('',(0.,0.,-1.));
#666=DIRECTION('',(1.,0.,0.));
#667=DIRECTION('',(-2.83712590511265E-16,1.,0.));
#668=DIRECTION('',(-2.83712590511265E-16,1.,0.));
#669=DIRECTION('',(-1.,-2.83712590511265E-16,0.));
#670=DIRECTION('',(2.83712590511265E-16,-1.,0.));
#671=DIRECTION('',(-2.83712590511265E-16,1.,0.));
#672=DIRECTION('',(0.,0.,-1.));
#673=DIRECTION('',(0.,0.,-1.));
#674=DIRECTION('',(-2.83712590511265E-16,1.,0.));
#675=DIRECTION('',(0.,0.,-1.));
#676=DIRECTION('',(0.,0.,-1.));
#677=DIRECTION('',(1.,0.,0.));
#678=DIRECTION('',(0.,0.,-1.));
#679=DIRECTION('',(0.,0.,-1.));
#680=DIRECTION('',(0.,-1.,0.));
#681=DIRECTION('',(0.,0.,-1.));
#682=DIRECTION('',(0.,1.,0.));
#683=DIRECTION('',(0.,0.,1.));
#684=DIRECTION('',(1.,0.,0.));
#685=DIRECTION('',(0.,1.,0.));
#686=DIRECTION('',(0.,0.,1.));
#687=DIRECTION('',(1.,0.,0.));
#688=DIRECTION('',(0.,0.,-1.));
#689=DIRECTION('',(1.,0.,0.));
#690=DIRECTION('',(0.,-1.,0.));
#691=DIRECTION('',(0.,0.,-1.));
#692=DIRECTION('',(0.,0.,-1.));
#693=DIRECTION('',(-1.,0.,0.));
#694=DIRECTION('',(-1.,0.,0.));
#695=DIRECTION('',(0.,0.,1.));
#696=DIRECTION('',(0.,0.,-1.));
#697=DIRECTION('',(0.,1.,0.));
#698=DIRECTION('',(0.,-1.,0.));
#699=DIRECTION('',(0.,0.,-1.));
#700=DIRECTION('',(-1.,0.,0.));
#701=DIRECTION('',(0.,0.,-1.));
#702=DIRECTION('',(1.,0.,0.));
#703=CARTESIAN_POINT('',(0.,0.,0.));
#704=CARTESIAN_POINT('',(0.128863658756018,-0.0749648846685887,-0.0041));
#705=CARTESIAN_POINT('',(-0.0455578136548177,-0.0176837021471511,-0.0041));
#706=CARTESIAN_POINT('',(-0.0480578136548177,-0.0176837021471511,-0.0041));
#707=CARTESIAN_POINT('',(0.128863658756018,-0.0749648846685887,-0.0041));
#708=CARTESIAN_POINT('',(-0.045551154698594,-0.131997094128717,-0.0041));
#709=CARTESIAN_POINT('',(-0.048051154698594,-0.131997094128717,-0.0041));
#710=CARTESIAN_POINT('',(-0.0455578136548177,-0.0176837021471511,-0.0041));
#711=CARTESIAN_POINT('',(-0.0455578136548177,-0.0176837021471511,-0.009));
#712=CARTESIAN_POINT('',(-0.0480578136548177,-0.0176837021471511,-0.009));
#713=CARTESIAN_POINT('',(-0.045551154698594,-0.131997094128717,-0.0041));
#714=CARTESIAN_POINT('',(-0.045551154698594,-0.131997094128717,-0.009));
#715=CARTESIAN_POINT('',(-0.048051154698594,-0.131997094128717,-0.009));
#716=CARTESIAN_POINT('',(-0.04275,0.,-0.0103));
#717=CARTESIAN_POINT('',(-0.04275,0.,-0.009));
#718=CARTESIAN_POINT('',(-0.04275,-0.12825,-0.009));
#719=CARTESIAN_POINT('',(-0.04275,-0.02075,-0.009));
#720=CARTESIAN_POINT('',(-0.04275,-0.12825,-0.0103));
#721=CARTESIAN_POINT('',(-0.04275,-0.12825,-0.0103));
#722=CARTESIAN_POINT('',(-0.04275,0.,-0.0103));
#723=CARTESIAN_POINT('',(-0.04275,-0.02075,-0.0103));
#724=CARTESIAN_POINT('',(-0.04275,-0.02075,-0.0103));
#725=CARTESIAN_POINT('',(0.128850705446743,-0.0749648846685887,-0.0103));
#726=CARTESIAN_POINT('',(0.128850705446743,-0.136108130216599,-0.0103));
#727=CARTESIAN_POINT('',(-0.0494402423501015,-0.136108130216598,-0.0103));
#728=CARTESIAN_POINT('',(-0.0494661489686512,-0.136108130216599,-0.0103));
#729=CARTESIAN_POINT('',(-0.0494402423501015,-0.0749648846685886,-0.0103));
#730=CARTESIAN_POINT('',(-0.0494402423501015,-0.0138216391205787,-0.0103));
#731=CARTESIAN_POINT('',(0.128850705446743,-0.0138216391205787,-0.0103));
#732=CARTESIAN_POINT('',(-0.0494661489686512,-0.0138216391205787,-0.0103));
#733=CARTESIAN_POINT('',(-0.0494661489686512,-0.0749648846685886,-0.0103));
#734=CARTESIAN_POINT('',(-0.0494402423501015,-0.0749648846685886,-0.0103));
#735=CARTESIAN_POINT('',(-0.0494402423501015,-0.0749648846685886,-0.009));
#736=CARTESIAN_POINT('',(-0.0494402423501015,-0.136108130216598,-0.009));
#737=CARTESIAN_POINT('',(-0.0494402423501015,-0.0138216391205787,-0.009));
#738=CARTESIAN_POINT('',(-0.0494402423501015,-0.0138216391205787,-0.0103));
#739=CARTESIAN_POINT('',(-0.0494402423501015,-0.136108130216598,-0.0103));
#740=CARTESIAN_POINT('',(-0.0494661489686512,-0.0749648846685886,-0.0173));
#741=CARTESIAN_POINT('',(-0.0494661489686512,-0.0138216391205787,-0.0173));
#742=CARTESIAN_POINT('',(-0.0494661489686512,-0.0138216391205787,-0.0173));
#743=CARTESIAN_POINT('',(-0.0494661489686512,-0.0749648846685886,-0.0173));
#744=CARTESIAN_POINT('',(-0.0494661489686512,-0.136108130216599,-0.0173));
#745=CARTESIAN_POINT('',(-0.0494661489686512,-0.136108130216599,-0.0173));
#746=CARTESIAN_POINT('',(-0.0391550920903683,-0.0755522921681404,-0.0144));
#747=CARTESIAN_POINT('',(-0.0391550920903683,-0.126463428139687,-0.0144));
#748=CARTESIAN_POINT('',(-0.0391550920903683,-0.126463428139687,-0.0144));
#749=CARTESIAN_POINT('',(-0.0391550920903683,-0.126463428139687,-0.0103));
#750=CARTESIAN_POINT('',(-0.0391550920903683,-0.0755522921681404,-0.0144));
#751=CARTESIAN_POINT('',(-0.0391550920903683,-0.0246411561965942,-0.0144));
#752=CARTESIAN_POINT('',(-0.0391550920903683,-0.0246411561965942,-0.0144));
#753=CARTESIAN_POINT('',(-0.0391550920903683,-0.0246411561965942,-0.0103));
#754=CARTESIAN_POINT('',(-0.0391550920903683,-0.0749648846685887,-0.0103));
#755=CARTESIAN_POINT('',(0.122597994282842,-0.0755522921681404,-0.0144));
#756=CARTESIAN_POINT('',(0.120659736948008,-0.0755522921681404,-0.0144));
#757=CARTESIAN_POINT('',(0.120659736948008,-0.0246411561965942,-0.0144));
#758=CARTESIAN_POINT('',(0.120659736948008,-0.126463428139687,-0.0144));
#759=CARTESIAN_POINT('',(0.122597994282842,-0.0246411561965942,-0.0144));
#760=CARTESIAN_POINT('',(0.122597994282842,-0.126463428139687,-0.0144));
#761=CARTESIAN_POINT('',(0.122597994282842,-0.0246411561965942,-0.0144));
#762=CARTESIAN_POINT('',(0.120659736948008,-0.0246411561965942,-0.0144));
#763=CARTESIAN_POINT('',(0.120659736948008,-0.0246411561965942,-0.0103));
#764=CARTESIAN_POINT('',(0.128850705446743,-0.0246411561965942,-0.0103));
#765=CARTESIAN_POINT('',(0.122597994282842,-0.126463428139687,-0.0144));
#766=CARTESIAN_POINT('',(0.128850705446743,-0.126463428139687,-0.0103));
#767=CARTESIAN_POINT('',(0.120659736948008,-0.126463428139687,-0.0103));
#768=CARTESIAN_POINT('',(0.120659736948008,-0.126463428139687,-0.0144));
#769=CARTESIAN_POINT('',(0.,-0.02075,-0.0103));
#770=CARTESIAN_POINT('',(0.120659736948008,-0.02075,-0.0103));
#771=CARTESIAN_POINT('',(0.120659736948008,-0.02075,-0.009));
#772=CARTESIAN_POINT('',(0.120659736948008,-0.02075,-0.0103));
#773=CARTESIAN_POINT('',(0.,-0.02075,-0.009));
#774=CARTESIAN_POINT('',(0.,-0.02075,-0.0103));
#775=CARTESIAN_POINT('',(0.,-0.12825,-0.0103));
#776=CARTESIAN_POINT('',(0.120659736948008,-0.12825,-0.0103));
#777=CARTESIAN_POINT('',(0.120659736948008,-0.12825,-0.0103));
#778=CARTESIAN_POINT('',(0.120659736948008,-0.12825,-0.009));
#779=CARTESIAN_POINT('',(0.,-0.12825,-0.0103));
#780=CARTESIAN_POINT('',(0.,-0.12825,-0.009));
#781=CARTESIAN_POINT('',(0.128850705446743,-0.0749648846685887,-0.0173));
#782=CARTESIAN_POINT('',(0.1192406674196,-0.134836122232768,-0.0173));
#783=CARTESIAN_POINT('',(0.120659736948008,-0.134836122232768,-0.0173));
#784=CARTESIAN_POINT('',(0.112517347344612,-0.134836122232768,-0.0173));
#785=CARTESIAN_POINT('',(0.120659736948008,-0.0749648846685887,-0.0173));
#786=CARTESIAN_POINT('',(0.120659736948008,-0.136108130216599,-0.0173));
#787=CARTESIAN_POINT('',(0.128850705446743,-0.136108130216599,-0.0173));
#788=CARTESIAN_POINT('',(0.128850705446743,-0.0138216391205787,-0.0173));
#789=CARTESIAN_POINT('',(0.120659736948008,-0.0138216391205787,-0.0173));
#790=CARTESIAN_POINT('',(0.120659736948008,-0.0749648846685887,-0.0173));
#791=CARTESIAN_POINT('',(0.120659736948008,-0.0158728054598218,-0.0173));
#792=CARTESIAN_POINT('',(0.120371930056304,-0.0158728054598218,-0.0173));
#793=CARTESIAN_POINT('',(0.112871930056304,-0.0158728054598218,-0.0173));
#794=CARTESIAN_POINT('',(0.112871930056304,-0.0183728054598218,-0.0173));
#795=CARTESIAN_POINT('',(0.112871930056304,-0.0208728054598218,-0.0173));
#796=CARTESIAN_POINT('',(0.120371930056304,-0.0208728054598218,-0.0173));
#797=CARTESIAN_POINT('',(0.120659736948008,-0.0208728054598218,-0.0173));
#798=CARTESIAN_POINT('',(0.120659736948008,-0.0749648846685887,-0.0173));
#799=CARTESIAN_POINT('',(0.120659736948008,-0.130010679180752,-0.0173));
#800=CARTESIAN_POINT('',(0.1192406674196,-0.130010679180752,-0.0173));
#801=CARTESIAN_POINT('',(0.112517347344612,-0.130010679180752,-0.0173));
#802=CARTESIAN_POINT('',(0.112517347344612,-0.13242340070676,-0.0173));
#803=CARTESIAN_POINT('',(0.128863658756018,-0.136108130216599,-0.0103));
#804=CARTESIAN_POINT('',(0.120659736948008,-0.136108130216599,-0.0103));
#805=CARTESIAN_POINT('',(0.120659736948008,-0.136108130216599,-0.009));
#806=CARTESIAN_POINT('',(0.128863658756018,-0.136108130216599,-0.009));
#807=CARTESIAN_POINT('',(0.128863658756018,-0.0138216391205787,-0.0103));
#808=CARTESIAN_POINT('',(0.120659736948008,-0.0138216391205787,-0.0103));
#809=CARTESIAN_POINT('',(0.120659736948008,-0.0138216391205787,-0.009));
#810=CARTESIAN_POINT('',(0.128863658756018,-0.0138216391205787,-0.009));
#811=CARTESIAN_POINT('',(0.128863658756018,-0.0749648846685887,-0.009));
#812=CARTESIAN_POINT('',(0.120659736948008,-0.0749648846685887,-0.009));
#813=CARTESIAN_POINT('',(0.120659736948008,-0.0749648846685887,-0.009));
#814=CARTESIAN_POINT('',(0.128850705446743,-0.0749648846685887,-0.0103));
#815=CARTESIAN_POINT('',(0.120659736948008,-0.0749648846685887,-0.0103));
#816=CARTESIAN_POINT('',(0.120659736948008,-0.0749648846685887,-0.0103));
#817=CARTESIAN_POINT('',(0.120659736948008,-0.0749652548879627,0.00851));
#818=CARTESIAN_POINT('',(0.120659736948008,-0.0749648846685887,-0.0133));
#819=CARTESIAN_POINT('',(0.120659736948008,-0.134836122232768,-0.0133));
#820=CARTESIAN_POINT('',(0.120659736948008,-0.130010679180752,-0.0133));
#821=CARTESIAN_POINT('',(0.120659736948008,-0.130010679180752,-0.0133));
#822=CARTESIAN_POINT('',(0.120659736948008,-0.0208728054598218,-0.0133));
#823=CARTESIAN_POINT('',(0.120659736948008,-0.0208728054598218,-0.0133));
#824=CARTESIAN_POINT('',(0.120659736948008,-0.0749648846685887,-0.0133));
#825=CARTESIAN_POINT('',(0.120659736948008,-0.0158728054598218,-0.0133));
#826=CARTESIAN_POINT('',(0.120659736948008,-0.0158728054598218,-0.0133));
#827=CARTESIAN_POINT('',(0.120659736948008,-0.134836122232768,-0.0133));
#828=CARTESIAN_POINT('',(0.112871930056304,-0.0183728054598218,-0.0133));
#829=CARTESIAN_POINT('',(0.112871930056304,-0.0158728054598218,-0.0133));
#830=CARTESIAN_POINT('',(0.112871930056304,-0.0158728054598218,-0.0133));
#831=CARTESIAN_POINT('',(0.112871930056304,-0.0183728054598218,-0.0133));
#832=CARTESIAN_POINT('',(0.112871930056304,-0.0208728054598218,-0.0133));
#833=CARTESIAN_POINT('',(0.112871930056304,-0.0208728054598218,-0.0133));
#834=CARTESIAN_POINT('',(0.120371930056304,-0.0158728054598218,-0.0133));
#835=CARTESIAN_POINT('',(0.120371930056304,-0.0158728054598218,-0.0133));
#836=CARTESIAN_POINT('',(0.120371930056304,-0.0208728054598218,-0.0133));
#837=CARTESIAN_POINT('',(0.120371930056304,-0.0208728054598218,-0.0133));
#838=CARTESIAN_POINT('',(0.209842453603375,-0.0749648846685887,-0.0133));
#839=CARTESIAN_POINT('',(0.1192406674196,-0.134836122232768,-0.0133));
#840=CARTESIAN_POINT('',(0.112517347344612,-0.134836122232768,-0.0133));
#841=CARTESIAN_POINT('',(0.112517347344612,-0.134836122232768,-0.0133));
#842=CARTESIAN_POINT('',(0.1192406674196,-0.134836122232768,-0.0133));
#843=CARTESIAN_POINT('',(0.112517347344612,-0.13242340070676,-0.0133));
#844=CARTESIAN_POINT('',(0.112517347344612,-0.130010679180752,-0.0133));
#845=CARTESIAN_POINT('',(0.112517347344612,-0.130010679180752,-0.0133));
#846=CARTESIAN_POINT('',(0.112517347344612,-0.13242340070676,-0.0133));
#847=CARTESIAN_POINT('',(0.1192406674196,-0.130010679180752,-0.0133));
#848=CARTESIAN_POINT('',(0.1192406674196,-0.130010679180752,-0.0133));
#849=CARTESIAN_POINT('',(0.209842453603375,-0.0749648846685887,-0.0133));
#850=MECHANICAL_DESIGN_GEOMETRIC_PRESENTATION_REPRESENTATION('',(#527),
#851);
#851=(
GEOMETRIC_REPRESENTATION_CONTEXT(3)
GLOBAL_UNCERTAINTY_ASSIGNED_CONTEXT((#852))
GLOBAL_UNIT_ASSIGNED_CONTEXT((#855,#854,#853))
REPRESENTATION_CONTEXT('Part 3','TOP_LEVEL_ASSEMBLY_PART')
);
#852=UNCERTAINTY_MEASURE_WITH_UNIT(LENGTH_MEASURE(1.E-8),#855,
'DISTANCE_ACCURACY_VALUE','Maximum Tolerance applied to model');
#853=(
NAMED_UNIT(*)
SI_UNIT($,.STERADIAN.)
SOLID_ANGLE_UNIT()
);
#854=(
NAMED_UNIT(*)
PLANE_ANGLE_UNIT()
SI_UNIT($,.RADIAN.)
);
#855=(
LENGTH_UNIT()
NAMED_UNIT(*)
SI_UNIT($,.METRE.)
);
#856=PRODUCT_DEFINITION_SHAPE('','',#857);
#857=PRODUCT_DEFINITION('','',#859,#858);
#858=PRODUCT_DEFINITION_CONTEXT('',#865,'design');
#859=PRODUCT_DEFINITION_FORMATION_WITH_SPECIFIED_SOURCE('','',#861,
 .NOT_KNOWN.);
#860=PRODUCT_RELATED_PRODUCT_CATEGORY('','',(#861));
#861=PRODUCT('Part 3','Part 3','Part 3',(#863));
#862=PRODUCT_CATEGORY('','');
#863=PRODUCT_CONTEXT('',#865,'mechanical');
#864=APPLICATION_PROTOCOL_DEFINITION('international standard',
'ap242_managed_model_based_3d_engineering',2020,#865);
#865=APPLICATION_CONTEXT('managed model based 3d engineering');
ENDSEC;
END-ISO-10303-21;
